SplineFontDB: 3.0
FontName: Sanchez-Regular
FullName: Sanchez
FamilyName: Sanchez
Weight: Book
Copyright: Copyright (c) 2012, LatinoType (www.latinotype.com), with Reserved Font Name 'Sanchez'
Version: 1.001
ItalicAngle: 0
UnderlinePosition: -50
UnderlineWidth: 50
Ascent: 800
Descent: 200
sfntRevision: 0x00010042
LayerCount: 2
Layer: 0 1 "Back"  1
Layer: 1 1 "Fore"  0
XUID: [1021 186 1545780934 4418797]
FSType: 0
OS2Version: 3
OS2_WeightWidthSlopeOnly: 0
OS2_UseTypoMetrics: 1
CreationTime: 1329493740
ModificationTime: 1349496249
PfmFamily: 17
TTFWeight: 400
TTFWidth: 5
LineGap: 0
VLineGap: 0
Panose: 2 0 0 0 0 0 0 0 0 0
OS2TypoAscent: 1004
OS2TypoAOffset: 0
OS2TypoDescent: -274
OS2TypoDOffset: 0
OS2TypoLinegap: 0
OS2WinAscent: 1004
OS2WinAOffset: 0
OS2WinDescent: 274
OS2WinDOffset: 0
HheadAscent: 1004
HheadAOffset: 0
HheadDescent: -274
HheadDOffset: 0
OS2SubXSize: 650
OS2SubYSize: 600
OS2SubXOff: 0
OS2SubYOff: 75
OS2SupXSize: 650
OS2SupYSize: 600
OS2SupXOff: 0
OS2SupYOff: 350
OS2StrikeYSize: 50
OS2StrikeYPos: 295
OS2Vendor: 'pyrs'
OS2CodePages: 20000093.00000000
OS2UnicodeRanges: a000002f.5000005a.00000000.00000000
Lookup: 1 0 0 "'salt' Stylistic Alternatives lookup 0"  {"'salt' Stylistic Alternatives lookup 0 subtable"  } ['salt' ('DFLT' <'dflt' > ) ]
Lookup: 4 0 1 "'liga' Standard Ligatures lookup 1"  {"'liga' Standard Ligatures lookup 1 subtable"  } ['liga' ('DFLT' <'dflt' > ) ]
Lookup: 258 0 0 "'kern' Horizontal Kerning lookup 0"  {"'kern' Horizontal Kerning lookup 0 per glyph data 0"  "'kern' Horizontal Kerning lookup 0 per glyph data 1"  "'kern' Horizontal Kerning lookup 0 kerning class 2"  } ['kern' ('DFLT' <'dflt' > ) ]
DEI: 91125
KernClass2: 40+ 29 "'kern' Horizontal Kerning lookup 0 kerning class 2" 
 73 a agrave aacute acircumflex atilde adieresis aring amacron abreve aogonek
 92 e ae egrave eacute ecircumflex edieresis emacron ebreve edotaccent eogonek ecaron oe aeacute
 47 c ccedilla cacute ccircumflex cdotaccent ccaron
 4 f ff
 15 d dcaron dcroat

StartChar: exclam
Encoding: 33 33 4
Width: 182
GlyphClass: 2
Flags: W
LayerCount: 2
Fore
SplineSet
121 148 m 2,0,-1
 61 148 l 2,1,2
 49 148 49 148 49 160 c 2,3,-1
 49 748 l 2,4,5
 49 760 49 760 61 760 c 2,6,-1
 121 760 l 2,7,8
 133 760 133 760 133 748 c 2,9,-1
 133 160 l 2,10,11
 133 148 133 148 121 148 c 2,0,-1
144 4 m 128,-1,13
 144 -18 144 -18 129 -33.5 c 128,-1,14
 114 -49 114 -49 91.5 -49 c 128,-1,15
 69 -49 69 -49 53.5 -33.5 c 128,-1,16
 38 -18 38 -18 38 4 c 128,-1,17
 38 26 38 26 53.5 41.5 c 128,-1,18
 69 57 69 57 91.5 57 c 128,-1,19
 114 57 114 57 129 41.5 c 128,-1,12
 144 26 144 26 144 4 c 128,-1,13
EndSplineSet
EndChar

StartChar: quotedbl
Encoding: 34 34 5
Width: 278
GlyphClass: 2
Flags: W
LayerCount: 2
Fore
SplineSet
90 561 m 2,0,-1
 56 561 l 2,1,2
 43 561 43 561 43 574 c 2,3,-1
 38 737 l 2,4,5
 38 750 38 750 52 750 c 2,6,-1
 95 750 l 2,7,8
 110 750 110 750 108 737 c 1,9,-1
 103 574 l 2,10,11
 103 561 103 561 90 561 c 2,0,-1
222 561 m 2,12,-1
 188 561 l 2,13,14
 175 561 175 561 175 574 c 2,15,-1
 170 737 l 2,16,17
 170 750 170 750 183 750 c 2,18,-1
 227 750 l 2,19,20
 242 750 242 750 240 737 c 1,21,-1
 235 574 l 2,22,23
 235 561 235 561 222 561 c 2,12,-1
EndSplineSet
EndChar

StartChar: numbersign
Encoding: 35 35 6
Width: 612
GlyphClass: 2
Flags: W
LayerCount: 2
Fore
SplineSet
507 112 m 2,0,-1
 409 112 l 1,1,-1
 378 5 l 2,2,3
 375 -7 375 -7 363 -7 c 2,4,-1
 314 -7 l 2,5,6
 300 -7 300 -7 305 5 c 1,7,-1
 335 112 l 1,8,-1
 205 112 l 1,9,-1
 174 5 l 2,10,11
 171 -7 171 -7 158 -7 c 2,12,-1
 109 -7 l 2,13,14
 97 -7 97 -7 100 5 c 2,15,-1
 131 112 l 1,16,-1
 51 112 l 2,17,18
 38 112 38 112 38 124 c 2,19,-1
 38 161 l 2,20,21
 38 173 38 173 51 173 c 2,22,-1
 148 173 l 1,23,-1
 184 299 l 1,24,-1
 105 299 l 2,25,26
 93 299 93 299 93 312 c 2,27,-1
 93 348 l 2,28,29
 93 361 93 361 105 361 c 2,30,-1
 202 361 l 1,31,-1
 234 470 l 2,32,33
 237 483 237 483 250 483 c 2,34,-1
 300 483 l 2,35,36
 311 483 311 483 308 470 c 2,37,-1
 276 361 l 1,38,-1
 407 361 l 1,39,-1
 439 470 l 2,40,41
 442 483 442 483 455 483 c 2,42,-1
 504 483 l 2,43,44
 517 483 517 483 512 470 c 1,45,-1
 481 361 l 1,46,-1
 561 361 l 2,47,48
 574 361 574 361 574 348 c 2,49,-1
 574 312 l 2,50,51
 574 299 574 299 561 299 c 2,52,-1
 463 299 l 1,53,-1
 426 173 l 1,54,-1
 507 173 l 2,55,56
 519 173 519 173 519 161 c 2,57,-1
 519 124 l 2,58,59
 519 112 519 112 507 112 c 2,0,-1
352 173 m 1,60,-1
 389 299 l 1,61,-1
 258 299 l 1,62,-1
 222 173 l 1,63,-1
 352 173 l 1,60,-1
EndSplineSet
EndChar

StartChar: dollar
Encoding: 36 36 7
Width: 646
GlyphClass: 2
Flags: W
LayerCount: 2
Fore
SplineSet
361 -86 m 2,0,-1
 307 -86 l 2,1,2
 295 -86 295 -86 295 -74 c 2,3,-1
 295 1 l 1,4,5
 228 10 228 10 184.5 41.5 c 128,-1,6
 141 73 141 73 119 110 c 1,7,-1
 117 110 l 1,8,-1
 119 43 l 2,9,10
 120 31 120 31 107 31 c 2,11,-1
 51 31 l 2,12,13
 38 31 38 31 38 43 c 2,14,-1
 38 231 l 2,15,16
 38 243 38 243 51 243 c 2,17,-1
 114 243 l 2,18,19
 126 243 126 243 126 231 c 2,20,-1
 126 225 l 1,21,22
 129 197 129 197 173 143 c 0,23,24
 196 115 196 115 240.5 94.5 c 128,-1,25
 285 74 285 74 351 74 c 128,-1,26
 417 74 417 74 460.5 106 c 128,-1,27
 504 138 504 138 504 195 c 0,28,29
 504 230 504 230 479.5 255 c 128,-1,30
 455 280 455 280 416 294 c 128,-1,31
 377 308 377 308 329.5 319.5 c 128,-1,32
 282 331 282 331 234.5 346 c 128,-1,33
 187 361 187 361 148 381.5 c 128,-1,34
 109 402 109 402 84.5 440 c 128,-1,35
 60 478 60 478 60 530 c 0,36,37
 60 611 60 611 120 665.5 c 128,-1,38
 180 720 180 720 283 724 c 1,39,-1
 283 793 l 2,40,41
 283 805 283 805 295 805 c 2,42,-1
 349 805 l 2,43,44
 361 805 361 805 361 793 c 2,45,-1
 361 714 l 1,46,47
 447 702 447 702 492 645 c 1,48,-1
 490 684 l 2,49,50
 490 696 490 696 503 696 c 2,51,-1
 559 696 l 2,52,53
 571 696 571 696 571 684 c 2,54,-1
 571 503 l 2,55,56
 571 491 571 491 559 491 c 2,57,-1
 496 491 l 2,58,59
 484 491 484 491 484 503 c 2,60,-1
 484 516 l 1,61,62
 482 554 482 554 444 594 c 0,63,64
 424 615 424 615 387.5 628.5 c 128,-1,65
 351 642 351 642 294 642 c 128,-1,66
 237 642 237 642 196.5 610.5 c 128,-1,67
 156 579 156 579 156 535.5 c 128,-1,68
 156 492 156 492 181 465.5 c 128,-1,69
 206 439 206 439 246 424.5 c 128,-1,70
 286 410 286 410 334 397.5 c 128,-1,71
 382 385 382 385 430 370.5 c 128,-1,72
 478 356 478 356 518 336.5 c 128,-1,73
 558 317 558 317 583 281 c 128,-1,74
 608 245 608 245 608 195 c 0,75,76
 608 110 608 110 549.5 54 c 128,-1,77
 491 -2 491 -2 373 -6 c 1,78,-1
 373 -74 l 2,79,80
 373 -86 373 -86 361 -86 c 2,0,-1
EndSplineSet
EndChar

StartChar: percent
Encoding: 37 37 8
Width: 753
GlyphClass: 2
Flags: W
LayerCount: 2
Fore
SplineSet
183 359 m 128,-1,1
 115 359 115 359 76.5 409.5 c 128,-1,2
 38 460 38 460 38 541.5 c 128,-1,3
 38 623 38 623 77.5 673.5 c 128,-1,4
 117 724 117 724 183.5 724 c 128,-1,5
 250 724 250 724 288.5 674 c 128,-1,6
 327 624 327 624 327 542 c 128,-1,7
 327 460 327 460 289 409.5 c 128,-1,0
 251 359 251 359 183 359 c 128,-1,1
183 414 m 128,-1,9
 223 414 223 414 245.5 447.5 c 128,-1,10
 268 481 268 481 268 542 c 128,-1,11
 268 603 268 603 246 636 c 128,-1,12
 224 669 224 669 183 669 c 128,-1,13
 142 669 142 669 120 636 c 128,-1,14
 98 603 98 603 98 542 c 128,-1,15
 98 481 98 481 120.5 447.5 c 128,-1,8
 143 414 143 414 183 414 c 128,-1,9
571 -7 m 128,-1,17
 503 -7 503 -7 464.5 43.5 c 128,-1,18
 426 94 426 94 426 176 c 128,-1,19
 426 258 426 258 465 308 c 128,-1,20
 504 358 504 358 570.5 358 c 128,-1,21
 637 358 637 358 676 308 c 128,-1,22
 715 258 715 258 715 176 c 128,-1,23
 715 94 715 94 677 43.5 c 128,-1,16
 639 -7 639 -7 571 -7 c 128,-1,17
571 48 m 128,-1,25
 611 48 611 48 633 81.5 c 128,-1,26
 655 115 655 115 655 176 c 128,-1,27
 655 237 655 237 633 270 c 128,-1,28
 611 303 611 303 570.5 303 c 128,-1,29
 530 303 530 303 508 270 c 128,-1,30
 486 237 486 237 486 176 c 128,-1,31
 486 115 486 115 508.5 81.5 c 128,-1,24
 531 48 531 48 571 48 c 128,-1,25
276 -74 m 2,32,-1
 216 -74 l 2,33,34
 206 -74 206 -74 206 -66 c 0,35,36
 206 -64 206 -64 207 -62 c 2,37,-1
 450 748 l 2,38,39
 453 760 453 760 466 760 c 2,40,-1
 525 760 l 2,41,42
 535 760 535 760 535 752 c 0,43,44
 535 750 535 750 534 748 c 2,45,-1
 291 -62 l 2,46,47
 288 -74 288 -74 276 -74 c 2,32,-1
EndSplineSet
EndChar

StartChar: ampersand
Encoding: 38 38 9
Width: 674
GlyphClass: 2
Flags: W
LayerCount: 2
Fore
SplineSet
603 0 m 2,0,-1
 522 0 l 2,1,2
 501 0 501 0 474 37 c 2,3,-1
 453 67 l 1,4,5
 382 -7 382 -7 270.5 -7 c 128,-1,6
 159 -7 159 -7 98 54.5 c 128,-1,7
 37 116 37 116 37 195 c 0,8,9
 37 288 37 288 100 341 c 0,10,11
 149 382 149 382 208 406 c 1,12,13
 140 485 140 485 140 561 c 128,-1,14
 140 637 140 637 187.5 680.5 c 128,-1,15
 235 724 235 724 305 724 c 128,-1,16
 375 724 375 724 423.5 684 c 128,-1,17
 472 644 472 644 472 572 c 128,-1,18
 472 500 472 500 430.5 458 c 128,-1,19
 389 416 389 416 319 381 c 1,20,-1
 452 192 l 1,21,22
 478 245 478 245 478 342 c 0,23,24
 478 354 478 354 491 354 c 2,25,-1
 623 354 l 2,26,27
 635 354 635 354 635 342 c 2,28,-1
 635 305 l 2,29,30
 635 293 635 293 623 293 c 2,31,-1
 549 293 l 1,32,33
 545 203 545 203 500 125 c 1,34,-1
 540 69 l 1,35,-1
 603 69 l 2,36,37
 616 69 616 69 616 57 c 2,38,-1
 616 12 l 2,39,40
 616 0 616 0 603 0 c 2,0,-1
126 197 m 0,41,42
 126 138 126 138 169 102 c 128,-1,43
 212 66 212 66 274 66 c 0,44,45
 360 66 360 66 410 126 c 1,46,-1
 252 347 l 1,47,48
 164 309 164 309 138 256 c 1,49,50
 126 229 126 229 126 197 c 0,41,42
386 516 m 0,51,52
 396 537 396 537 396 569 c 128,-1,53
 396 601 396 601 373.5 626.5 c 128,-1,54
 351 652 351 652 310.5 652 c 128,-1,55
 270 652 270 652 245 627 c 128,-1,56
 220 602 220 602 220 554.5 c 128,-1,57
 220 507 220 507 279 435 c 1,58,59
 368 474 368 474 386 516 c 0,51,52
EndSplineSet
EndChar

StartChar: quotesingle
Encoding: 39 39 10
Width: 147
GlyphClass: 2
Flags: W
LayerCount: 2
Fore
SplineSet
90 561 m 2,0,-1
 56 561 l 2,1,2
 43 561 43 561 43 574 c 2,3,-1
 38 737 l 2,4,5
 38 750 38 750 52 750 c 2,6,-1
 95 750 l 2,7,8
 108 750 108 750 108 737 c 2,9,-1
 103 574 l 2,10,11
 103 561 103 561 90 561 c 2,0,-1
EndSplineSet
EndChar

StartChar: parenleft
Encoding: 40 40 11
Width: 412
GlyphClass: 2
Flags: W
LayerCount: 2
Fore
SplineSet
373 -2 m 2,0,-1
 373 -53 l 2,1,2
 373 -66 373 -66 360 -66 c 0,3,4
 239 -66 239 -66 143 34 c 0,5,6
 96 83 96 83 67 165.5 c 128,-1,7
 38 248 38 248 38 351 c 128,-1,8
 38 454 38 454 67 535.5 c 128,-1,9
 96 617 96 617 143 666 c 0,10,11
 238 765 238 765 360 765 c 0,12,13
 373 765 373 765 373 752 c 2,14,-1
 373 701 l 2,15,16
 373 688 373 688 360 688 c 0,17,18
 275 688 275 688 201 606 c 0,19,20
 165 567 165 567 143 499.5 c 128,-1,21
 121 432 121 432 121 347.5 c 128,-1,22
 121 263 121 263 143.5 195.5 c 128,-1,23
 166 128 166 128 202 90 c 0,24,25
 275 11 275 11 360 11 c 0,26,27
 373 11 373 11 373 -2 c 2,0,-1
EndSplineSet
EndChar

StartChar: parenright
Encoding: 41 41 12
Width: 412
GlyphClass: 2
Flags: W
LayerCount: 2
Fore
SplineSet
38 -53 m 2,0,-1
 38 -3 l 2,1,2
 38 11 38 11 52 11 c 0,3,4
 138 11 138 11 210 89 c 0,5,6
 246 128 246 128 268.5 195 c 128,-1,7
 291 262 291 262 291 346.5 c 128,-1,8
 291 431 291 431 269 498.5 c 128,-1,9
 247 566 247 566 211 606 c 0,10,11
 137 687 137 687 52 687 c 0,12,13
 38 687 38 687 38 700 c 2,14,-1
 38 751 l 2,15,16
 38 764 38 764 52 764 c 0,17,18
 172 764 172 764 268 666 c 0,19,20
 316 617 316 617 344.5 535 c 128,-1,21
 373 453 373 453 373 350 c 128,-1,22
 373 247 373 247 344.5 164.5 c 128,-1,23
 316 82 316 82 268 33 c 0,24,25
 172 -67 172 -67 52 -67 c 0,26,27
 38 -67 38 -67 38 -53 c 2,0,-1
EndSplineSet
EndChar

StartChar: asterisk
Encoding: 42 42 13
Width: 413
GlyphClass: 2
Flags: W
LayerCount: 2
Fore
SplineSet
223 420 m 2,0,-1
 189 420 l 2,1,2
 183 420 183 420 179 424 c 128,-1,3
 175 428 175 428 176 433 c 2,4,-1
 187 546 l 1,5,-1
 119 457 l 1,6,7
 109 446 109 446 99 456 c 2,8,-1
 76 480 l 2,9,10
 65 491 65 491 76 500 c 2,11,-1
 167 569 l 1,12,-1
 52 557 l 2,13,14
 46 556 46 556 42 560 c 128,-1,15
 38 564 38 564 38 570 c 2,16,-1
 38 604 l 2,17,18
 38 610 38 610 42 614 c 128,-1,19
 46 618 46 618 52 617 c 2,20,-1
 166 603 l 1,21,-1
 75 675 l 2,22,23
 64 684 64 684 75 694 c 2,24,-1
 99 718 l 1,25,26
 110 727 110 727 118 718 c 2,27,-1
 189 629 l 1,28,-1
 176 742 l 2,29,30
 175 747 175 747 179 751 c 128,-1,31
 183 755 183 755 189 755 c 2,32,-1
 223 755 l 2,33,34
 229 755 229 755 233 751.5 c 128,-1,35
 237 748 237 748 236 742 c 2,36,-1
 225 628 l 1,37,-1
 294 718 l 1,38,39
 304 729 304 729 313 718 c 1,40,-1
 337 695 l 2,41,42
 348 684 348 684 336 675 c 2,43,-1
 247 602 l 1,44,-1
 360 618 l 2,45,46
 366 619 366 619 370 615 c 128,-1,47
 374 611 374 611 374 605 c 2,48,-1
 374 571 l 2,49,50
 374 557 374 557 360 557 c 1,51,-1
 249 568 l 1,52,-1
 337 500 l 2,53,54
 346 492 346 492 337 481 c 1,55,-1
 313 457 l 1,56,57
 304 446 304 446 294 457 c 2,58,-1
 223 544 l 1,59,-1
 236 433 l 2,60,61
 237 427 237 427 233 423.5 c 128,-1,62
 229 420 229 420 223 420 c 2,0,-1
EndSplineSet
EndChar

StartChar: plus
Encoding: 43 43 14
Width: 401
GlyphClass: 2
Flags: W
LayerCount: 2
Fore
SplineSet
231 96 m 2,0,-1
 173 96 l 2,1,2
 161 96 161 96 161 109 c 2,3,-1
 161 216 l 1,4,-1
 52 216 l 2,5,6
 38 216 38 216 38 229 c 2,7,-1
 38 280 l 2,8,9
 38 293 38 293 52 293 c 2,10,-1
 161 293 l 1,11,-1
 161 403 l 2,12,13
 161 415 161 415 173 415 c 2,14,-1
 231 415 l 2,15,16
 243 415 243 415 243 403 c 2,17,-1
 243 293 l 1,18,-1
 349 293 l 2,19,20
 362 293 362 293 362 280 c 2,21,-1
 362 229 l 2,22,23
 362 216 362 216 349 216 c 2,24,-1
 243 216 l 1,25,-1
 243 109 l 2,26,27
 243 96 243 96 231 96 c 2,0,-1
EndSplineSet
EndChar

StartChar: comma
Encoding: 44 44 15
Width: 159
GlyphClass: 2
Flags: W
LayerCount: 2
Fore
SplineSet
45 -90 m 2,0,-1
 45 -73 l 2,1,2
 45 -67 45 -67 56.5 -67 c 128,-1,3
 68 -67 68 -67 80.5 -53.5 c 128,-1,4
 93 -40 93 -40 93 -14 c 1,5,-1
 91 -2 l 1,6,7
 85 -7 85 -7 69.5 -7 c 128,-1,8
 54 -7 54 -7 41 5.5 c 128,-1,9
 28 18 28 18 28 38.5 c 128,-1,10
 28 59 28 59 42 72.5 c 128,-1,11
 56 86 56 86 79 86 c 128,-1,12
 102 86 102 86 116.5 67 c 128,-1,13
 131 48 131 48 131 2.5 c 128,-1,14
 131 -43 131 -43 109 -69 c 128,-1,15
 87 -95 87 -95 52 -95 c 0,16,17
 45 -95 45 -95 45 -90 c 2,0,-1
EndSplineSet
EndChar

StartChar: hyphen
Encoding: 45 45 16
Width: 414
GlyphClass: 2
Flags: W
LayerCount: 2
Fore
SplineSet
363 222 m 2,0,-1
 52 222 l 2,1,2
 38 222 38 222 38 235 c 2,3,-1
 38 286 l 2,4,5
 38 299 38 299 52 299 c 2,6,-1
 363 299 l 2,7,8
 376 299 376 299 376 286 c 2,9,-1
 376 235 l 2,10,11
 376 222 376 222 363 222 c 2,0,-1
EndSplineSet
EndChar

StartChar: period
Encoding: 46 46 17
Width: 151
GlyphClass: 2
Flags: W
LayerCount: 2
Fore
SplineSet
123 40 m 128,-1,1
 123 20 123 20 109.5 6.5 c 128,-1,2
 96 -7 96 -7 76 -7 c 128,-1,3
 56 -7 56 -7 42 6.5 c 128,-1,4
 28 20 28 20 28 40 c 128,-1,5
 28 60 28 60 42 73.5 c 128,-1,6
 56 87 56 87 76 87 c 128,-1,7
 96 87 96 87 109.5 73.5 c 128,-1,0
 123 60 123 60 123 40 c 128,-1,1
EndSplineSet
EndChar

StartChar: slash
Encoding: 47 47 18
Width: 405
GlyphClass: 2
Flags: W
LayerCount: 2
Fore
SplineSet
108 -74 m 2,0,-1
 48 -74 l 2,1,2
 38 -74 38 -74 38 -66 c 0,3,4
 38 -64 38 -64 39 -62 c 2,5,-1
 281 748 l 1,6,7
 286 760 286 760 298 760 c 2,8,-1
 357 760 l 2,9,10
 366 760 366 760 366 754 c 0,11,12
 366 751 366 751 365 748 c 2,13,-1
 123 -62 l 2,14,15
 120 -74 120 -74 108 -74 c 2,0,-1
EndSplineSet
EndChar

StartChar: zero
Encoding: 48 48 19
Width: 654
GlyphClass: 2
Flags: W
LayerCount: 2
Fore
SplineSet
327 -7 m 128,-1,1
 191 -7 191 -7 114.5 94 c 128,-1,2
 38 195 38 195 38 359 c 128,-1,3
 38 523 38 523 116 623.5 c 128,-1,4
 194 724 194 724 327 724 c 128,-1,5
 460 724 460 724 538 623.5 c 128,-1,6
 616 523 616 523 616 359.5 c 128,-1,7
 616 196 616 196 539.5 94.5 c 128,-1,0
 463 -7 463 -7 327 -7 c 128,-1,1
327 74 m 128,-1,9
 419 74 419 74 471 148.5 c 128,-1,10
 523 223 523 223 523 358 c 128,-1,11
 523 493 523 493 470.5 569 c 128,-1,12
 418 645 418 645 327 645 c 128,-1,13
 236 645 236 645 183.5 569 c 128,-1,14
 131 493 131 493 131 358.5 c 128,-1,15
 131 224 131 224 183 149 c 128,-1,8
 235 74 235 74 327 74 c 128,-1,9
EndSplineSet
EndChar

StartChar: one
Encoding: 49 49 20
Width: 508
GlyphClass: 2
Flags: W
LayerCount: 2
Fore
SplineSet
458 0 m 2,0,-1
 63 0 l 2,1,2
 50 0 50 0 50 12 c 2,3,-1
 50 63 l 2,4,5
 50 75 50 75 63 75 c 2,6,-1
 225 75 l 1,7,-1
 225 624 l 1,8,-1
 87 525 l 2,9,10
 77 518 77 518 70 528 c 2,11,-1
 42 569 l 2,12,13
 39 573 39 573 39 577 c 128,-1,14
 39 581 39 581 45 586 c 2,15,-1
 219 711 l 2,16,17
 229 718 229 718 237 718 c 2,18,-1
 300 718 l 2,19,20
 312 718 312 718 312 706 c 2,21,-1
 312 75 l 1,22,-1
 458 75 l 2,23,24
 470 75 470 75 470 63 c 2,25,-1
 470 12 l 2,26,27
 470 0 470 0 458 0 c 2,0,-1
EndSplineSet
EndChar

StartChar: two
Encoding: 50 50 21
Width: 602
GlyphClass: 2
Flags: W
LayerCount: 2
Fore
SplineSet
551 0 m 2,0,-1
 51 0 l 2,1,2
 38 0 38 0 38 12 c 2,3,-1
 38 43 l 2,4,5
 38 103 38 103 61.5 151 c 128,-1,6
 85 199 85 199 122.5 229.5 c 128,-1,7
 160 260 160 260 205 285 c 128,-1,8
 250 310 250 310 295 331.5 c 128,-1,9
 340 353 340 353 378 376 c 0,10,11
 462 428 462 428 462 505 c 0,12,13
 462 563 462 563 417.5 603.5 c 128,-1,14
 373 644 373 644 297 644 c 128,-1,15
 221 644 221 644 178 603 c 128,-1,16
 135 562 135 562 135 499 c 0,17,18
 135 487 135 487 122 487 c 2,19,-1
 57 487 l 2,20,21
 45 487 45 487 45 499 c 0,22,23
 45 592 45 592 110.5 658 c 128,-1,24
 176 724 176 724 297.5 724 c 128,-1,25
 419 724 419 724 485.5 661.5 c 128,-1,26
 552 599 552 599 552 511 c 0,27,28
 552 451 552 451 522 403 c 128,-1,29
 492 355 492 355 447 326.5 c 128,-1,30
 402 298 402 298 349 269.5 c 128,-1,31
 296 241 296 241 250 217.5 c 128,-1,32
 204 194 204 194 171.5 157 c 128,-1,33
 139 120 139 120 136 75 c 1,34,-1
 476 75 l 1,35,-1
 476 147 l 2,36,37
 476 159 476 159 488 159 c 2,38,-1
 551 159 l 2,39,40
 564 159 564 159 564 147 c 2,41,-1
 564 12 l 2,42,43
 564 0 564 0 551 0 c 2,0,-1
EndSplineSet
EndChar

StartChar: three
Encoding: 51 51 22
Width: 590
GlyphClass: 2
Flags: W
LayerCount: 2
Fore
SplineSet
407 378 m 1,0,-1
 407 377 l 1,1,2
 442 377 442 377 490 342 c 0,3,4
 516 323 516 323 533.5 285.5 c 128,-1,5
 551 248 551 248 551 199 c 0,6,7
 551 106 551 106 478 49.5 c 128,-1,8
 405 -7 405 -7 286 -7 c 0,9,10
 227 -7 227 -7 193.5 4.5 c 128,-1,11
 160 16 160 16 140 26.5 c 128,-1,12
 120 37 120 37 107.5 46 c 128,-1,13
 95 55 95 55 82 66 c 0,14,15
 65 81 65 81 50 101 c 2,16,-1
 43 110 l 1,17,18
 38 114 38 114 38 118 c 128,-1,19
 38 122 38 122 43 127 c 2,20,-1
 86 167 l 2,21,22
 94 175 94 175 104 167 c 1,23,-1
 120 150 l 2,24,25
 164 103 164 103 198 90 c 0,26,27
 241 74 241 74 286 74 c 0,28,29
 366 74 366 74 413.5 111 c 128,-1,30
 461 148 461 148 461 210 c 0,31,32
 461 337 461 337 289 337 c 2,33,-1
 249 337 l 2,34,35
 237 337 237 337 237 350 c 2,36,-1
 237 395 l 2,37,38
 237 408 237 408 249 408 c 2,39,-1
 281 408 l 2,40,41
 334 408 334 408 370 424 c 0,42,43
 438 456 438 456 438 525 c 0,44,45
 438 576 438 576 401 610 c 128,-1,46
 364 644 364 644 294.5 644 c 128,-1,47
 225 644 225 644 190.5 608.5 c 128,-1,48
 156 573 156 573 156 528 c 0,49,50
 156 516 156 516 144 516 c 2,51,-1
 83 516 l 2,52,53
 71 516 71 516 71 528 c 0,54,55
 71 617 71 617 131 670.5 c 128,-1,56
 191 724 191 724 300 724 c 128,-1,57
 409 724 409 724 469 665.5 c 128,-1,58
 529 607 529 607 529 535 c 128,-1,59
 529 463 529 463 483 420.5 c 128,-1,60
 437 378 437 378 407 378 c 1,0,-1
EndSplineSet
EndChar

StartChar: four
Encoding: 52 52 23
Width: 608
GlyphClass: 2
Flags: W
LayerCount: 2
Fore
SplineSet
557 0 m 2,0,-1
 269 0 l 2,1,2
 257 0 257 0 257 12 c 2,3,-1
 257 63 l 2,4,5
 257 75 257 75 269 75 c 2,6,-1
 384 75 l 1,7,-1
 384 225 l 1,8,-1
 51 225 l 2,9,10
 39 225 39 225 39 238 c 2,11,-1
 39 278 l 2,12,13
 39 292 39 292 52 310 c 1,14,-1
 364 695 l 2,15,16
 382 718 382 718 401 718 c 2,17,-1
 458 718 l 2,18,19
 471 718 471 718 471 706 c 2,20,-1
 471 295 l 1,21,-1
 550 295 l 2,22,23
 563 295 563 295 563 282 c 2,24,-1
 563 238 l 2,25,26
 563 225 563 225 550 225 c 2,27,-1
 471 225 l 1,28,-1
 471 75 l 1,29,-1
 557 75 l 2,30,31
 570 75 570 75 570 63 c 2,32,-1
 570 12 l 2,33,34
 570 0 570 0 557 0 c 2,0,-1
384 295 m 1,35,-1
 384 610 l 1,36,-1
 129 295 l 1,37,-1
 384 295 l 1,35,-1
EndSplineSet
EndChar

StartChar: five
Encoding: 53 53 24
Width: 590
GlyphClass: 2
Flags: W
LayerCount: 2
Fore
SplineSet
286 -7 m 0,0,1
 233 -7 233 -7 202 3 c 128,-1,2
 171 13 171 13 153.5 20 c 128,-1,3
 136 27 136 27 121.5 37 c 128,-1,4
 107 47 107 47 96 55 c 128,-1,5
 85 63 85 63 75.5 73 c 128,-1,6
 66 83 66 83 60.5 89 c 128,-1,7
 55 95 55 95 49.5 102 c 128,-1,8
 44 109 44 109 41 111.5 c 128,-1,9
 38 114 38 114 38 118 c 128,-1,10
 38 122 38 122 43 127 c 2,11,-1
 86 167 l 2,12,13
 94 175 94 175 100 170 c 128,-1,14
 106 165 106 165 119.5 150 c 128,-1,15
 133 135 133 135 139.5 129 c 128,-1,16
 146 123 146 123 163.5 110 c 128,-1,17
 181 97 181 97 196 91 c 0,18,19
 240 74 240 74 286 74 c 0,20,21
 369 74 369 74 415.5 116 c 128,-1,22
 462 158 462 158 462 232.5 c 128,-1,23
 462 307 462 307 414.5 350.5 c 128,-1,24
 367 394 367 394 286 394 c 0,25,26
 227 394 227 394 171 378 c 1,27,28
 109 359 109 359 104 359 c 0,29,30
 84 359 84 359 84 384 c 2,31,-1
 84 708 l 2,32,33
 84 720 84 720 96 720 c 2,34,-1
 497 720 l 2,35,36
 509 720 509 720 509 708 c 2,37,-1
 509 578 l 2,38,39
 509 566 509 566 497 566 c 2,40,-1
 433 566 l 2,41,42
 421 566 421 566 421 578 c 2,43,-1
 421 645 l 1,44,-1
 172 645 l 1,45,-1
 172 442 l 1,46,47
 173 442 173 442 186.5 446 c 128,-1,48
 200 450 200 450 214 453 c 0,49,50
 258 462 258 462 304 462 c 0,51,52
 423 462 423 462 487.5 399 c 128,-1,53
 552 336 552 336 552 229 c 128,-1,54
 552 122 552 122 479.5 57.5 c 128,-1,55
 407 -7 407 -7 286 -7 c 0,0,1
EndSplineSet
EndChar

StartChar: six
Encoding: 54 54 25
Width: 613
GlyphClass: 2
Flags: W
LayerCount: 2
Fore
SplineSet
535 523 m 2,0,-1
 475 523 l 2,1,2
 462 523 462 523 462 535 c 0,3,4
 462 575 462 575 427.5 610 c 128,-1,5
 393 645 393 645 327 645 c 0,6,7
 241 645 241 645 192 584 c 128,-1,8
 143 523 143 523 134 411 c 1,9,10
 215 462 215 462 331 462 c 128,-1,11
 447 462 447 462 511 399 c 128,-1,12
 575 336 575 336 575 231.5 c 128,-1,13
 575 127 575 127 504 60 c 128,-1,14
 433 -7 433 -7 308 -7 c 128,-1,15
 183 -7 183 -7 110.5 91 c 128,-1,16
 38 189 38 189 38 357 c 128,-1,17
 38 525 38 525 112 624.5 c 128,-1,18
 186 724 186 724 327 724 c 0,19,20
 427 724 427 724 487.5 671.5 c 128,-1,21
 548 619 548 619 548 535 c 0,22,23
 548 523 548 523 535 523 c 2,0,-1
180.5 143 m 128,-1,25
 228 74 228 74 310.5 74 c 128,-1,26
 393 74 393 74 439 118.5 c 128,-1,27
 485 163 485 163 485 235 c 128,-1,28
 485 307 485 307 438 350.5 c 128,-1,29
 391 394 391 394 302 394 c 128,-1,30
 213 394 213 394 131 339 c 1,31,24
 133 212 133 212 180.5 143 c 128,-1,25
EndSplineSet
EndChar

StartChar: seven
Encoding: 55 55 26
Width: 598
GlyphClass: 2
Flags: W
LayerCount: 2
Fore
SplineSet
301 0 m 2,0,-1
 238 0 l 2,1,2
 226 0 226 0 226 12 c 0,3,4
 226 134 226 134 250 224 c 128,-1,5
 274 314 274 314 308 365 c 128,-1,6
 342 416 342 416 376 456 c 0,7,8
 460 552 460 552 463 649 c 1,9,-1
 126 649 l 1,10,-1
 126 577 l 2,11,12
 126 565 126 565 114 565 c 2,13,-1
 51 565 l 2,14,15
 38 565 38 565 38 577 c 2,16,-1
 38 712 l 2,17,18
 38 724 38 724 51 724 c 2,19,-1
 547 724 l 2,20,21
 559 724 559 724 559 712 c 2,22,-1
 559 679 l 2,23,24
 559 576 559 576 510 502 c 0,25,26
 488 468 488 468 462 435 c 128,-1,27
 436 402 436 402 410 363 c 128,-1,28
 384 324 384 324 362 278 c 0,29,30
 314 176 314 176 314 13 c 0,31,32
 314 0 314 0 301 0 c 2,0,-1
EndSplineSet
PairPos2: "'kern' Horizontal Kerning lookup 0 per glyph data 1" minus dx=0 dy=0 dh=-6 dv=0 dx=0 dy=0 dh=0 dv=0
PairPos2: "'kern' Horizontal Kerning lookup 0 per glyph data 1" emdash dx=0 dy=0 dh=-6 dv=0 dx=0 dy=0 dh=0 dv=0
PairPos2: "'kern' Horizontal Kerning lookup 0 per glyph data 1" endash dx=0 dy=0 dh=-6 dv=0 dx=0 dy=0 dh=0 dv=0
PairPos2: "'kern' Horizontal Kerning lookup 0 per glyph data 1" period dx=0 dy=0 dh=-19 dv=0 dx=0 dy=0 dh=0 dv=0
PairPos2: "'kern' Horizontal Kerning lookup 0 per glyph data 1" hyphen dx=0 dy=0 dh=-6 dv=0 dx=0 dy=0 dh=0 dv=0
PairPos2: "'kern' Horizontal Kerning lookup 0 per glyph data 1" comma dx=0 dy=0 dh=-24 dv=0 dx=0 dy=0 dh=0 dv=0
EndChar

StartChar: eight
Encoding: 56 56 27
Width: 608
GlyphClass: 2
Flags: W
LayerCount: 2
Fore
SplineSet
430 387 m 1,0,-1
 430 386 l 1,1,2
 462 386 462 386 511 349 c 0,3,4
 536 330 536 330 553 292 c 128,-1,5
 570 254 570 254 570 205 c 0,6,7
 570 112 570 112 496.5 52.5 c 128,-1,8
 423 -7 423 -7 304.5 -7 c 128,-1,9
 186 -7 186 -7 112 52 c 128,-1,10
 38 111 38 111 38 205 c 0,11,12
 38 254 38 254 55 292 c 128,-1,13
 72 330 72 330 96 349 c 0,14,15
 144 386 144 386 178 386 c 1,16,-1
 178 387 l 1,17,18
 148 387 148 387 105 426.5 c 128,-1,19
 62 466 62 466 62 538 c 128,-1,20
 62 610 62 610 122 666.5 c 128,-1,21
 182 723 182 723 304 723.5 c 128,-1,22
 426 724 426 724 486 667 c 128,-1,23
 546 610 546 610 546 536 c 0,24,25
 546 499 546 499 531.5 468 c 128,-1,26
 517 437 517 437 496 420 c 0,27,28
 455 387 455 387 430 387 c 1,0,-1
317 345 m 2,29,-1
 291 345 l 2,30,31
 213 345 213 345 170.5 309.5 c 128,-1,32
 128 274 128 274 128 211 c 128,-1,33
 128 148 128 148 176 111 c 128,-1,34
 224 74 224 74 304 74 c 128,-1,35
 384 74 384 74 431.5 111.5 c 128,-1,36
 479 149 479 149 479 211 c 128,-1,37
 479 273 479 273 436.5 309 c 128,-1,38
 394 345 394 345 317 345 c 2,29,-1
456 527 m 0,39,40
 456 577 456 577 416.5 610.5 c 128,-1,41
 377 644 377 644 304 644 c 128,-1,42
 231 644 231 644 191.5 610.5 c 128,-1,43
 152 577 152 577 152 527 c 0,44,45
 152 492 152 492 167 467 c 128,-1,46
 182 442 182 442 206 430 c 0,47,48
 252 409 252 409 290 409 c 128,-1,49
 328 409 328 409 352 414 c 128,-1,50
 376 419 376 419 401 430.5 c 128,-1,51
 426 442 426 442 441 467 c 128,-1,52
 456 492 456 492 456 527 c 0,39,40
EndSplineSet
EndChar

StartChar: nine
Encoding: 57 57 28
Width: 612
GlyphClass: 2
Flags: W
LayerCount: 2
Fore
SplineSet
77 194 m 2,0,-1
 138 194 l 2,1,2
 150 194 150 194 150 182 c 0,3,4
 150 142 150 142 184.5 107 c 128,-1,5
 219 72 219 72 286 72 c 0,6,7
 372 72 372 72 420.5 133 c 128,-1,8
 469 194 469 194 478 306 c 1,9,10
 397 255 397 255 281 255 c 128,-1,11
 165 255 165 255 101.5 317.5 c 128,-1,12
 38 380 38 380 38 485 c 128,-1,13
 38 590 38 590 109 657 c 128,-1,14
 180 724 180 724 305 724 c 128,-1,15
 430 724 430 724 501.5 626 c 128,-1,16
 573 528 573 528 573 361 c 128,-1,17
 573 194 573 194 498 93.5 c 128,-1,18
 423 -7 423 -7 286 -7 c 0,19,20
 186 -7 186 -7 125.5 45.5 c 128,-1,21
 65 98 65 98 65 182 c 0,22,23
 65 194 65 194 77 194 c 2,0,-1
432.5 574 m 128,-1,25
 385 643 385 643 302.5 643 c 128,-1,26
 220 643 220 643 174 598.5 c 128,-1,27
 128 554 128 554 128 482 c 128,-1,28
 128 410 128 410 175 366.5 c 128,-1,29
 222 323 222 323 311 323 c 128,-1,30
 400 323 400 323 482 378 c 1,31,24
 480 505 480 505 432.5 574 c 128,-1,25
EndSplineSet
EndChar

StartChar: colon
Encoding: 58 58 29
Width: 171
GlyphClass: 2
Flags: W
LayerCount: 2
Fore
SplineSet
133 40 m 128,-1,1
 133 20 133 20 119 6.5 c 128,-1,2
 105 -7 105 -7 85 -7 c 128,-1,3
 65 -7 65 -7 51.5 6.5 c 128,-1,4
 38 20 38 20 38 40 c 128,-1,5
 38 60 38 60 52 73.5 c 128,-1,6
 66 87 66 87 85.5 87 c 128,-1,7
 105 87 105 87 119 73.5 c 128,-1,0
 133 60 133 60 133 40 c 128,-1,1
133 440 m 128,-1,9
 133 420 133 420 119 406.5 c 128,-1,10
 105 393 105 393 85.5 393 c 128,-1,11
 66 393 66 393 52 406.5 c 128,-1,12
 38 420 38 420 38 440 c 128,-1,13
 38 460 38 460 51.5 474 c 128,-1,14
 65 488 65 488 85 488 c 128,-1,15
 105 488 105 488 119 474 c 128,-1,8
 133 460 133 460 133 440 c 128,-1,9
EndSplineSet
EndChar

StartChar: semicolon
Encoding: 59 59 30
Width: 179
GlyphClass: 2
Flags: W
LayerCount: 2
Fore
SplineSet
134 440 m 128,-1,1
 134 420 134 420 120 406.5 c 128,-1,2
 106 393 106 393 86 393 c 128,-1,3
 66 393 66 393 52.5 406.5 c 128,-1,4
 39 420 39 420 39 440 c 128,-1,5
 39 460 39 460 52.5 474 c 128,-1,6
 66 488 66 488 86 488 c 128,-1,7
 106 488 106 488 120 474 c 128,-1,0
 134 460 134 460 134 440 c 128,-1,1
55 -90 m 2,8,-1
 55 -73 l 2,9,10
 55 -67 55 -67 66 -67 c 128,-1,11
 77 -67 77 -67 89.5 -53.5 c 128,-1,12
 102 -40 102 -40 102 -14 c 1,13,-1
 100 -2 l 1,14,15
 95 -7 95 -7 79 -7 c 128,-1,16
 63 -7 63 -7 50.5 6 c 128,-1,17
 38 19 38 19 38 39 c 128,-1,18
 38 59 38 59 51.5 72.5 c 128,-1,19
 65 86 65 86 88 86 c 128,-1,20
 111 86 111 86 126 67 c 128,-1,21
 141 48 141 48 141 2.5 c 128,-1,22
 141 -43 141 -43 118.5 -69 c 128,-1,23
 96 -95 96 -95 61 -95 c 0,24,25
 55 -95 55 -95 55 -90 c 2,8,-1
EndSplineSet
EndChar

StartChar: less
Encoding: 60 60 31
Width: 438
GlyphClass: 2
Flags: W
LayerCount: 2
Fore
SplineSet
38 245 m 2,0,-1
 38 263 l 2,1,2
 38 276 38 276 52 282 c 2,3,-1
 387 443 l 2,4,5
 391 444 391 444 393 444 c 0,6,7
 400 444 400 444 400 435 c 2,8,-1
 400 392 l 2,9,10
 400 378 400 378 387 372 c 2,11,-1
 140 254 l 1,12,-1
 387 136 l 1,13,14
 400 131 400 131 400 117 c 2,15,-1
 400 74 l 2,16,17
 400 65 400 65 393 65 c 0,18,19
 391 65 391 65 387 66 c 2,20,-1
 52 226 l 2,21,22
 38 232 38 232 38 245 c 2,0,-1
EndSplineSet
EndChar

StartChar: equal
Encoding: 61 61 32
Width: 423
GlyphClass: 2
Flags: W
LayerCount: 2
Fore
SplineSet
372 335 m 2,0,-1
 52 335 l 2,1,2
 38 335 38 335 38 349 c 2,3,-1
 38 399 l 2,4,5
 38 413 38 413 52 413 c 2,6,-1
 372 413 l 2,7,8
 385 413 385 413 385 399 c 2,9,-1
 385 349 l 2,10,11
 385 335 385 335 372 335 c 2,0,-1
372 100 m 2,12,-1
 52 100 l 2,13,14
 38 100 38 100 38 113 c 2,15,-1
 38 164 l 2,16,17
 38 177 38 177 52 177 c 2,18,-1
 372 177 l 2,19,20
 385 177 385 177 385 164 c 2,21,-1
 385 113 l 2,22,23
 385 100 385 100 372 100 c 2,12,-1
EndSplineSet
EndChar

StartChar: greater
Encoding: 62 62 33
Width: 438
GlyphClass: 2
Flags: W
LayerCount: 2
Fore
SplineSet
400 263 m 2,0,-1
 400 245 l 2,1,2
 400 232 400 232 387 226 c 2,3,-1
 52 66 l 2,4,5
 48 65 48 65 45 65 c 0,6,7
 38 65 38 65 38 74 c 2,8,-1
 38 117 l 2,9,10
 38 131 38 131 52 136 c 1,11,-1
 298 254 l 1,12,-1
 52 372 l 2,13,14
 38 379 38 379 38 392 c 2,15,-1
 38 435 l 2,16,17
 38 444 38 444 45 444 c 0,18,19
 48 444 48 444 52 443 c 2,20,-1
 387 282 l 2,21,22
 400 276 400 276 400 263 c 2,0,-1
EndSplineSet
EndChar

StartChar: question
Encoding: 63 63 34
Width: 582
GlyphClass: 2
Flags: W
LayerCount: 2
Fore
SplineSet
303 127 m 2,0,-1
 234 127 l 2,1,2
 221 127 221 127 221 139 c 0,3,4
 221 202 221 202 245 251 c 128,-1,5
 269 300 269 300 303 330 c 128,-1,6
 337 360 337 360 371 386 c 0,7,8
 453 447 453 447 453 509.5 c 128,-1,9
 453 572 453 572 409 608 c 128,-1,10
 365 644 365 644 286.5 644 c 128,-1,11
 208 644 208 644 167.5 604 c 128,-1,12
 127 564 127 564 126 499 c 0,13,14
 126 487 126 487 114 487 c 2,15,-1
 51 487 l 2,16,17
 38 487 38 487 38 499 c 0,18,19
 38 593 38 593 99.5 658.5 c 128,-1,20
 161 724 161 724 285 724 c 128,-1,21
 409 724 409 724 476.5 666 c 128,-1,22
 544 608 544 608 544 520 c 0,23,24
 544 472 544 472 527 433.5 c 128,-1,25
 510 395 510 395 485 372 c 128,-1,26
 460 349 460 349 430 323.5 c 128,-1,27
 400 298 400 298 375 276 c 128,-1,28
 350 254 350 254 333 218.5 c 128,-1,29
 316 183 316 183 316 139 c 0,30,31
 316 127 316 127 303 127 c 2,0,-1
322 4 m 128,-1,33
 322 -18 322 -18 307 -33.5 c 128,-1,34
 292 -49 292 -49 269.5 -49 c 128,-1,35
 247 -49 247 -49 231.5 -33.5 c 128,-1,36
 216 -18 216 -18 216 4 c 128,-1,37
 216 26 216 26 231.5 41.5 c 128,-1,38
 247 57 247 57 269.5 57 c 128,-1,39
 292 57 292 57 307 41.5 c 128,-1,32
 322 26 322 26 322 4 c 128,-1,33
EndSplineSet
EndChar

StartChar: at
Encoding: 64 64 35
Width: 783
GlyphClass: 2
Flags: W
LayerCount: 2
Fore
SplineSet
392 -126 m 0,0,1
 241 -126 241 -126 139.5 -24.5 c 128,-1,2
 38 77 38 77 38 234.5 c 128,-1,3
 38 392 38 392 153 508.5 c 128,-1,4
 268 625 268 625 420.5 625 c 128,-1,5
 573 625 573 625 659 546.5 c 128,-1,6
 745 468 745 468 745 345 c 128,-1,7
 745 222 745 222 677 150 c 128,-1,8
 609 78 609 78 524 78 c 2,9,-1
 504 78 l 2,10,11
 464 78 464 78 464 107 c 0,12,13
 464 111 464 111 465 116 c 2,14,-1
 468 141 l 2,15,16
 468 138 468 138 457 123.5 c 128,-1,17
 446 109 446 109 420 92 c 128,-1,18
 394 75 394 75 364 75 c 0,19,20
 304 75 304 75 262 116.5 c 128,-1,21
 220 158 220 158 220 248 c 128,-1,22
 220 338 220 338 277.5 396 c 128,-1,23
 335 454 335 454 408.5 454 c 128,-1,24
 482 454 482 454 505 408 c 1,25,-1
 509 433 l 2,26,27
 511 444 511 444 522 444 c 2,28,-1
 552 444 l 2,29,30
 564 444 564 444 562 432 c 2,31,-1
 524 137 l 1,32,-1
 546 137 l 2,33,34
 599 137 599 137 640 193.5 c 128,-1,35
 681 250 681 250 681 346.5 c 128,-1,36
 681 443 681 443 611.5 500.5 c 128,-1,37
 542 558 542 558 426 558 c 0,38,39
 291 558 291 558 199.5 459.5 c 128,-1,40
 108 361 108 361 108 232.5 c 128,-1,41
 108 104 108 104 190 23 c 128,-1,42
 272 -58 272 -58 392 -58 c 0,43,44
 452 -58 452 -58 502 -49 c 128,-1,45
 552 -40 552 -40 572 -30 c 2,46,-1
 592 -21 l 1,47,48
 604 -14 604 -14 609 -27 c 2,49,-1
 625 -62 l 2,50,51
 630 -73 630 -73 619.5 -78 c 128,-1,52
 609 -83 609 -83 591 -91 c 128,-1,53
 573 -99 573 -99 514 -112.5 c 128,-1,54
 455 -126 455 -126 392 -126 c 0,0,1
416 401 m 0,55,56
 363 401 363 401 321.5 358.5 c 128,-1,57
 280 316 280 316 280 253 c 128,-1,58
 280 190 280 190 308.5 162 c 128,-1,59
 337 134 337 134 375.5 134 c 128,-1,60
 414 134 414 134 446 167 c 128,-1,61
 478 200 478 200 481 231 c 2,62,-1
 494 334 l 1,63,64
 492 364 492 364 467.5 382.5 c 128,-1,65
 443 401 443 401 416 401 c 0,55,56
EndSplineSet
EndChar

StartChar: A
Encoding: 65 65 36
Width: 841
GlyphClass: 2
Flags: W
LayerCount: 2
Fore
SplineSet
768 0 m 2,0,-1
 542 0 l 2,1,2
 530 0 530 0 530 12 c 2,3,-1
 530 63 l 2,4,5
 530 75 530 75 542 75 c 2,6,-1
 612 75 l 1,7,-1
 547 248 l 1,8,-1
 268 248 l 1,9,-1
 203 75 l 1,10,-1
 273 75 l 2,11,12
 285 75 285 75 285 63 c 2,13,-1
 285 12 l 2,14,15
 285 0 285 0 273 0 c 2,16,-1
 48 0 l 2,17,18
 36 0 36 0 36 12 c 2,19,-1
 36 63 l 2,20,21
 36 75 36 75 48 75 c 2,22,-1
 115 75 l 1,23,-1
 330 643 l 1,24,-1
 276 643 l 2,25,26
 263 643 263 643 263 655 c 2,27,-1
 263 706 l 2,28,29
 263 718 263 718 276 718 c 2,30,-1
 412 718 l 2,31,32
 436 718 436 718 448.5 708 c 128,-1,33
 461 698 461 698 470 675 c 2,34,-1
 700 75 l 1,35,-1
 768 75 l 2,36,37
 780 75 780 75 780 63 c 2,38,-1
 780 12 l 2,39,40
 780 0 780 0 768 0 c 2,0,-1
520 317 m 1,41,-1
 409 614 l 1,42,-1
 406 614 l 1,43,-1
 294 317 l 1,44,-1
 520 317 l 1,41,-1
EndSplineSet
EndChar

StartChar: B
Encoding: 66 66 37
Width: 681
GlyphClass: 2
Flags: W
LayerCount: 2
Fore
SplineSet
384 0 m 2,0,-1
 61 0 l 2,1,2
 48 0 48 0 48 12 c 2,3,-1
 48 63 l 2,4,5
 48 75 48 75 61 75 c 2,6,-1
 137 75 l 1,7,-1
 137 643 l 1,8,-1
 61 643 l 2,9,10
 48 643 48 643 48 655 c 2,11,-1
 48 706 l 2,12,13
 48 718 48 718 61 718 c 2,14,-1
 383 718 l 2,15,16
 483 718 483 718 538.5 665 c 128,-1,17
 594 612 594 612 594 526 c 0,18,19
 594 425 594 425 505 375 c 1,20,21
 633 338 633 338 633 205 c 0,22,23
 633 111 633 111 570.5 55.5 c 128,-1,24
 508 0 508 0 384 0 c 2,0,-1
224 75 m 1,25,-1
 377 75 l 2,26,27
 456 75 456 75 500.5 108.5 c 128,-1,28
 545 142 545 142 545 212 c 0,29,30
 545 337 545 337 383 337 c 2,31,-1
 224 337 l 1,32,-1
 224 75 l 1,25,-1
224 403 m 1,33,-1
 377 403 l 1,34,35
 429 404 429 404 467.5 433 c 128,-1,36
 506 462 506 462 506 524 c 128,-1,37
 506 586 506 586 465.5 614.5 c 128,-1,38
 425 643 425 643 366 643 c 2,39,-1
 224 643 l 1,40,-1
 224 403 l 1,33,-1
EndSplineSet
PairPos2: "'kern' Horizontal Kerning lookup 0 per glyph data 1" ygrave.alt dx=0 dy=0 dh=-13 dv=0 dx=0 dy=0 dh=0 dv=0
PairPos2: "'kern' Horizontal Kerning lookup 0 per glyph data 1" ydieresis.alt dx=0 dy=0 dh=-13 dv=0 dx=0 dy=0 dh=0 dv=0
PairPos2: "'kern' Horizontal Kerning lookup 0 per glyph data 1" ycircumflex.alt dx=0 dy=0 dh=-13 dv=0 dx=0 dy=0 dh=0 dv=0
PairPos2: "'kern' Horizontal Kerning lookup 0 per glyph data 1" yacute.alt dx=0 dy=0 dh=-13 dv=0 dx=0 dy=0 dh=0 dv=0
PairPos2: "'kern' Horizontal Kerning lookup 0 per glyph data 1" y.alt dx=0 dy=0 dh=-13 dv=0 dx=0 dy=0 dh=0 dv=0
PairPos2: "'kern' Horizontal Kerning lookup 0 per glyph data 1" ellipsis dx=0 dy=0 dh=-3 dv=0 dx=0 dy=0 dh=0 dv=0
PairPos2: "'kern' Horizontal Kerning lookup 0 per glyph data 1" ygrave dx=0 dy=0 dh=-11 dv=0 dx=0 dy=0 dh=0 dv=0
PairPos2: "'kern' Horizontal Kerning lookup 0 per glyph data 1" Ygrave dx=0 dy=0 dh=-74 dv=0 dx=0 dy=0 dh=0 dv=0
PairPos2: "'kern' Horizontal Kerning lookup 0 per glyph data 1" Wdieresis dx=0 dy=0 dh=-65 dv=0 dx=0 dy=0 dh=0 dv=0
PairPos2: "'kern' Horizontal Kerning lookup 0 per glyph data 1" Wacute dx=0 dy=0 dh=-65 dv=0 dx=0 dy=0 dh=0 dv=0
PairPos2: "'kern' Horizontal Kerning lookup 0 per glyph data 1" Wgrave dx=0 dy=0 dh=-65 dv=0 dx=0 dy=0 dh=0 dv=0
PairPos2: "'kern' Horizontal Kerning lookup 0 per glyph data 1" Oslashacute dx=0 dy=0 dh=-17 dv=0 dx=0 dy=0 dh=0 dv=0
PairPos2: "'kern' Horizontal Kerning lookup 0 per glyph data 1" aeacute dx=0 dy=0 dh=-3 dv=0 dx=0 dy=0 dh=0 dv=0
PairPos2: "'kern' Horizontal Kerning lookup 0 per glyph data 1" AEacute dx=0 dy=0 dh=-56 dv=0 dx=0 dy=0 dh=0 dv=0
PairPos2: "'kern' Horizontal Kerning lookup 0 per glyph data 1" florin dx=0 dy=0 dh=-47 dv=0 dx=0 dy=0 dh=0 dv=0
PairPos2: "'kern' Horizontal Kerning lookup 0 per glyph data 1" Zcaron dx=0 dy=0 dh=-10 dv=0 dx=0 dy=0 dh=0 dv=0
PairPos2: "'kern' Horizontal Kerning lookup 0 per glyph data 1" Zdotaccent dx=0 dy=0 dh=-10 dv=0 dx=0 dy=0 dh=0 dv=0
PairPos2: "'kern' Horizontal Kerning lookup 0 per glyph data 1" Zacute dx=0 dy=0 dh=-10 dv=0 dx=0 dy=0 dh=0 dv=0
PairPos2: "'kern' Horizontal Kerning lookup 0 per glyph data 1" Ydieresis dx=0 dy=0 dh=-74 dv=0 dx=0 dy=0 dh=0 dv=0
PairPos2: "'kern' Horizontal Kerning lookup 0 per glyph data 1" ycircumflex dx=0 dy=0 dh=-11 dv=0 dx=0 dy=0 dh=0 dv=0
PairPos2: "'kern' Horizontal Kerning lookup 0 per glyph data 1" Ycircumflex dx=0 dy=0 dh=-74 dv=0 dx=0 dy=0 dh=0 dv=0
PairPos2: "'kern' Horizontal Kerning lookup 0 per glyph data 1" Wcircumflex dx=0 dy=0 dh=-65 dv=0 dx=0 dy=0 dh=0 dv=0
PairPos2: "'kern' Horizontal Kerning lookup 0 per glyph data 1" uogonek dx=0 dy=0 dh=-13 dv=0 dx=0 dy=0 dh=0 dv=0
PairPos2: "'kern' Horizontal Kerning lookup 0 per glyph data 1" Uogonek dx=0 dy=0 dh=-28 dv=0 dx=0 dy=0 dh=0 dv=0
PairPos2: "'kern' Horizontal Kerning lookup 0 per glyph data 1" uhungarumlaut dx=0 dy=0 dh=-13 dv=0 dx=0 dy=0 dh=0 dv=0
PairPos2: "'kern' Horizontal Kerning lookup 0 per glyph data 1" Uhungarumlaut dx=0 dy=0 dh=-28 dv=0 dx=0 dy=0 dh=0 dv=0
PairPos2: "'kern' Horizontal Kerning lookup 0 per glyph data 1" uring dx=0 dy=0 dh=-13 dv=0 dx=0 dy=0 dh=0 dv=0
PairPos2: "'kern' Horizontal Kerning lookup 0 per glyph data 1" Uring dx=0 dy=0 dh=-28 dv=0 dx=0 dy=0 dh=0 dv=0
PairPos2: "'kern' Horizontal Kerning lookup 0 per glyph data 1" ubreve dx=0 dy=0 dh=-13 dv=0 dx=0 dy=0 dh=0 dv=0
PairPos2: "'kern' Horizontal Kerning lookup 0 per glyph data 1" Ubreve dx=0 dy=0 dh=-28 dv=0 dx=0 dy=0 dh=0 dv=0
PairPos2: "'kern' Horizontal Kerning lookup 0 per glyph data 1" umacron dx=0 dy=0 dh=-13 dv=0 dx=0 dy=0 dh=0 dv=0
PairPos2: "'kern' Horizontal Kerning lookup 0 per glyph data 1" Umacron dx=0 dy=0 dh=-28 dv=0 dx=0 dy=0 dh=0 dv=0
PairPos2: "'kern' Horizontal Kerning lookup 0 per glyph data 1" utilde dx=0 dy=0 dh=-13 dv=0 dx=0 dy=0 dh=0 dv=0
PairPos2: "'kern' Horizontal Kerning lookup 0 per glyph data 1" Utilde dx=0 dy=0 dh=-28 dv=0 dx=0 dy=0 dh=0 dv=0
PairPos2: "'kern' Horizontal Kerning lookup 0 per glyph data 1" Tbar dx=0 dy=0 dh=-30 dv=0 dx=0 dy=0 dh=0 dv=0
PairPos2: "'kern' Horizontal Kerning lookup 0 per glyph data 1" Tcaron dx=0 dy=0 dh=-30 dv=0 dx=0 dy=0 dh=0 dv=0
PairPos2: "'kern' Horizontal Kerning lookup 0 per glyph data 1" Tcommaaccent dx=0 dy=0 dh=-30 dv=0 dx=0 dy=0 dh=0 dv=0
PairPos2: "'kern' Horizontal Kerning lookup 0 per glyph data 1" Rcaron dx=0 dy=0 dh=-40 dv=0 dx=0 dy=0 dh=0 dv=0
PairPos2: "'kern' Horizontal Kerning lookup 0 per glyph data 1" Rcommaaccent dx=0 dy=0 dh=-40 dv=0 dx=0 dy=0 dh=0 dv=0
PairPos2: "'kern' Horizontal Kerning lookup 0 per glyph data 1" Racute dx=0 dy=0 dh=-40 dv=0 dx=0 dy=0 dh=0 dv=0
PairPos2: "'kern' Horizontal Kerning lookup 0 per glyph data 1" OE dx=0 dy=0 dh=-17 dv=0 dx=0 dy=0 dh=0 dv=0
PairPos2: "'kern' Horizontal Kerning lookup 0 per glyph data 1" Ohungarumlaut dx=0 dy=0 dh=-17 dv=0 dx=0 dy=0 dh=0 dv=0
PairPos2: "'kern' Horizontal Kerning lookup 0 per glyph data 1" Obreve dx=0 dy=0 dh=-17 dv=0 dx=0 dy=0 dh=0 dv=0
PairPos2: "'kern' Horizontal Kerning lookup 0 per glyph data 1" Omacron dx=0 dy=0 dh=-17 dv=0 dx=0 dy=0 dh=0 dv=0
PairPos2: "'kern' Horizontal Kerning lookup 0 per glyph data 1" Eng dx=0 dy=0 dh=-40 dv=0 dx=0 dy=0 dh=0 dv=0
PairPos2: "'kern' Horizontal Kerning lookup 0 per glyph data 1" Ncaron dx=0 dy=0 dh=-40 dv=0 dx=0 dy=0 dh=0 dv=0
PairPos2: "'kern' Horizontal Kerning lookup 0 per glyph data 1" Ncommaaccent dx=0 dy=0 dh=-40 dv=0 dx=0 dy=0 dh=0 dv=0
PairPos2: "'kern' Horizontal Kerning lookup 0 per glyph data 1" Nacute dx=0 dy=0 dh=-40 dv=0 dx=0 dy=0 dh=0 dv=0
PairPos2: "'kern' Horizontal Kerning lookup 0 per glyph data 1" Lslash dx=0 dy=0 dh=-40 dv=0 dx=0 dy=0 dh=0 dv=0
PairPos2: "'kern' Horizontal Kerning lookup 0 per glyph data 1" Ldot dx=0 dy=0 dh=-40 dv=0 dx=0 dy=0 dh=0 dv=0
PairPos2: "'kern' Horizontal Kerning lookup 0 per glyph data 1" Lcaron dx=0 dy=0 dh=-40 dv=0 dx=0 dy=0 dh=0 dv=0
PairPos2: "'kern' Horizontal Kerning lookup 0 per glyph data 1" Lcommaaccent dx=0 dy=0 dh=-40 dv=0 dx=0 dy=0 dh=0 dv=0
PairPos2: "'kern' Horizontal Kerning lookup 0 per glyph data 1" Lacute dx=0 dy=0 dh=-40 dv=0 dx=0 dy=0 dh=0 dv=0
PairPos2: "'kern' Horizontal Kerning lookup 0 per glyph data 1" Kcommaaccent dx=0 dy=0 dh=-40 dv=0 dx=0 dy=0 dh=0 dv=0
PairPos2: "'kern' Horizontal Kerning lookup 0 per glyph data 1" jcircumflex dx=0 dy=0 dh=-42 dv=0 dx=0 dy=0 dh=0 dv=0
PairPos2: "'kern' Horizontal Kerning lookup 0 per glyph data 1" Jcircumflex dx=0 dy=0 dh=-47 dv=0 dx=0 dy=0 dh=0 dv=0
PairPos2: "'kern' Horizontal Kerning lookup 0 per glyph data 1" Idotaccent dx=0 dy=0 dh=-40 dv=0 dx=0 dy=0 dh=0 dv=0
PairPos2: "'kern' Horizontal Kerning lookup 0 per glyph data 1" Iogonek dx=0 dy=0 dh=-40 dv=0 dx=0 dy=0 dh=0 dv=0
PairPos2: "'kern' Horizontal Kerning lookup 0 per glyph data 1" Ibreve dx=0 dy=0 dh=-40 dv=0 dx=0 dy=0 dh=0 dv=0
PairPos2: "'kern' Horizontal Kerning lookup 0 per glyph data 1" Itilde dx=0 dy=0 dh=-40 dv=0 dx=0 dy=0 dh=0 dv=0
PairPos2: "'kern' Horizontal Kerning lookup 0 per glyph data 1" Hbar dx=0 dy=0 dh=-40 dv=0 dx=0 dy=0 dh=0 dv=0
PairPos2: "'kern' Horizontal Kerning lookup 0 per glyph data 1" Hcircumflex dx=0 dy=0 dh=-40 dv=0 dx=0 dy=0 dh=0 dv=0
PairPos2: "'kern' Horizontal Kerning lookup 0 per glyph data 1" Gcommaaccent dx=0 dy=0 dh=-17 dv=0 dx=0 dy=0 dh=0 dv=0
PairPos2: "'kern' Horizontal Kerning lookup 0 per glyph data 1" Gdotaccent dx=0 dy=0 dh=-17 dv=0 dx=0 dy=0 dh=0 dv=0
PairPos2: "'kern' Horizontal Kerning lookup 0 per glyph data 1" Gbreve dx=0 dy=0 dh=-17 dv=0 dx=0 dy=0 dh=0 dv=0
PairPos2: "'kern' Horizontal Kerning lookup 0 per glyph data 1" Gcircumflex dx=0 dy=0 dh=-17 dv=0 dx=0 dy=0 dh=0 dv=0
PairPos2: "'kern' Horizontal Kerning lookup 0 per glyph data 1" Ecaron dx=0 dy=0 dh=-40 dv=0 dx=0 dy=0 dh=0 dv=0
PairPos2: "'kern' Horizontal Kerning lookup 0 per glyph data 1" Eogonek dx=0 dy=0 dh=-40 dv=0 dx=0 dy=0 dh=0 dv=0
PairPos2: "'kern' Horizontal Kerning lookup 0 per glyph data 1" Edotaccent dx=0 dy=0 dh=-40 dv=0 dx=0 dy=0 dh=0 dv=0
PairPos2: "'kern' Horizontal Kerning lookup 0 per glyph data 1" Ebreve dx=0 dy=0 dh=-40 dv=0 dx=0 dy=0 dh=0 dv=0
PairPos2: "'kern' Horizontal Kerning lookup 0 per glyph data 1" Emacron dx=0 dy=0 dh=-40 dv=0 dx=0 dy=0 dh=0 dv=0
PairPos2: "'kern' Horizontal Kerning lookup 0 per glyph data 1" Dcroat dx=0 dy=0 dh=-40 dv=0 dx=0 dy=0 dh=0 dv=0
PairPos2: "'kern' Horizontal Kerning lookup 0 per glyph data 1" Dcaron dx=0 dy=0 dh=-40 dv=0 dx=0 dy=0 dh=0 dv=0
PairPos2: "'kern' Horizontal Kerning lookup 0 per glyph data 1" Ccaron dx=0 dy=0 dh=-17 dv=0 dx=0 dy=0 dh=0 dv=0
PairPos2: "'kern' Horizontal Kerning lookup 0 per glyph data 1" Cdotaccent dx=0 dy=0 dh=-17 dv=0 dx=0 dy=0 dh=0 dv=0
PairPos2: "'kern' Horizontal Kerning lookup 0 per glyph data 1" Ccircumflex dx=0 dy=0 dh=-17 dv=0 dx=0 dy=0 dh=0 dv=0
PairPos2: "'kern' Horizontal Kerning lookup 0 per glyph data 1" Cacute dx=0 dy=0 dh=-17 dv=0 dx=0 dy=0 dh=0 dv=0
PairPos2: "'kern' Horizontal Kerning lookup 0 per glyph data 1" aogonek dx=0 dy=0 dh=-3 dv=0 dx=0 dy=0 dh=0 dv=0
PairPos2: "'kern' Horizontal Kerning lookup 0 per glyph data 1" Aogonek dx=0 dy=0 dh=-56 dv=0 dx=0 dy=0 dh=0 dv=0
PairPos2: "'kern' Horizontal Kerning lookup 0 per glyph data 1" abreve dx=0 dy=0 dh=-3 dv=0 dx=0 dy=0 dh=0 dv=0
PairPos2: "'kern' Horizontal Kerning lookup 0 per glyph data 1" Abreve dx=0 dy=0 dh=-56 dv=0 dx=0 dy=0 dh=0 dv=0
PairPos2: "'kern' Horizontal Kerning lookup 0 per glyph data 1" amacron dx=0 dy=0 dh=-3 dv=0 dx=0 dy=0 dh=0 dv=0
PairPos2: "'kern' Horizontal Kerning lookup 0 per glyph data 1" Amacron dx=0 dy=0 dh=-56 dv=0 dx=0 dy=0 dh=0 dv=0
PairPos2: "'kern' Horizontal Kerning lookup 0 per glyph data 1" ydieresis dx=0 dy=0 dh=-11 dv=0 dx=0 dy=0 dh=0 dv=0
PairPos2: "'kern' Horizontal Kerning lookup 0 per glyph data 1" yacute dx=0 dy=0 dh=-11 dv=0 dx=0 dy=0 dh=0 dv=0
PairPos2: "'kern' Horizontal Kerning lookup 0 per glyph data 1" udieresis dx=0 dy=0 dh=-13 dv=0 dx=0 dy=0 dh=0 dv=0
PairPos2: "'kern' Horizontal Kerning lookup 0 per glyph data 1" ucircumflex dx=0 dy=0 dh=-13 dv=0 dx=0 dy=0 dh=0 dv=0
PairPos2: "'kern' Horizontal Kerning lookup 0 per glyph data 1" uacute dx=0 dy=0 dh=-13 dv=0 dx=0 dy=0 dh=0 dv=0
PairPos2: "'kern' Horizontal Kerning lookup 0 per glyph data 1" ugrave dx=0 dy=0 dh=-13 dv=0 dx=0 dy=0 dh=0 dv=0
PairPos2: "'kern' Horizontal Kerning lookup 0 per glyph data 1" ae dx=0 dy=0 dh=-3 dv=0 dx=0 dy=0 dh=0 dv=0
PairPos2: "'kern' Horizontal Kerning lookup 0 per glyph data 1" aring dx=0 dy=0 dh=-3 dv=0 dx=0 dy=0 dh=0 dv=0
PairPos2: "'kern' Horizontal Kerning lookup 0 per glyph data 1" adieresis dx=0 dy=0 dh=-3 dv=0 dx=0 dy=0 dh=0 dv=0
PairPos2: "'kern' Horizontal Kerning lookup 0 per glyph data 1" atilde dx=0 dy=0 dh=-3 dv=0 dx=0 dy=0 dh=0 dv=0
PairPos2: "'kern' Horizontal Kerning lookup 0 per glyph data 1" acircumflex dx=0 dy=0 dh=-3 dv=0 dx=0 dy=0 dh=0 dv=0
PairPos2: "'kern' Horizontal Kerning lookup 0 per glyph data 1" aacute dx=0 dy=0 dh=-3 dv=0 dx=0 dy=0 dh=0 dv=0
PairPos2: "'kern' Horizontal Kerning lookup 0 per glyph data 1" agrave dx=0 dy=0 dh=-3 dv=0 dx=0 dy=0 dh=0 dv=0
PairPos2: "'kern' Horizontal Kerning lookup 0 per glyph data 1" Yacute dx=0 dy=0 dh=-74 dv=0 dx=0 dy=0 dh=0 dv=0
PairPos2: "'kern' Horizontal Kerning lookup 0 per glyph data 1" Udieresis dx=0 dy=0 dh=-28 dv=0 dx=0 dy=0 dh=0 dv=0
PairPos2: "'kern' Horizontal Kerning lookup 0 per glyph data 1" Ucircumflex dx=0 dy=0 dh=-28 dv=0 dx=0 dy=0 dh=0 dv=0
PairPos2: "'kern' Horizontal Kerning lookup 0 per glyph data 1" Uacute dx=0 dy=0 dh=-28 dv=0 dx=0 dy=0 dh=0 dv=0
PairPos2: "'kern' Horizontal Kerning lookup 0 per glyph data 1" Ugrave dx=0 dy=0 dh=-28 dv=0 dx=0 dy=0 dh=0 dv=0
PairPos2: "'kern' Horizontal Kerning lookup 0 per glyph data 1" Oslash dx=0 dy=0 dh=-17 dv=0 dx=0 dy=0 dh=0 dv=0
PairPos2: "'kern' Horizontal Kerning lookup 0 per glyph data 1" Odieresis dx=0 dy=0 dh=-17 dv=0 dx=0 dy=0 dh=0 dv=0
PairPos2: "'kern' Horizontal Kerning lookup 0 per glyph data 1" Otilde dx=0 dy=0 dh=-17 dv=0 dx=0 dy=0 dh=0 dv=0
PairPos2: "'kern' Horizontal Kerning lookup 0 per glyph data 1" Ocircumflex dx=0 dy=0 dh=-17 dv=0 dx=0 dy=0 dh=0 dv=0
PairPos2: "'kern' Horizontal Kerning lookup 0 per glyph data 1" Oacute dx=0 dy=0 dh=-17 dv=0 dx=0 dy=0 dh=0 dv=0
PairPos2: "'kern' Horizontal Kerning lookup 0 per glyph data 1" Ograve dx=0 dy=0 dh=-17 dv=0 dx=0 dy=0 dh=0 dv=0
PairPos2: "'kern' Horizontal Kerning lookup 0 per glyph data 1" Ntilde dx=0 dy=0 dh=-40 dv=0 dx=0 dy=0 dh=0 dv=0
PairPos2: "'kern' Horizontal Kerning lookup 0 per glyph data 1" Eth dx=0 dy=0 dh=-40 dv=0 dx=0 dy=0 dh=0 dv=0
PairPos2: "'kern' Horizontal Kerning lookup 0 per glyph data 1" Idieresis dx=0 dy=0 dh=-40 dv=0 dx=0 dy=0 dh=0 dv=0
PairPos2: "'kern' Horizontal Kerning lookup 0 per glyph data 1" Icircumflex dx=0 dy=0 dh=-40 dv=0 dx=0 dy=0 dh=0 dv=0
PairPos2: "'kern' Horizontal Kerning lookup 0 per glyph data 1" Iacute dx=0 dy=0 dh=-40 dv=0 dx=0 dy=0 dh=0 dv=0
PairPos2: "'kern' Horizontal Kerning lookup 0 per glyph data 1" Igrave dx=0 dy=0 dh=-40 dv=0 dx=0 dy=0 dh=0 dv=0
PairPos2: "'kern' Horizontal Kerning lookup 0 per glyph data 1" Edieresis dx=0 dy=0 dh=-40 dv=0 dx=0 dy=0 dh=0 dv=0
PairPos2: "'kern' Horizontal Kerning lookup 0 per glyph data 1" Ecircumflex dx=0 dy=0 dh=-40 dv=0 dx=0 dy=0 dh=0 dv=0
PairPos2: "'kern' Horizontal Kerning lookup 0 per glyph data 1" Eacute dx=0 dy=0 dh=-40 dv=0 dx=0 dy=0 dh=0 dv=0
PairPos2: "'kern' Horizontal Kerning lookup 0 per glyph data 1" Egrave dx=0 dy=0 dh=-40 dv=0 dx=0 dy=0 dh=0 dv=0
PairPos2: "'kern' Horizontal Kerning lookup 0 per glyph data 1" Ccedilla dx=0 dy=0 dh=-17 dv=0 dx=0 dy=0 dh=0 dv=0
PairPos2: "'kern' Horizontal Kerning lookup 0 per glyph data 1" AE dx=0 dy=0 dh=-56 dv=0 dx=0 dy=0 dh=0 dv=0
PairPos2: "'kern' Horizontal Kerning lookup 0 per glyph data 1" Aring dx=0 dy=0 dh=-56 dv=0 dx=0 dy=0 dh=0 dv=0
PairPos2: "'kern' Horizontal Kerning lookup 0 per glyph data 1" Adieresis dx=0 dy=0 dh=-56 dv=0 dx=0 dy=0 dh=0 dv=0
PairPos2: "'kern' Horizontal Kerning lookup 0 per glyph data 1" Atilde dx=0 dy=0 dh=-56 dv=0 dx=0 dy=0 dh=0 dv=0
PairPos2: "'kern' Horizontal Kerning lookup 0 per glyph data 1" Acircumflex dx=0 dy=0 dh=-56 dv=0 dx=0 dy=0 dh=0 dv=0
PairPos2: "'kern' Horizontal Kerning lookup 0 per glyph data 1" Aacute dx=0 dy=0 dh=-56 dv=0 dx=0 dy=0 dh=0 dv=0
PairPos2: "'kern' Horizontal Kerning lookup 0 per glyph data 1" Agrave dx=0 dy=0 dh=-56 dv=0 dx=0 dy=0 dh=0 dv=0
PairPos2: "'kern' Horizontal Kerning lookup 0 per glyph data 1" y dx=0 dy=0 dh=-11 dv=0 dx=0 dy=0 dh=0 dv=0
PairPos2: "'kern' Horizontal Kerning lookup 0 per glyph data 1" u dx=0 dy=0 dh=-13 dv=0 dx=0 dy=0 dh=0 dv=0
PairPos2: "'kern' Horizontal Kerning lookup 0 per glyph data 1" j dx=0 dy=0 dh=-42 dv=0 dx=0 dy=0 dh=0 dv=0
PairPos2: "'kern' Horizontal Kerning lookup 0 per glyph data 1" a dx=0 dy=0 dh=-3 dv=0 dx=0 dy=0 dh=0 dv=0
PairPos2: "'kern' Horizontal Kerning lookup 0 per glyph data 1" Z dx=0 dy=0 dh=-10 dv=0 dx=0 dy=0 dh=0 dv=0
PairPos2: "'kern' Horizontal Kerning lookup 0 per glyph data 1" Y dx=0 dy=0 dh=-74 dv=0 dx=0 dy=0 dh=0 dv=0
PairPos2: "'kern' Horizontal Kerning lookup 0 per glyph data 1" X dx=0 dy=0 dh=-43 dv=0 dx=0 dy=0 dh=0 dv=0
PairPos2: "'kern' Horizontal Kerning lookup 0 per glyph data 1" W dx=0 dy=0 dh=-65 dv=0 dx=0 dy=0 dh=0 dv=0
PairPos2: "'kern' Horizontal Kerning lookup 0 per glyph data 1" V dx=0 dy=0 dh=-65 dv=0 dx=0 dy=0 dh=0 dv=0
PairPos2: "'kern' Horizontal Kerning lookup 0 per glyph data 1" U dx=0 dy=0 dh=-28 dv=0 dx=0 dy=0 dh=0 dv=0
PairPos2: "'kern' Horizontal Kerning lookup 0 per glyph data 1" T dx=0 dy=0 dh=-30 dv=0 dx=0 dy=0 dh=0 dv=0
PairPos2: "'kern' Horizontal Kerning lookup 0 per glyph data 1" R dx=0 dy=0 dh=-40 dv=0 dx=0 dy=0 dh=0 dv=0
PairPos2: "'kern' Horizontal Kerning lookup 0 per glyph data 1" Q dx=0 dy=0 dh=-17 dv=0 dx=0 dy=0 dh=0 dv=0
PairPos2: "'kern' Horizontal Kerning lookup 0 per glyph data 1" P dx=0 dy=0 dh=-40 dv=0 dx=0 dy=0 dh=0 dv=0
PairPos2: "'kern' Horizontal Kerning lookup 0 per glyph data 1" O dx=0 dy=0 dh=-17 dv=0 dx=0 dy=0 dh=0 dv=0
PairPos2: "'kern' Horizontal Kerning lookup 0 per glyph data 1" N dx=0 dy=0 dh=-40 dv=0 dx=0 dy=0 dh=0 dv=0
PairPos2: "'kern' Horizontal Kerning lookup 0 per glyph data 1" M dx=0 dy=0 dh=-40 dv=0 dx=0 dy=0 dh=0 dv=0
PairPos2: "'kern' Horizontal Kerning lookup 0 per glyph data 1" L dx=0 dy=0 dh=-40 dv=0 dx=0 dy=0 dh=0 dv=0
PairPos2: "'kern' Horizontal Kerning lookup 0 per glyph data 1" K dx=0 dy=0 dh=-40 dv=0 dx=0 dy=0 dh=0 dv=0
PairPos2: "'kern' Horizontal Kerning lookup 0 per glyph data 1" J dx=0 dy=0 dh=-47 dv=0 dx=0 dy=0 dh=0 dv=0
PairPos2: "'kern' Horizontal Kerning lookup 0 per glyph data 1" I dx=0 dy=0 dh=-40 dv=0 dx=0 dy=0 dh=0 dv=0
PairPos2: "'kern' Horizontal Kerning lookup 0 per glyph data 1" H dx=0 dy=0 dh=-40 dv=0 dx=0 dy=0 dh=0 dv=0
PairPos2: "'kern' Horizontal Kerning lookup 0 per glyph data 1" G dx=0 dy=0 dh=-17 dv=0 dx=0 dy=0 dh=0 dv=0
PairPos2: "'kern' Horizontal Kerning lookup 0 per glyph data 1" F dx=0 dy=0 dh=-40 dv=0 dx=0 dy=0 dh=0 dv=0
PairPos2: "'kern' Horizontal Kerning lookup 0 per glyph data 1" E dx=0 dy=0 dh=-40 dv=0 dx=0 dy=0 dh=0 dv=0
PairPos2: "'kern' Horizontal Kerning lookup 0 per glyph data 1" D dx=0 dy=0 dh=-40 dv=0 dx=0 dy=0 dh=0 dv=0
PairPos2: "'kern' Horizontal Kerning lookup 0 per glyph data 1" C dx=0 dy=0 dh=-17 dv=0 dx=0 dy=0 dh=0 dv=0
PairPos2: "'kern' Horizontal Kerning lookup 0 per glyph data 1" B dx=0 dy=0 dh=-40 dv=0 dx=0 dy=0 dh=0 dv=0
PairPos2: "'kern' Horizontal Kerning lookup 0 per glyph data 1" A dx=0 dy=0 dh=-56 dv=0 dx=0 dy=0 dh=0 dv=0
PairPos2: "'kern' Horizontal Kerning lookup 0 per glyph data 1" question dx=0 dy=0 dh=-12 dv=0 dx=0 dy=0 dh=0 dv=0
EndChar

StartChar: C
Encoding: 67 67 38
Width: 752
GlyphClass: 2
Flags: W
LayerCount: 2
Fore
SplineSet
697 181 m 2,0,1
 702 177 702 177 702 171.5 c 128,-1,2
 702 166 702 166 697.5 156.5 c 128,-1,3
 693 147 693 147 682.5 131.5 c 128,-1,4
 672 116 672 116 645 89 c 128,-1,5
 618 62 618 62 586 42.5 c 128,-1,6
 554 23 554 23 501.5 8 c 128,-1,7
 449 -7 449 -7 389 -7 c 0,8,9
 243 -7 243 -7 145.5 95 c 128,-1,10
 48 197 48 197 48 362.5 c 128,-1,11
 48 528 48 528 146.5 626 c 128,-1,12
 245 724 245 724 384 724 c 0,13,14
 539 724 539 724 609 617 c 1,15,-1
 608 706 l 1,16,17
 606 718 606 718 620 718 c 2,18,-1
 676 718 l 2,19,20
 689 718 689 718 689 706 c 2,21,-1
 689 488 l 2,22,23
 689 475 689 475 676 475 c 2,24,-1
 613 475 l 2,25,26
 601 475 601 475 601 488 c 2,27,-1
 601 497 l 2,28,29
 601 543 601 543 538.5 592.5 c 128,-1,30
 476 642 476 642 383 642 c 128,-1,31
 290 642 290 642 215.5 568.5 c 128,-1,32
 141 495 141 495 141 360.5 c 128,-1,33
 141 226 141 226 216 151.5 c 128,-1,34
 291 77 291 77 392 77 c 0,35,36
 501 77 501 77 564 126 c 0,37,38
 613 164 613 164 636 203 c 0,39,40
 644 218 644 218 655 209 c 1,41,-1
 697 181 l 2,0,1
EndSplineSet
PairPos2: "'kern' Horizontal Kerning lookup 0 per glyph data 1" amacron.alt dx=0 dy=0 dh=-40 dv=0 dx=0 dy=0 dh=0 dv=0
PairPos2: "'kern' Horizontal Kerning lookup 0 per glyph data 1" acircumflex.alt dx=0 dy=0 dh=-40 dv=0 dx=0 dy=0 dh=0 dv=0
PairPos2: "'kern' Horizontal Kerning lookup 0 per glyph data 1" aring.alt dx=0 dy=0 dh=-40 dv=0 dx=0 dy=0 dh=0 dv=0
PairPos2: "'kern' Horizontal Kerning lookup 0 per glyph data 1" ygrave.alt dx=0 dy=0 dh=-15 dv=0 dx=0 dy=0 dh=0 dv=0
PairPos2: "'kern' Horizontal Kerning lookup 0 per glyph data 1" adieresis.alt dx=0 dy=0 dh=-40 dv=0 dx=0 dy=0 dh=0 dv=0
PairPos2: "'kern' Horizontal Kerning lookup 0 per glyph data 1" aogonek.alt dx=0 dy=0 dh=-40 dv=0 dx=0 dy=0 dh=0 dv=0
PairPos2: "'kern' Horizontal Kerning lookup 0 per glyph data 1" ydieresis.alt dx=0 dy=0 dh=-15 dv=0 dx=0 dy=0 dh=0 dv=0
PairPos2: "'kern' Horizontal Kerning lookup 0 per glyph data 1" aacute.alt dx=0 dy=0 dh=-40 dv=0 dx=0 dy=0 dh=0 dv=0
PairPos2: "'kern' Horizontal Kerning lookup 0 per glyph data 1" ycircumflex.alt dx=0 dy=0 dh=-15 dv=0 dx=0 dy=0 dh=0 dv=0
PairPos2: "'kern' Horizontal Kerning lookup 0 per glyph data 1" abreve.alt dx=0 dy=0 dh=-40 dv=0 dx=0 dy=0 dh=0 dv=0
PairPos2: "'kern' Horizontal Kerning lookup 0 per glyph data 1" yacute.alt dx=0 dy=0 dh=-15 dv=0 dx=0 dy=0 dh=0 dv=0
PairPos2: "'kern' Horizontal Kerning lookup 0 per glyph data 1" atilde.alt dx=0 dy=0 dh=-40 dv=0 dx=0 dy=0 dh=0 dv=0
PairPos2: "'kern' Horizontal Kerning lookup 0 per glyph data 1" y.alt dx=0 dy=0 dh=-15 dv=0 dx=0 dy=0 dh=0 dv=0
PairPos2: "'kern' Horizontal Kerning lookup 0 per glyph data 1" a.alt dx=0 dy=0 dh=-40 dv=0 dx=0 dy=0 dh=0 dv=0
PairPos2: "'kern' Horizontal Kerning lookup 0 per glyph data 1" agrave.alt dx=0 dy=0 dh=-40 dv=0 dx=0 dy=0 dh=0 dv=0
PairPos2: "'kern' Horizontal Kerning lookup 0 per glyph data 1" ygrave dx=0 dy=0 dh=-5 dv=0 dx=0 dy=0 dh=0 dv=0
PairPos2: "'kern' Horizontal Kerning lookup 0 per glyph data 1" Ygrave dx=0 dy=0 dh=-20 dv=0 dx=0 dy=0 dh=0 dv=0
PairPos2: "'kern' Horizontal Kerning lookup 0 per glyph data 1" Wdieresis dx=0 dy=0 dh=-43 dv=0 dx=0 dy=0 dh=0 dv=0
PairPos2: "'kern' Horizontal Kerning lookup 0 per glyph data 1" Wacute dx=0 dy=0 dh=-43 dv=0 dx=0 dy=0 dh=0 dv=0
PairPos2: "'kern' Horizontal Kerning lookup 0 per glyph data 1" Wgrave dx=0 dy=0 dh=-43 dv=0 dx=0 dy=0 dh=0 dv=0
PairPos2: "'kern' Horizontal Kerning lookup 0 per glyph data 1" oslashacute dx=0 dy=0 dh=-40 dv=0 dx=0 dy=0 dh=0 dv=0
PairPos2: "'kern' Horizontal Kerning lookup 0 per glyph data 1" Oslashacute dx=0 dy=0 dh=-19 dv=0 dx=0 dy=0 dh=0 dv=0
PairPos2: "'kern' Horizontal Kerning lookup 0 per glyph data 1" aeacute dx=0 dy=0 dh=-17 dv=0 dx=0 dy=0 dh=0 dv=0
PairPos2: "'kern' Horizontal Kerning lookup 0 per glyph data 1" AEacute dx=0 dy=0 dh=-62 dv=0 dx=0 dy=0 dh=0 dv=0
PairPos2: "'kern' Horizontal Kerning lookup 0 per glyph data 1" Ydieresis dx=0 dy=0 dh=-20 dv=0 dx=0 dy=0 dh=0 dv=0
PairPos2: "'kern' Horizontal Kerning lookup 0 per glyph data 1" ycircumflex dx=0 dy=0 dh=-5 dv=0 dx=0 dy=0 dh=0 dv=0
PairPos2: "'kern' Horizontal Kerning lookup 0 per glyph data 1" Ycircumflex dx=0 dy=0 dh=-20 dv=0 dx=0 dy=0 dh=0 dv=0
PairPos2: "'kern' Horizontal Kerning lookup 0 per glyph data 1" Wcircumflex dx=0 dy=0 dh=-43 dv=0 dx=0 dy=0 dh=0 dv=0
PairPos2: "'kern' Horizontal Kerning lookup 0 per glyph data 1" uogonek dx=0 dy=0 dh=-15 dv=0 dx=0 dy=0 dh=0 dv=0
PairPos2: "'kern' Horizontal Kerning lookup 0 per glyph data 1" Uogonek dx=0 dy=0 dh=-4 dv=0 dx=0 dy=0 dh=0 dv=0
PairPos2: "'kern' Horizontal Kerning lookup 0 per glyph data 1" uhungarumlaut dx=0 dy=0 dh=-15 dv=0 dx=0 dy=0 dh=0 dv=0
PairPos2: "'kern' Horizontal Kerning lookup 0 per glyph data 1" Uhungarumlaut dx=0 dy=0 dh=-4 dv=0 dx=0 dy=0 dh=0 dv=0
PairPos2: "'kern' Horizontal Kerning lookup 0 per glyph data 1" uring dx=0 dy=0 dh=-15 dv=0 dx=0 dy=0 dh=0 dv=0
PairPos2: "'kern' Horizontal Kerning lookup 0 per glyph data 1" Uring dx=0 dy=0 dh=-4 dv=0 dx=0 dy=0 dh=0 dv=0
PairPos2: "'kern' Horizontal Kerning lookup 0 per glyph data 1" ubreve dx=0 dy=0 dh=-15 dv=0 dx=0 dy=0 dh=0 dv=0
PairPos2: "'kern' Horizontal Kerning lookup 0 per glyph data 1" Ubreve dx=0 dy=0 dh=-4 dv=0 dx=0 dy=0 dh=0 dv=0
PairPos2: "'kern' Horizontal Kerning lookup 0 per glyph data 1" umacron dx=0 dy=0 dh=-15 dv=0 dx=0 dy=0 dh=0 dv=0
PairPos2: "'kern' Horizontal Kerning lookup 0 per glyph data 1" Umacron dx=0 dy=0 dh=-4 dv=0 dx=0 dy=0 dh=0 dv=0
PairPos2: "'kern' Horizontal Kerning lookup 0 per glyph data 1" utilde dx=0 dy=0 dh=-15 dv=0 dx=0 dy=0 dh=0 dv=0
PairPos2: "'kern' Horizontal Kerning lookup 0 per glyph data 1" Utilde dx=0 dy=0 dh=-4 dv=0 dx=0 dy=0 dh=0 dv=0
PairPos2: "'kern' Horizontal Kerning lookup 0 per glyph data 1" Tbar dx=0 dy=0 dh=-7 dv=0 dx=0 dy=0 dh=0 dv=0
PairPos2: "'kern' Horizontal Kerning lookup 0 per glyph data 1" Tcaron dx=0 dy=0 dh=-7 dv=0 dx=0 dy=0 dh=0 dv=0
PairPos2: "'kern' Horizontal Kerning lookup 0 per glyph data 1" Tcommaaccent dx=0 dy=0 dh=-7 dv=0 dx=0 dy=0 dh=0 dv=0
PairPos2: "'kern' Horizontal Kerning lookup 0 per glyph data 1" Rcaron dx=0 dy=0 dh=-21 dv=0 dx=0 dy=0 dh=0 dv=0
PairPos2: "'kern' Horizontal Kerning lookup 0 per glyph data 1" Rcommaaccent dx=0 dy=0 dh=-21 dv=0 dx=0 dy=0 dh=0 dv=0
PairPos2: "'kern' Horizontal Kerning lookup 0 per glyph data 1" Racute dx=0 dy=0 dh=-21 dv=0 dx=0 dy=0 dh=0 dv=0
PairPos2: "'kern' Horizontal Kerning lookup 0 per glyph data 1" oe dx=0 dy=0 dh=-40 dv=0 dx=0 dy=0 dh=0 dv=0
PairPos2: "'kern' Horizontal Kerning lookup 0 per glyph data 1" OE dx=0 dy=0 dh=-19 dv=0 dx=0 dy=0 dh=0 dv=0
PairPos2: "'kern' Horizontal Kerning lookup 0 per glyph data 1" ohungarumlaut dx=0 dy=0 dh=-40 dv=0 dx=0 dy=0 dh=0 dv=0
PairPos2: "'kern' Horizontal Kerning lookup 0 per glyph data 1" Ohungarumlaut dx=0 dy=0 dh=-19 dv=0 dx=0 dy=0 dh=0 dv=0
PairPos2: "'kern' Horizontal Kerning lookup 0 per glyph data 1" obreve dx=0 dy=0 dh=-40 dv=0 dx=0 dy=0 dh=0 dv=0
PairPos2: "'kern' Horizontal Kerning lookup 0 per glyph data 1" Obreve dx=0 dy=0 dh=-19 dv=0 dx=0 dy=0 dh=0 dv=0
PairPos2: "'kern' Horizontal Kerning lookup 0 per glyph data 1" omacron dx=0 dy=0 dh=-40 dv=0 dx=0 dy=0 dh=0 dv=0
PairPos2: "'kern' Horizontal Kerning lookup 0 per glyph data 1" Omacron dx=0 dy=0 dh=-19 dv=0 dx=0 dy=0 dh=0 dv=0
PairPos2: "'kern' Horizontal Kerning lookup 0 per glyph data 1" Eng dx=0 dy=0 dh=-21 dv=0 dx=0 dy=0 dh=0 dv=0
PairPos2: "'kern' Horizontal Kerning lookup 0 per glyph data 1" Ncaron dx=0 dy=0 dh=-21 dv=0 dx=0 dy=0 dh=0 dv=0
PairPos2: "'kern' Horizontal Kerning lookup 0 per glyph data 1" Ncommaaccent dx=0 dy=0 dh=-21 dv=0 dx=0 dy=0 dh=0 dv=0
PairPos2: "'kern' Horizontal Kerning lookup 0 per glyph data 1" Nacute dx=0 dy=0 dh=-21 dv=0 dx=0 dy=0 dh=0 dv=0
PairPos2: "'kern' Horizontal Kerning lookup 0 per glyph data 1" Lslash dx=0 dy=0 dh=-21 dv=0 dx=0 dy=0 dh=0 dv=0
PairPos2: "'kern' Horizontal Kerning lookup 0 per glyph data 1" Ldot dx=0 dy=0 dh=-21 dv=0 dx=0 dy=0 dh=0 dv=0
PairPos2: "'kern' Horizontal Kerning lookup 0 per glyph data 1" Lcaron dx=0 dy=0 dh=-21 dv=0 dx=0 dy=0 dh=0 dv=0
PairPos2: "'kern' Horizontal Kerning lookup 0 per glyph data 1" Lcommaaccent dx=0 dy=0 dh=-21 dv=0 dx=0 dy=0 dh=0 dv=0
PairPos2: "'kern' Horizontal Kerning lookup 0 per glyph data 1" Lacute dx=0 dy=0 dh=-21 dv=0 dx=0 dy=0 dh=0 dv=0
PairPos2: "'kern' Horizontal Kerning lookup 0 per glyph data 1" Kcommaaccent dx=0 dy=0 dh=-21 dv=0 dx=0 dy=0 dh=0 dv=0
PairPos2: "'kern' Horizontal Kerning lookup 0 per glyph data 1" jcircumflex dx=0 dy=0 dh=-38 dv=0 dx=0 dy=0 dh=0 dv=0
PairPos2: "'kern' Horizontal Kerning lookup 0 per glyph data 1" Jcircumflex dx=0 dy=0 dh=-35 dv=0 dx=0 dy=0 dh=0 dv=0
PairPos2: "'kern' Horizontal Kerning lookup 0 per glyph data 1" Idotaccent dx=0 dy=0 dh=-21 dv=0 dx=0 dy=0 dh=0 dv=0
PairPos2: "'kern' Horizontal Kerning lookup 0 per glyph data 1" Iogonek dx=0 dy=0 dh=-21 dv=0 dx=0 dy=0 dh=0 dv=0
PairPos2: "'kern' Horizontal Kerning lookup 0 per glyph data 1" Ibreve dx=0 dy=0 dh=-21 dv=0 dx=0 dy=0 dh=0 dv=0
PairPos2: "'kern' Horizontal Kerning lookup 0 per glyph data 1" Itilde dx=0 dy=0 dh=-21 dv=0 dx=0 dy=0 dh=0 dv=0
PairPos2: "'kern' Horizontal Kerning lookup 0 per glyph data 1" Hbar dx=0 dy=0 dh=-21 dv=0 dx=0 dy=0 dh=0 dv=0
PairPos2: "'kern' Horizontal Kerning lookup 0 per glyph data 1" Hcircumflex dx=0 dy=0 dh=-21 dv=0 dx=0 dy=0 dh=0 dv=0
PairPos2: "'kern' Horizontal Kerning lookup 0 per glyph data 1" Gcommaaccent dx=0 dy=0 dh=-19 dv=0 dx=0 dy=0 dh=0 dv=0
PairPos2: "'kern' Horizontal Kerning lookup 0 per glyph data 1" Gdotaccent dx=0 dy=0 dh=-19 dv=0 dx=0 dy=0 dh=0 dv=0
PairPos2: "'kern' Horizontal Kerning lookup 0 per glyph data 1" Gbreve dx=0 dy=0 dh=-19 dv=0 dx=0 dy=0 dh=0 dv=0
PairPos2: "'kern' Horizontal Kerning lookup 0 per glyph data 1" Gcircumflex dx=0 dy=0 dh=-19 dv=0 dx=0 dy=0 dh=0 dv=0
PairPos2: "'kern' Horizontal Kerning lookup 0 per glyph data 1" ecaron dx=0 dy=0 dh=-40 dv=0 dx=0 dy=0 dh=0 dv=0
PairPos2: "'kern' Horizontal Kerning lookup 0 per glyph data 1" Ecaron dx=0 dy=0 dh=-21 dv=0 dx=0 dy=0 dh=0 dv=0
PairPos2: "'kern' Horizontal Kerning lookup 0 per glyph data 1" eogonek dx=0 dy=0 dh=-40 dv=0 dx=0 dy=0 dh=0 dv=0
PairPos2: "'kern' Horizontal Kerning lookup 0 per glyph data 1" Eogonek dx=0 dy=0 dh=-21 dv=0 dx=0 dy=0 dh=0 dv=0
PairPos2: "'kern' Horizontal Kerning lookup 0 per glyph data 1" edotaccent dx=0 dy=0 dh=-40 dv=0 dx=0 dy=0 dh=0 dv=0
PairPos2: "'kern' Horizontal Kerning lookup 0 per glyph data 1" Edotaccent dx=0 dy=0 dh=-21 dv=0 dx=0 dy=0 dh=0 dv=0
PairPos2: "'kern' Horizontal Kerning lookup 0 per glyph data 1" ebreve dx=0 dy=0 dh=-40 dv=0 dx=0 dy=0 dh=0 dv=0
PairPos2: "'kern' Horizontal Kerning lookup 0 per glyph data 1" Ebreve dx=0 dy=0 dh=-21 dv=0 dx=0 dy=0 dh=0 dv=0
PairPos2: "'kern' Horizontal Kerning lookup 0 per glyph data 1" emacron dx=0 dy=0 dh=-40 dv=0 dx=0 dy=0 dh=0 dv=0
PairPos2: "'kern' Horizontal Kerning lookup 0 per glyph data 1" Emacron dx=0 dy=0 dh=-21 dv=0 dx=0 dy=0 dh=0 dv=0
PairPos2: "'kern' Horizontal Kerning lookup 0 per glyph data 1" dcroat dx=0 dy=0 dh=-40 dv=0 dx=0 dy=0 dh=0 dv=0
PairPos2: "'kern' Horizontal Kerning lookup 0 per glyph data 1" Dcroat dx=0 dy=0 dh=-21 dv=0 dx=0 dy=0 dh=0 dv=0
PairPos2: "'kern' Horizontal Kerning lookup 0 per glyph data 1" dcaron dx=0 dy=0 dh=-40 dv=0 dx=0 dy=0 dh=0 dv=0
PairPos2: "'kern' Horizontal Kerning lookup 0 per glyph data 1" Dcaron dx=0 dy=0 dh=-21 dv=0 dx=0 dy=0 dh=0 dv=0
PairPos2: "'kern' Horizontal Kerning lookup 0 per glyph data 1" ccaron dx=0 dy=0 dh=-40 dv=0 dx=0 dy=0 dh=0 dv=0
PairPos2: "'kern' Horizontal Kerning lookup 0 per glyph data 1" Ccaron dx=0 dy=0 dh=-19 dv=0 dx=0 dy=0 dh=0 dv=0
PairPos2: "'kern' Horizontal Kerning lookup 0 per glyph data 1" cdotaccent dx=0 dy=0 dh=-40 dv=0 dx=0 dy=0 dh=0 dv=0
PairPos2: "'kern' Horizontal Kerning lookup 0 per glyph data 1" Cdotaccent dx=0 dy=0 dh=-19 dv=0 dx=0 dy=0 dh=0 dv=0
PairPos2: "'kern' Horizontal Kerning lookup 0 per glyph data 1" ccircumflex dx=0 dy=0 dh=-40 dv=0 dx=0 dy=0 dh=0 dv=0
PairPos2: "'kern' Horizontal Kerning lookup 0 per glyph data 1" Ccircumflex dx=0 dy=0 dh=-19 dv=0 dx=0 dy=0 dh=0 dv=0
PairPos2: "'kern' Horizontal Kerning lookup 0 per glyph data 1" cacute dx=0 dy=0 dh=-40 dv=0 dx=0 dy=0 dh=0 dv=0
PairPos2: "'kern' Horizontal Kerning lookup 0 per glyph data 1" Cacute dx=0 dy=0 dh=-19 dv=0 dx=0 dy=0 dh=0 dv=0
PairPos2: "'kern' Horizontal Kerning lookup 0 per glyph data 1" aogonek dx=0 dy=0 dh=-17 dv=0 dx=0 dy=0 dh=0 dv=0
PairPos2: "'kern' Horizontal Kerning lookup 0 per glyph data 1" Aogonek dx=0 dy=0 dh=-62 dv=0 dx=0 dy=0 dh=0 dv=0
PairPos2: "'kern' Horizontal Kerning lookup 0 per glyph data 1" abreve dx=0 dy=0 dh=-17 dv=0 dx=0 dy=0 dh=0 dv=0
PairPos2: "'kern' Horizontal Kerning lookup 0 per glyph data 1" Abreve dx=0 dy=0 dh=-62 dv=0 dx=0 dy=0 dh=0 dv=0
PairPos2: "'kern' Horizontal Kerning lookup 0 per glyph data 1" amacron dx=0 dy=0 dh=-17 dv=0 dx=0 dy=0 dh=0 dv=0
PairPos2: "'kern' Horizontal Kerning lookup 0 per glyph data 1" Amacron dx=0 dy=0 dh=-62 dv=0 dx=0 dy=0 dh=0 dv=0
PairPos2: "'kern' Horizontal Kerning lookup 0 per glyph data 1" ydieresis dx=0 dy=0 dh=-5 dv=0 dx=0 dy=0 dh=0 dv=0
PairPos2: "'kern' Horizontal Kerning lookup 0 per glyph data 1" yacute dx=0 dy=0 dh=-5 dv=0 dx=0 dy=0 dh=0 dv=0
PairPos2: "'kern' Horizontal Kerning lookup 0 per glyph data 1" udieresis dx=0 dy=0 dh=-15 dv=0 dx=0 dy=0 dh=0 dv=0
PairPos2: "'kern' Horizontal Kerning lookup 0 per glyph data 1" ucircumflex dx=0 dy=0 dh=-15 dv=0 dx=0 dy=0 dh=0 dv=0
PairPos2: "'kern' Horizontal Kerning lookup 0 per glyph data 1" uacute dx=0 dy=0 dh=-15 dv=0 dx=0 dy=0 dh=0 dv=0
PairPos2: "'kern' Horizontal Kerning lookup 0 per glyph data 1" ugrave dx=0 dy=0 dh=-15 dv=0 dx=0 dy=0 dh=0 dv=0
PairPos2: "'kern' Horizontal Kerning lookup 0 per glyph data 1" oslash dx=0 dy=0 dh=-40 dv=0 dx=0 dy=0 dh=0 dv=0
PairPos2: "'kern' Horizontal Kerning lookup 0 per glyph data 1" odieresis dx=0 dy=0 dh=-40 dv=0 dx=0 dy=0 dh=0 dv=0
PairPos2: "'kern' Horizontal Kerning lookup 0 per glyph data 1" otilde dx=0 dy=0 dh=-40 dv=0 dx=0 dy=0 dh=0 dv=0
PairPos2: "'kern' Horizontal Kerning lookup 0 per glyph data 1" ocircumflex dx=0 dy=0 dh=-40 dv=0 dx=0 dy=0 dh=0 dv=0
PairPos2: "'kern' Horizontal Kerning lookup 0 per glyph data 1" oacute dx=0 dy=0 dh=-40 dv=0 dx=0 dy=0 dh=0 dv=0
PairPos2: "'kern' Horizontal Kerning lookup 0 per glyph data 1" ograve dx=0 dy=0 dh=-40 dv=0 dx=0 dy=0 dh=0 dv=0
PairPos2: "'kern' Horizontal Kerning lookup 0 per glyph data 1" edieresis dx=0 dy=0 dh=-40 dv=0 dx=0 dy=0 dh=0 dv=0
PairPos2: "'kern' Horizontal Kerning lookup 0 per glyph data 1" ecircumflex dx=0 dy=0 dh=-40 dv=0 dx=0 dy=0 dh=0 dv=0
PairPos2: "'kern' Horizontal Kerning lookup 0 per glyph data 1" eacute dx=0 dy=0 dh=-40 dv=0 dx=0 dy=0 dh=0 dv=0
PairPos2: "'kern' Horizontal Kerning lookup 0 per glyph data 1" egrave dx=0 dy=0 dh=-40 dv=0 dx=0 dy=0 dh=0 dv=0
PairPos2: "'kern' Horizontal Kerning lookup 0 per glyph data 1" ccedilla dx=0 dy=0 dh=-40 dv=0 dx=0 dy=0 dh=0 dv=0
PairPos2: "'kern' Horizontal Kerning lookup 0 per glyph data 1" ae dx=0 dy=0 dh=-17 dv=0 dx=0 dy=0 dh=0 dv=0
PairPos2: "'kern' Horizontal Kerning lookup 0 per glyph data 1" aring dx=0 dy=0 dh=-17 dv=0 dx=0 dy=0 dh=0 dv=0
PairPos2: "'kern' Horizontal Kerning lookup 0 per glyph data 1" adieresis dx=0 dy=0 dh=-17 dv=0 dx=0 dy=0 dh=0 dv=0
PairPos2: "'kern' Horizontal Kerning lookup 0 per glyph data 1" atilde dx=0 dy=0 dh=-17 dv=0 dx=0 dy=0 dh=0 dv=0
PairPos2: "'kern' Horizontal Kerning lookup 0 per glyph data 1" acircumflex dx=0 dy=0 dh=-17 dv=0 dx=0 dy=0 dh=0 dv=0
PairPos2: "'kern' Horizontal Kerning lookup 0 per glyph data 1" aacute dx=0 dy=0 dh=-17 dv=0 dx=0 dy=0 dh=0 dv=0
PairPos2: "'kern' Horizontal Kerning lookup 0 per glyph data 1" agrave dx=0 dy=0 dh=-17 dv=0 dx=0 dy=0 dh=0 dv=0
PairPos2: "'kern' Horizontal Kerning lookup 0 per glyph data 1" Yacute dx=0 dy=0 dh=-20 dv=0 dx=0 dy=0 dh=0 dv=0
PairPos2: "'kern' Horizontal Kerning lookup 0 per glyph data 1" Udieresis dx=0 dy=0 dh=-4 dv=0 dx=0 dy=0 dh=0 dv=0
PairPos2: "'kern' Horizontal Kerning lookup 0 per glyph data 1" Ucircumflex dx=0 dy=0 dh=-4 dv=0 dx=0 dy=0 dh=0 dv=0
PairPos2: "'kern' Horizontal Kerning lookup 0 per glyph data 1" Uacute dx=0 dy=0 dh=-4 dv=0 dx=0 dy=0 dh=0 dv=0
PairPos2: "'kern' Horizontal Kerning lookup 0 per glyph data 1" Ugrave dx=0 dy=0 dh=-4 dv=0 dx=0 dy=0 dh=0 dv=0
PairPos2: "'kern' Horizontal Kerning lookup 0 per glyph data 1" Oslash dx=0 dy=0 dh=-19 dv=0 dx=0 dy=0 dh=0 dv=0
PairPos2: "'kern' Horizontal Kerning lookup 0 per glyph data 1" Odieresis dx=0 dy=0 dh=-19 dv=0 dx=0 dy=0 dh=0 dv=0
PairPos2: "'kern' Horizontal Kerning lookup 0 per glyph data 1" Otilde dx=0 dy=0 dh=-19 dv=0 dx=0 dy=0 dh=0 dv=0
PairPos2: "'kern' Horizontal Kerning lookup 0 per glyph data 1" Ocircumflex dx=0 dy=0 dh=-19 dv=0 dx=0 dy=0 dh=0 dv=0
PairPos2: "'kern' Horizontal Kerning lookup 0 per glyph data 1" Oacute dx=0 dy=0 dh=-19 dv=0 dx=0 dy=0 dh=0 dv=0
PairPos2: "'kern' Horizontal Kerning lookup 0 per glyph data 1" Ograve dx=0 dy=0 dh=-19 dv=0 dx=0 dy=0 dh=0 dv=0
PairPos2: "'kern' Horizontal Kerning lookup 0 per glyph data 1" Ntilde dx=0 dy=0 dh=-21 dv=0 dx=0 dy=0 dh=0 dv=0
PairPos2: "'kern' Horizontal Kerning lookup 0 per glyph data 1" Eth dx=0 dy=0 dh=-21 dv=0 dx=0 dy=0 dh=0 dv=0
PairPos2: "'kern' Horizontal Kerning lookup 0 per glyph data 1" Idieresis dx=0 dy=0 dh=-21 dv=0 dx=0 dy=0 dh=0 dv=0
PairPos2: "'kern' Horizontal Kerning lookup 0 per glyph data 1" Icircumflex dx=0 dy=0 dh=-21 dv=0 dx=0 dy=0 dh=0 dv=0
PairPos2: "'kern' Horizontal Kerning lookup 0 per glyph data 1" Iacute dx=0 dy=0 dh=-21 dv=0 dx=0 dy=0 dh=0 dv=0
PairPos2: "'kern' Horizontal Kerning lookup 0 per glyph data 1" Igrave dx=0 dy=0 dh=-21 dv=0 dx=0 dy=0 dh=0 dv=0
PairPos2: "'kern' Horizontal Kerning lookup 0 per glyph data 1" Edieresis dx=0 dy=0 dh=-21 dv=0 dx=0 dy=0 dh=0 dv=0
PairPos2: "'kern' Horizontal Kerning lookup 0 per glyph data 1" Ecircumflex dx=0 dy=0 dh=-21 dv=0 dx=0 dy=0 dh=0 dv=0
PairPos2: "'kern' Horizontal Kerning lookup 0 per glyph data 1" Eacute dx=0 dy=0 dh=-21 dv=0 dx=0 dy=0 dh=0 dv=0
PairPos2: "'kern' Horizontal Kerning lookup 0 per glyph data 1" Egrave dx=0 dy=0 dh=-21 dv=0 dx=0 dy=0 dh=0 dv=0
PairPos2: "'kern' Horizontal Kerning lookup 0 per glyph data 1" Ccedilla dx=0 dy=0 dh=-19 dv=0 dx=0 dy=0 dh=0 dv=0
PairPos2: "'kern' Horizontal Kerning lookup 0 per glyph data 1" AE dx=0 dy=0 dh=-62 dv=0 dx=0 dy=0 dh=0 dv=0
PairPos2: "'kern' Horizontal Kerning lookup 0 per glyph data 1" Aring dx=0 dy=0 dh=-62 dv=0 dx=0 dy=0 dh=0 dv=0
PairPos2: "'kern' Horizontal Kerning lookup 0 per glyph data 1" Adieresis dx=0 dy=0 dh=-62 dv=0 dx=0 dy=0 dh=0 dv=0
PairPos2: "'kern' Horizontal Kerning lookup 0 per glyph data 1" Atilde dx=0 dy=0 dh=-62 dv=0 dx=0 dy=0 dh=0 dv=0
PairPos2: "'kern' Horizontal Kerning lookup 0 per glyph data 1" Acircumflex dx=0 dy=0 dh=-62 dv=0 dx=0 dy=0 dh=0 dv=0
PairPos2: "'kern' Horizontal Kerning lookup 0 per glyph data 1" Aacute dx=0 dy=0 dh=-62 dv=0 dx=0 dy=0 dh=0 dv=0
PairPos2: "'kern' Horizontal Kerning lookup 0 per glyph data 1" Agrave dx=0 dy=0 dh=-62 dv=0 dx=0 dy=0 dh=0 dv=0
PairPos2: "'kern' Horizontal Kerning lookup 0 per glyph data 1" y dx=0 dy=0 dh=-5 dv=0 dx=0 dy=0 dh=0 dv=0
PairPos2: "'kern' Horizontal Kerning lookup 0 per glyph data 1" u dx=0 dy=0 dh=-15 dv=0 dx=0 dy=0 dh=0 dv=0
PairPos2: "'kern' Horizontal Kerning lookup 0 per glyph data 1" q dx=0 dy=0 dh=-40 dv=0 dx=0 dy=0 dh=0 dv=0
PairPos2: "'kern' Horizontal Kerning lookup 0 per glyph data 1" o dx=0 dy=0 dh=-40 dv=0 dx=0 dy=0 dh=0 dv=0
PairPos2: "'kern' Horizontal Kerning lookup 0 per glyph data 1" j dx=0 dy=0 dh=-38 dv=0 dx=0 dy=0 dh=0 dv=0
PairPos2: "'kern' Horizontal Kerning lookup 0 per glyph data 1" e dx=0 dy=0 dh=-40 dv=0 dx=0 dy=0 dh=0 dv=0
PairPos2: "'kern' Horizontal Kerning lookup 0 per glyph data 1" d dx=0 dy=0 dh=-40 dv=0 dx=0 dy=0 dh=0 dv=0
PairPos2: "'kern' Horizontal Kerning lookup 0 per glyph data 1" c dx=0 dy=0 dh=-40 dv=0 dx=0 dy=0 dh=0 dv=0
PairPos2: "'kern' Horizontal Kerning lookup 0 per glyph data 1" a dx=0 dy=0 dh=-17 dv=0 dx=0 dy=0 dh=0 dv=0
PairPos2: "'kern' Horizontal Kerning lookup 0 per glyph data 1" Y dx=0 dy=0 dh=-20 dv=0 dx=0 dy=0 dh=0 dv=0
PairPos2: "'kern' Horizontal Kerning lookup 0 per glyph data 1" X dx=0 dy=0 dh=-37 dv=0 dx=0 dy=0 dh=0 dv=0
PairPos2: "'kern' Horizontal Kerning lookup 0 per glyph data 1" W dx=0 dy=0 dh=-43 dv=0 dx=0 dy=0 dh=0 dv=0
PairPos2: "'kern' Horizontal Kerning lookup 0 per glyph data 1" V dx=0 dy=0 dh=-43 dv=0 dx=0 dy=0 dh=0 dv=0
PairPos2: "'kern' Horizontal Kerning lookup 0 per glyph data 1" U dx=0 dy=0 dh=-4 dv=0 dx=0 dy=0 dh=0 dv=0
PairPos2: "'kern' Horizontal Kerning lookup 0 per glyph data 1" T dx=0 dy=0 dh=-7 dv=0 dx=0 dy=0 dh=0 dv=0
PairPos2: "'kern' Horizontal Kerning lookup 0 per glyph data 1" R dx=0 dy=0 dh=-21 dv=0 dx=0 dy=0 dh=0 dv=0
PairPos2: "'kern' Horizontal Kerning lookup 0 per glyph data 1" Q dx=0 dy=0 dh=-19 dv=0 dx=0 dy=0 dh=0 dv=0
PairPos2: "'kern' Horizontal Kerning lookup 0 per glyph data 1" P dx=0 dy=0 dh=-21 dv=0 dx=0 dy=0 dh=0 dv=0
PairPos2: "'kern' Horizontal Kerning lookup 0 per glyph data 1" O dx=0 dy=0 dh=-19 dv=0 dx=0 dy=0 dh=0 dv=0
PairPos2: "'kern' Horizontal Kerning lookup 0 per glyph data 1" N dx=0 dy=0 dh=-21 dv=0 dx=0 dy=0 dh=0 dv=0
PairPos2: "'kern' Horizontal Kerning lookup 0 per glyph data 1" M dx=0 dy=0 dh=-21 dv=0 dx=0 dy=0 dh=0 dv=0
PairPos2: "'kern' Horizontal Kerning lookup 0 per glyph data 1" L dx=0 dy=0 dh=-21 dv=0 dx=0 dy=0 dh=0 dv=0
PairPos2: "'kern' Horizontal Kerning lookup 0 per glyph data 1" K dx=0 dy=0 dh=-21 dv=0 dx=0 dy=0 dh=0 dv=0
PairPos2: "'kern' Horizontal Kerning lookup 0 per glyph data 1" J dx=0 dy=0 dh=-35 dv=0 dx=0 dy=0 dh=0 dv=0
PairPos2: "'kern' Horizontal Kerning lookup 0 per glyph data 1" I dx=0 dy=0 dh=-21 dv=0 dx=0 dy=0 dh=0 dv=0
PairPos2: "'kern' Horizontal Kerning lookup 0 per glyph data 1" H dx=0 dy=0 dh=-21 dv=0 dx=0 dy=0 dh=0 dv=0
PairPos2: "'kern' Horizontal Kerning lookup 0 per glyph data 1" G dx=0 dy=0 dh=-19 dv=0 dx=0 dy=0 dh=0 dv=0
PairPos2: "'kern' Horizontal Kerning lookup 0 per glyph data 1" F dx=0 dy=0 dh=-21 dv=0 dx=0 dy=0 dh=0 dv=0
PairPos2: "'kern' Horizontal Kerning lookup 0 per glyph data 1" E dx=0 dy=0 dh=-21 dv=0 dx=0 dy=0 dh=0 dv=0
PairPos2: "'kern' Horizontal Kerning lookup 0 per glyph data 1" D dx=0 dy=0 dh=-21 dv=0 dx=0 dy=0 dh=0 dv=0
PairPos2: "'kern' Horizontal Kerning lookup 0 per glyph data 1" C dx=0 dy=0 dh=-19 dv=0 dx=0 dy=0 dh=0 dv=0
PairPos2: "'kern' Horizontal Kerning lookup 0 per glyph data 1" B dx=0 dy=0 dh=-21 dv=0 dx=0 dy=0 dh=0 dv=0
PairPos2: "'kern' Horizontal Kerning lookup 0 per glyph data 1" A dx=0 dy=0 dh=-62 dv=0 dx=0 dy=0 dh=0 dv=0
PairPos2: "'kern' Horizontal Kerning lookup 0 per glyph data 1" period dx=0 dy=0 dh=-5 dv=0 dx=0 dy=0 dh=0 dv=0
PairPos2: "'kern' Horizontal Kerning lookup 0 per glyph data 1" exclam dx=0 dy=0 dh=3 dv=0 dx=0 dy=0 dh=0 dv=0
EndChar

StartChar: D
Encoding: 68 68 39
Width: 740
GlyphClass: 2
Flags: W
LayerCount: 2
Fore
SplineSet
342 0 m 2,0,-1
 55 0 l 2,1,2
 43 0 43 0 43 12 c 2,3,-1
 43 63 l 2,4,5
 43 75 43 75 55 75 c 2,6,-1
 132 75 l 1,7,-1
 132 643 l 1,8,-1
 55 643 l 2,9,10
 43 643 43 643 43 655 c 2,11,-1
 43 706 l 2,12,13
 43 718 43 718 55 718 c 2,14,-1
 325 718 l 2,15,16
 491 718 491 718 589 622.5 c 128,-1,17
 687 527 687 527 687 360 c 128,-1,18
 687 193 687 193 594 96.5 c 128,-1,19
 501 0 501 0 342 0 c 2,0,-1
219 75 m 1,20,-1
 318 75 l 1,21,22
 596 77 596 77 596 358 c 0,23,24
 596 493 596 493 524.5 568 c 128,-1,25
 453 643 453 643 315 643 c 2,26,-1
 219 643 l 1,27,-1
 219 75 l 1,20,-1
EndSplineSet
EndChar

StartChar: E
Encoding: 69 69 40
Width: 653
GlyphClass: 2
Flags: W
LayerCount: 2
Fore
SplineSet
592 0 m 2,0,-1
 61 0 l 2,1,2
 48 0 48 0 48 12 c 2,3,-1
 48 63 l 2,4,5
 48 75 48 75 61 75 c 2,6,-1
 137 75 l 1,7,-1
 137 643 l 1,8,-1
 61 643 l 2,9,10
 48 643 48 643 48 655 c 2,11,-1
 48 706 l 2,12,13
 48 718 48 718 61 718 c 2,14,-1
 592 718 l 2,15,16
 605 718 605 718 605 706 c 2,17,-1
 605 545 l 2,18,19
 605 532 605 532 592 532 c 2,20,-1
 538 532 l 2,21,22
 526 532 526 532 526 545 c 2,23,-1
 526 643 l 1,24,-1
 224 643 l 1,25,-1
 224 395 l 1,26,-1
 477 395 l 2,27,28
 490 395 490 395 490 383 c 2,29,-1
 490 332 l 2,30,31
 490 320 490 320 477 320 c 2,32,-1
 224 320 l 1,33,-1
 224 75 l 1,34,-1
 525 75 l 1,35,-1
 525 173 l 2,36,37
 525 185 525 185 538 185 c 2,38,-1
 592 185 l 2,39,40
 605 185 605 185 605 173 c 2,41,-1
 605 12 l 2,42,43
 605 0 605 0 592 0 c 2,0,-1
EndSplineSet
EndChar

StartChar: F
Encoding: 70 70 41
Width: 635
GlyphClass: 2
Flags: W
LayerCount: 2
Fore
SplineSet
337 0 m 2,0,-1
 61 0 l 2,1,2
 48 0 48 0 48 12 c 2,3,-1
 48 63 l 2,4,5
 48 75 48 75 61 75 c 2,6,-1
 137 75 l 1,7,-1
 137 643 l 1,8,-1
 61 643 l 2,9,10
 48 643 48 643 48 655 c 2,11,-1
 48 706 l 2,12,13
 48 718 48 718 61 718 c 2,14,-1
 574 718 l 2,15,16
 587 718 587 718 587 706 c 2,17,-1
 587 545 l 2,18,19
 587 532 587 532 574 532 c 2,20,-1
 520 532 l 2,21,22
 508 532 508 532 508 545 c 2,23,-1
 508 643 l 1,24,-1
 224 643 l 1,25,-1
 224 395 l 1,26,-1
 459 395 l 2,27,28
 472 395 472 395 472 383 c 2,29,-1
 472 332 l 2,30,31
 472 320 472 320 459 320 c 2,32,-1
 224 320 l 1,33,-1
 224 75 l 1,34,-1
 337 75 l 2,35,36
 349 75 349 75 349 63 c 2,37,-1
 349 12 l 2,38,39
 349 0 349 0 337 0 c 2,0,-1
EndSplineSet
PairPos2: "'kern' Horizontal Kerning lookup 0 per glyph data 1" amacron.alt dx=0 dy=0 dh=-77 dv=0 dx=0 dy=0 dh=0 dv=0
PairPos2: "'kern' Horizontal Kerning lookup 0 per glyph data 1" acircumflex.alt dx=0 dy=0 dh=-77 dv=0 dx=0 dy=0 dh=0 dv=0
PairPos2: "'kern' Horizontal Kerning lookup 0 per glyph data 1" aring.alt dx=0 dy=0 dh=-77 dv=0 dx=0 dy=0 dh=0 dv=0
PairPos2: "'kern' Horizontal Kerning lookup 0 per glyph data 1" ygrave.alt dx=0 dy=0 dh=-51 dv=0 dx=0 dy=0 dh=0 dv=0
PairPos2: "'kern' Horizontal Kerning lookup 0 per glyph data 1" adieresis.alt dx=0 dy=0 dh=-77 dv=0 dx=0 dy=0 dh=0 dv=0
PairPos2: "'kern' Horizontal Kerning lookup 0 per glyph data 1" aogonek.alt dx=0 dy=0 dh=-77 dv=0 dx=0 dy=0 dh=0 dv=0
PairPos2: "'kern' Horizontal Kerning lookup 0 per glyph data 1" ydieresis.alt dx=0 dy=0 dh=-51 dv=0 dx=0 dy=0 dh=0 dv=0
PairPos2: "'kern' Horizontal Kerning lookup 0 per glyph data 1" aacute.alt dx=0 dy=0 dh=-77 dv=0 dx=0 dy=0 dh=0 dv=0
PairPos2: "'kern' Horizontal Kerning lookup 0 per glyph data 1" ycircumflex.alt dx=0 dy=0 dh=-51 dv=0 dx=0 dy=0 dh=0 dv=0
PairPos2: "'kern' Horizontal Kerning lookup 0 per glyph data 1" abreve.alt dx=0 dy=0 dh=-77 dv=0 dx=0 dy=0 dh=0 dv=0
PairPos2: "'kern' Horizontal Kerning lookup 0 per glyph data 1" yacute.alt dx=0 dy=0 dh=-51 dv=0 dx=0 dy=0 dh=0 dv=0
PairPos2: "'kern' Horizontal Kerning lookup 0 per glyph data 1" atilde.alt dx=0 dy=0 dh=-77 dv=0 dx=0 dy=0 dh=0 dv=0
PairPos2: "'kern' Horizontal Kerning lookup 0 per glyph data 1" y.alt dx=0 dy=0 dh=-51 dv=0 dx=0 dy=0 dh=0 dv=0
PairPos2: "'kern' Horizontal Kerning lookup 0 per glyph data 1" a.alt dx=0 dy=0 dh=-77 dv=0 dx=0 dy=0 dh=0 dv=0
PairPos2: "'kern' Horizontal Kerning lookup 0 per glyph data 1" agrave.alt dx=0 dy=0 dh=-77 dv=0 dx=0 dy=0 dh=0 dv=0
PairPos2: "'kern' Horizontal Kerning lookup 0 per glyph data 1" trademark dx=0 dy=0 dh=1 dv=0 dx=0 dy=0 dh=0 dv=0
PairPos2: "'kern' Horizontal Kerning lookup 0 per glyph data 1" ygrave dx=0 dy=0 dh=-49 dv=0 dx=0 dy=0 dh=0 dv=0
PairPos2: "'kern' Horizontal Kerning lookup 0 per glyph data 1" Ygrave dx=0 dy=0 dh=-28 dv=0 dx=0 dy=0 dh=0 dv=0
PairPos2: "'kern' Horizontal Kerning lookup 0 per glyph data 1" Wdieresis dx=0 dy=0 dh=-35 dv=0 dx=0 dy=0 dh=0 dv=0
PairPos2: "'kern' Horizontal Kerning lookup 0 per glyph data 1" Wacute dx=0 dy=0 dh=-35 dv=0 dx=0 dy=0 dh=0 dv=0
PairPos2: "'kern' Horizontal Kerning lookup 0 per glyph data 1" Wgrave dx=0 dy=0 dh=-35 dv=0 dx=0 dy=0 dh=0 dv=0
PairPos2: "'kern' Horizontal Kerning lookup 0 per glyph data 1" Scommaaccent dx=0 dy=0 dh=-15 dv=0 dx=0 dy=0 dh=0 dv=0
PairPos2: "'kern' Horizontal Kerning lookup 0 per glyph data 1" oslashacute dx=0 dy=0 dh=-77 dv=0 dx=0 dy=0 dh=0 dv=0
PairPos2: "'kern' Horizontal Kerning lookup 0 per glyph data 1" Oslashacute dx=0 dy=0 dh=-47 dv=0 dx=0 dy=0 dh=0 dv=0
PairPos2: "'kern' Horizontal Kerning lookup 0 per glyph data 1" aeacute dx=0 dy=0 dh=-90 dv=0 dx=0 dy=0 dh=0 dv=0
PairPos2: "'kern' Horizontal Kerning lookup 0 per glyph data 1" AEacute dx=0 dy=0 dh=-122 dv=0 dx=0 dy=0 dh=0 dv=0
PairPos2: "'kern' Horizontal Kerning lookup 0 per glyph data 1" Ydieresis dx=0 dy=0 dh=-28 dv=0 dx=0 dy=0 dh=0 dv=0
PairPos2: "'kern' Horizontal Kerning lookup 0 per glyph data 1" ycircumflex dx=0 dy=0 dh=-49 dv=0 dx=0 dy=0 dh=0 dv=0
PairPos2: "'kern' Horizontal Kerning lookup 0 per glyph data 1" Ycircumflex dx=0 dy=0 dh=-28 dv=0 dx=0 dy=0 dh=0 dv=0
PairPos2: "'kern' Horizontal Kerning lookup 0 per glyph data 1" Wcircumflex dx=0 dy=0 dh=-35 dv=0 dx=0 dy=0 dh=0 dv=0
PairPos2: "'kern' Horizontal Kerning lookup 0 per glyph data 1" uogonek dx=0 dy=0 dh=-51 dv=0 dx=0 dy=0 dh=0 dv=0
PairPos2: "'kern' Horizontal Kerning lookup 0 per glyph data 1" Uogonek dx=0 dy=0 dh=-6 dv=0 dx=0 dy=0 dh=0 dv=0
PairPos2: "'kern' Horizontal Kerning lookup 0 per glyph data 1" uhungarumlaut dx=0 dy=0 dh=-51 dv=0 dx=0 dy=0 dh=0 dv=0
PairPos2: "'kern' Horizontal Kerning lookup 0 per glyph data 1" Uhungarumlaut dx=0 dy=0 dh=-6 dv=0 dx=0 dy=0 dh=0 dv=0
PairPos2: "'kern' Horizontal Kerning lookup 0 per glyph data 1" uring dx=0 dy=0 dh=-51 dv=0 dx=0 dy=0 dh=0 dv=0
PairPos2: "'kern' Horizontal Kerning lookup 0 per glyph data 1" Uring dx=0 dy=0 dh=-6 dv=0 dx=0 dy=0 dh=0 dv=0
PairPos2: "'kern' Horizontal Kerning lookup 0 per glyph data 1" ubreve dx=0 dy=0 dh=-51 dv=0 dx=0 dy=0 dh=0 dv=0
PairPos2: "'kern' Horizontal Kerning lookup 0 per glyph data 1" Ubreve dx=0 dy=0 dh=-6 dv=0 dx=0 dy=0 dh=0 dv=0
PairPos2: "'kern' Horizontal Kerning lookup 0 per glyph data 1" umacron dx=0 dy=0 dh=-51 dv=0 dx=0 dy=0 dh=0 dv=0
PairPos2: "'kern' Horizontal Kerning lookup 0 per glyph data 1" Umacron dx=0 dy=0 dh=-6 dv=0 dx=0 dy=0 dh=0 dv=0
PairPos2: "'kern' Horizontal Kerning lookup 0 per glyph data 1" utilde dx=0 dy=0 dh=-51 dv=0 dx=0 dy=0 dh=0 dv=0
PairPos2: "'kern' Horizontal Kerning lookup 0 per glyph data 1" Utilde dx=0 dy=0 dh=-6 dv=0 dx=0 dy=0 dh=0 dv=0
PairPos2: "'kern' Horizontal Kerning lookup 0 per glyph data 1" Tbar dx=0 dy=0 dh=-9 dv=0 dx=0 dy=0 dh=0 dv=0
PairPos2: "'kern' Horizontal Kerning lookup 0 per glyph data 1" Tcaron dx=0 dy=0 dh=-9 dv=0 dx=0 dy=0 dh=0 dv=0
PairPos2: "'kern' Horizontal Kerning lookup 0 per glyph data 1" Tcommaaccent dx=0 dy=0 dh=-9 dv=0 dx=0 dy=0 dh=0 dv=0
PairPos2: "'kern' Horizontal Kerning lookup 0 per glyph data 1" Scaron dx=0 dy=0 dh=-15 dv=0 dx=0 dy=0 dh=0 dv=0
PairPos2: "'kern' Horizontal Kerning lookup 0 per glyph data 1" Scedilla dx=0 dy=0 dh=-15 dv=0 dx=0 dy=0 dh=0 dv=0
PairPos2: "'kern' Horizontal Kerning lookup 0 per glyph data 1" Scircumflex dx=0 dy=0 dh=-15 dv=0 dx=0 dy=0 dh=0 dv=0
PairPos2: "'kern' Horizontal Kerning lookup 0 per glyph data 1" Sacute dx=0 dy=0 dh=-15 dv=0 dx=0 dy=0 dh=0 dv=0
PairPos2: "'kern' Horizontal Kerning lookup 0 per glyph data 1" Rcaron dx=0 dy=0 dh=-11 dv=0 dx=0 dy=0 dh=0 dv=0
PairPos2: "'kern' Horizontal Kerning lookup 0 per glyph data 1" Rcommaaccent dx=0 dy=0 dh=-11 dv=0 dx=0 dy=0 dh=0 dv=0
PairPos2: "'kern' Horizontal Kerning lookup 0 per glyph data 1" Racute dx=0 dy=0 dh=-11 dv=0 dx=0 dy=0 dh=0 dv=0
PairPos2: "'kern' Horizontal Kerning lookup 0 per glyph data 1" oe dx=0 dy=0 dh=-77 dv=0 dx=0 dy=0 dh=0 dv=0
PairPos2: "'kern' Horizontal Kerning lookup 0 per glyph data 1" OE dx=0 dy=0 dh=-47 dv=0 dx=0 dy=0 dh=0 dv=0
PairPos2: "'kern' Horizontal Kerning lookup 0 per glyph data 1" ohungarumlaut dx=0 dy=0 dh=-77 dv=0 dx=0 dy=0 dh=0 dv=0
PairPos2: "'kern' Horizontal Kerning lookup 0 per glyph data 1" Ohungarumlaut dx=0 dy=0 dh=-47 dv=0 dx=0 dy=0 dh=0 dv=0
PairPos2: "'kern' Horizontal Kerning lookup 0 per glyph data 1" obreve dx=0 dy=0 dh=-77 dv=0 dx=0 dy=0 dh=0 dv=0
PairPos2: "'kern' Horizontal Kerning lookup 0 per glyph data 1" Obreve dx=0 dy=0 dh=-47 dv=0 dx=0 dy=0 dh=0 dv=0
PairPos2: "'kern' Horizontal Kerning lookup 0 per glyph data 1" omacron dx=0 dy=0 dh=-77 dv=0 dx=0 dy=0 dh=0 dv=0
PairPos2: "'kern' Horizontal Kerning lookup 0 per glyph data 1" Omacron dx=0 dy=0 dh=-47 dv=0 dx=0 dy=0 dh=0 dv=0
PairPos2: "'kern' Horizontal Kerning lookup 0 per glyph data 1" Eng dx=0 dy=0 dh=-11 dv=0 dx=0 dy=0 dh=0 dv=0
PairPos2: "'kern' Horizontal Kerning lookup 0 per glyph data 1" Ncaron dx=0 dy=0 dh=-11 dv=0 dx=0 dy=0 dh=0 dv=0
PairPos2: "'kern' Horizontal Kerning lookup 0 per glyph data 1" Ncommaaccent dx=0 dy=0 dh=-11 dv=0 dx=0 dy=0 dh=0 dv=0
PairPos2: "'kern' Horizontal Kerning lookup 0 per glyph data 1" Nacute dx=0 dy=0 dh=-11 dv=0 dx=0 dy=0 dh=0 dv=0
PairPos2: "'kern' Horizontal Kerning lookup 0 per glyph data 1" Lslash dx=0 dy=0 dh=-11 dv=0 dx=0 dy=0 dh=0 dv=0
PairPos2: "'kern' Horizontal Kerning lookup 0 per glyph data 1" Ldot dx=0 dy=0 dh=-11 dv=0 dx=0 dy=0 dh=0 dv=0
PairPos2: "'kern' Horizontal Kerning lookup 0 per glyph data 1" Lcaron dx=0 dy=0 dh=-11 dv=0 dx=0 dy=0 dh=0 dv=0
PairPos2: "'kern' Horizontal Kerning lookup 0 per glyph data 1" Lcommaaccent dx=0 dy=0 dh=-11 dv=0 dx=0 dy=0 dh=0 dv=0
PairPos2: "'kern' Horizontal Kerning lookup 0 per glyph data 1" Lacute dx=0 dy=0 dh=-11 dv=0 dx=0 dy=0 dh=0 dv=0
PairPos2: "'kern' Horizontal Kerning lookup 0 per glyph data 1" Kcommaaccent dx=0 dy=0 dh=-11 dv=0 dx=0 dy=0 dh=0 dv=0
PairPos2: "'kern' Horizontal Kerning lookup 0 per glyph data 1" jcircumflex dx=0 dy=0 dh=-42 dv=0 dx=0 dy=0 dh=0 dv=0
PairPos2: "'kern' Horizontal Kerning lookup 0 per glyph data 1" Jcircumflex dx=0 dy=0 dh=-111 dv=0 dx=0 dy=0 dh=0 dv=0
PairPos2: "'kern' Horizontal Kerning lookup 0 per glyph data 1" dotlessi dx=0 dy=0 dh=-22 dv=0 dx=0 dy=0 dh=0 dv=0
PairPos2: "'kern' Horizontal Kerning lookup 0 per glyph data 1" Idotaccent dx=0 dy=0 dh=-11 dv=0 dx=0 dy=0 dh=0 dv=0
PairPos2: "'kern' Horizontal Kerning lookup 0 per glyph data 1" iogonek dx=0 dy=0 dh=-22 dv=0 dx=0 dy=0 dh=0 dv=0
PairPos2: "'kern' Horizontal Kerning lookup 0 per glyph data 1" Iogonek dx=0 dy=0 dh=-11 dv=0 dx=0 dy=0 dh=0 dv=0
PairPos2: "'kern' Horizontal Kerning lookup 0 per glyph data 1" Ibreve dx=0 dy=0 dh=-11 dv=0 dx=0 dy=0 dh=0 dv=0
PairPos2: "'kern' Horizontal Kerning lookup 0 per glyph data 1" imacron dx=0 dy=0 dh=-22 dv=0 dx=0 dy=0 dh=0 dv=0
PairPos2: "'kern' Horizontal Kerning lookup 0 per glyph data 1" itilde dx=0 dy=0 dh=-22 dv=0 dx=0 dy=0 dh=0 dv=0
PairPos2: "'kern' Horizontal Kerning lookup 0 per glyph data 1" Itilde dx=0 dy=0 dh=-11 dv=0 dx=0 dy=0 dh=0 dv=0
PairPos2: "'kern' Horizontal Kerning lookup 0 per glyph data 1" Hbar dx=0 dy=0 dh=-11 dv=0 dx=0 dy=0 dh=0 dv=0
PairPos2: "'kern' Horizontal Kerning lookup 0 per glyph data 1" Hcircumflex dx=0 dy=0 dh=-11 dv=0 dx=0 dy=0 dh=0 dv=0
PairPos2: "'kern' Horizontal Kerning lookup 0 per glyph data 1" Gcommaaccent dx=0 dy=0 dh=-47 dv=0 dx=0 dy=0 dh=0 dv=0
PairPos2: "'kern' Horizontal Kerning lookup 0 per glyph data 1" Gdotaccent dx=0 dy=0 dh=-47 dv=0 dx=0 dy=0 dh=0 dv=0
PairPos2: "'kern' Horizontal Kerning lookup 0 per glyph data 1" Gbreve dx=0 dy=0 dh=-47 dv=0 dx=0 dy=0 dh=0 dv=0
PairPos2: "'kern' Horizontal Kerning lookup 0 per glyph data 1" Gcircumflex dx=0 dy=0 dh=-47 dv=0 dx=0 dy=0 dh=0 dv=0
PairPos2: "'kern' Horizontal Kerning lookup 0 per glyph data 1" ecaron dx=0 dy=0 dh=-77 dv=0 dx=0 dy=0 dh=0 dv=0
PairPos2: "'kern' Horizontal Kerning lookup 0 per glyph data 1" Ecaron dx=0 dy=0 dh=-11 dv=0 dx=0 dy=0 dh=0 dv=0
PairPos2: "'kern' Horizontal Kerning lookup 0 per glyph data 1" eogonek dx=0 dy=0 dh=-77 dv=0 dx=0 dy=0 dh=0 dv=0
PairPos2: "'kern' Horizontal Kerning lookup 0 per glyph data 1" Eogonek dx=0 dy=0 dh=-11 dv=0 dx=0 dy=0 dh=0 dv=0
PairPos2: "'kern' Horizontal Kerning lookup 0 per glyph data 1" edotaccent dx=0 dy=0 dh=-77 dv=0 dx=0 dy=0 dh=0 dv=0
PairPos2: "'kern' Horizontal Kerning lookup 0 per glyph data 1" Edotaccent dx=0 dy=0 dh=-11 dv=0 dx=0 dy=0 dh=0 dv=0
PairPos2: "'kern' Horizontal Kerning lookup 0 per glyph data 1" ebreve dx=0 dy=0 dh=-77 dv=0 dx=0 dy=0 dh=0 dv=0
PairPos2: "'kern' Horizontal Kerning lookup 0 per glyph data 1" Ebreve dx=0 dy=0 dh=-11 dv=0 dx=0 dy=0 dh=0 dv=0
PairPos2: "'kern' Horizontal Kerning lookup 0 per glyph data 1" emacron dx=0 dy=0 dh=-77 dv=0 dx=0 dy=0 dh=0 dv=0
PairPos2: "'kern' Horizontal Kerning lookup 0 per glyph data 1" Emacron dx=0 dy=0 dh=-11 dv=0 dx=0 dy=0 dh=0 dv=0
PairPos2: "'kern' Horizontal Kerning lookup 0 per glyph data 1" dcroat dx=0 dy=0 dh=-77 dv=0 dx=0 dy=0 dh=0 dv=0
PairPos2: "'kern' Horizontal Kerning lookup 0 per glyph data 1" Dcroat dx=0 dy=0 dh=-11 dv=0 dx=0 dy=0 dh=0 dv=0
PairPos2: "'kern' Horizontal Kerning lookup 0 per glyph data 1" dcaron dx=0 dy=0 dh=-77 dv=0 dx=0 dy=0 dh=0 dv=0
PairPos2: "'kern' Horizontal Kerning lookup 0 per glyph data 1" Dcaron dx=0 dy=0 dh=-11 dv=0 dx=0 dy=0 dh=0 dv=0
PairPos2: "'kern' Horizontal Kerning lookup 0 per glyph data 1" ccaron dx=0 dy=0 dh=-77 dv=0 dx=0 dy=0 dh=0 dv=0
PairPos2: "'kern' Horizontal Kerning lookup 0 per glyph data 1" Ccaron dx=0 dy=0 dh=-47 dv=0 dx=0 dy=0 dh=0 dv=0
PairPos2: "'kern' Horizontal Kerning lookup 0 per glyph data 1" cdotaccent dx=0 dy=0 dh=-77 dv=0 dx=0 dy=0 dh=0 dv=0
PairPos2: "'kern' Horizontal Kerning lookup 0 per glyph data 1" Cdotaccent dx=0 dy=0 dh=-47 dv=0 dx=0 dy=0 dh=0 dv=0
PairPos2: "'kern' Horizontal Kerning lookup 0 per glyph data 1" ccircumflex dx=0 dy=0 dh=-77 dv=0 dx=0 dy=0 dh=0 dv=0
PairPos2: "'kern' Horizontal Kerning lookup 0 per glyph data 1" Ccircumflex dx=0 dy=0 dh=-47 dv=0 dx=0 dy=0 dh=0 dv=0
PairPos2: "'kern' Horizontal Kerning lookup 0 per glyph data 1" cacute dx=0 dy=0 dh=-77 dv=0 dx=0 dy=0 dh=0 dv=0
PairPos2: "'kern' Horizontal Kerning lookup 0 per glyph data 1" Cacute dx=0 dy=0 dh=-47 dv=0 dx=0 dy=0 dh=0 dv=0
PairPos2: "'kern' Horizontal Kerning lookup 0 per glyph data 1" aogonek dx=0 dy=0 dh=-90 dv=0 dx=0 dy=0 dh=0 dv=0
PairPos2: "'kern' Horizontal Kerning lookup 0 per glyph data 1" Aogonek dx=0 dy=0 dh=-122 dv=0 dx=0 dy=0 dh=0 dv=0
PairPos2: "'kern' Horizontal Kerning lookup 0 per glyph data 1" abreve dx=0 dy=0 dh=-90 dv=0 dx=0 dy=0 dh=0 dv=0
PairPos2: "'kern' Horizontal Kerning lookup 0 per glyph data 1" Abreve dx=0 dy=0 dh=-122 dv=0 dx=0 dy=0 dh=0 dv=0
PairPos2: "'kern' Horizontal Kerning lookup 0 per glyph data 1" amacron dx=0 dy=0 dh=-90 dv=0 dx=0 dy=0 dh=0 dv=0
PairPos2: "'kern' Horizontal Kerning lookup 0 per glyph data 1" Amacron dx=0 dy=0 dh=-122 dv=0 dx=0 dy=0 dh=0 dv=0
PairPos2: "'kern' Horizontal Kerning lookup 0 per glyph data 1" ydieresis dx=0 dy=0 dh=-49 dv=0 dx=0 dy=0 dh=0 dv=0
PairPos2: "'kern' Horizontal Kerning lookup 0 per glyph data 1" yacute dx=0 dy=0 dh=-49 dv=0 dx=0 dy=0 dh=0 dv=0
PairPos2: "'kern' Horizontal Kerning lookup 0 per glyph data 1" udieresis dx=0 dy=0 dh=-51 dv=0 dx=0 dy=0 dh=0 dv=0
PairPos2: "'kern' Horizontal Kerning lookup 0 per glyph data 1" ucircumflex dx=0 dy=0 dh=-51 dv=0 dx=0 dy=0 dh=0 dv=0
PairPos2: "'kern' Horizontal Kerning lookup 0 per glyph data 1" uacute dx=0 dy=0 dh=-51 dv=0 dx=0 dy=0 dh=0 dv=0
PairPos2: "'kern' Horizontal Kerning lookup 0 per glyph data 1" ugrave dx=0 dy=0 dh=-51 dv=0 dx=0 dy=0 dh=0 dv=0
PairPos2: "'kern' Horizontal Kerning lookup 0 per glyph data 1" oslash dx=0 dy=0 dh=-77 dv=0 dx=0 dy=0 dh=0 dv=0
PairPos2: "'kern' Horizontal Kerning lookup 0 per glyph data 1" odieresis dx=0 dy=0 dh=-77 dv=0 dx=0 dy=0 dh=0 dv=0
PairPos2: "'kern' Horizontal Kerning lookup 0 per glyph data 1" otilde dx=0 dy=0 dh=-77 dv=0 dx=0 dy=0 dh=0 dv=0
PairPos2: "'kern' Horizontal Kerning lookup 0 per glyph data 1" ocircumflex dx=0 dy=0 dh=-77 dv=0 dx=0 dy=0 dh=0 dv=0
PairPos2: "'kern' Horizontal Kerning lookup 0 per glyph data 1" oacute dx=0 dy=0 dh=-77 dv=0 dx=0 dy=0 dh=0 dv=0
PairPos2: "'kern' Horizontal Kerning lookup 0 per glyph data 1" ograve dx=0 dy=0 dh=-77 dv=0 dx=0 dy=0 dh=0 dv=0
PairPos2: "'kern' Horizontal Kerning lookup 0 per glyph data 1" idieresis dx=0 dy=0 dh=-22 dv=0 dx=0 dy=0 dh=0 dv=0
PairPos2: "'kern' Horizontal Kerning lookup 0 per glyph data 1" icircumflex dx=0 dy=0 dh=-22 dv=0 dx=0 dy=0 dh=0 dv=0
PairPos2: "'kern' Horizontal Kerning lookup 0 per glyph data 1" iacute dx=0 dy=0 dh=-22 dv=0 dx=0 dy=0 dh=0 dv=0
PairPos2: "'kern' Horizontal Kerning lookup 0 per glyph data 1" igrave dx=0 dy=0 dh=-22 dv=0 dx=0 dy=0 dh=0 dv=0
PairPos2: "'kern' Horizontal Kerning lookup 0 per glyph data 1" edieresis dx=0 dy=0 dh=-77 dv=0 dx=0 dy=0 dh=0 dv=0
PairPos2: "'kern' Horizontal Kerning lookup 0 per glyph data 1" ecircumflex dx=0 dy=0 dh=-77 dv=0 dx=0 dy=0 dh=0 dv=0
PairPos2: "'kern' Horizontal Kerning lookup 0 per glyph data 1" eacute dx=0 dy=0 dh=-77 dv=0 dx=0 dy=0 dh=0 dv=0
PairPos2: "'kern' Horizontal Kerning lookup 0 per glyph data 1" egrave dx=0 dy=0 dh=-77 dv=0 dx=0 dy=0 dh=0 dv=0
PairPos2: "'kern' Horizontal Kerning lookup 0 per glyph data 1" ccedilla dx=0 dy=0 dh=-77 dv=0 dx=0 dy=0 dh=0 dv=0
PairPos2: "'kern' Horizontal Kerning lookup 0 per glyph data 1" ae dx=0 dy=0 dh=-90 dv=0 dx=0 dy=0 dh=0 dv=0
PairPos2: "'kern' Horizontal Kerning lookup 0 per glyph data 1" aring dx=0 dy=0 dh=-90 dv=0 dx=0 dy=0 dh=0 dv=0
PairPos2: "'kern' Horizontal Kerning lookup 0 per glyph data 1" adieresis dx=0 dy=0 dh=-90 dv=0 dx=0 dy=0 dh=0 dv=0
PairPos2: "'kern' Horizontal Kerning lookup 0 per glyph data 1" atilde dx=0 dy=0 dh=-90 dv=0 dx=0 dy=0 dh=0 dv=0
PairPos2: "'kern' Horizontal Kerning lookup 0 per glyph data 1" acircumflex dx=0 dy=0 dh=-90 dv=0 dx=0 dy=0 dh=0 dv=0
PairPos2: "'kern' Horizontal Kerning lookup 0 per glyph data 1" aacute dx=0 dy=0 dh=-90 dv=0 dx=0 dy=0 dh=0 dv=0
PairPos2: "'kern' Horizontal Kerning lookup 0 per glyph data 1" agrave dx=0 dy=0 dh=-90 dv=0 dx=0 dy=0 dh=0 dv=0
PairPos2: "'kern' Horizontal Kerning lookup 0 per glyph data 1" Yacute dx=0 dy=0 dh=-28 dv=0 dx=0 dy=0 dh=0 dv=0
PairPos2: "'kern' Horizontal Kerning lookup 0 per glyph data 1" Udieresis dx=0 dy=0 dh=-6 dv=0 dx=0 dy=0 dh=0 dv=0
PairPos2: "'kern' Horizontal Kerning lookup 0 per glyph data 1" Ucircumflex dx=0 dy=0 dh=-6 dv=0 dx=0 dy=0 dh=0 dv=0
PairPos2: "'kern' Horizontal Kerning lookup 0 per glyph data 1" Uacute dx=0 dy=0 dh=-6 dv=0 dx=0 dy=0 dh=0 dv=0
PairPos2: "'kern' Horizontal Kerning lookup 0 per glyph data 1" Ugrave dx=0 dy=0 dh=-6 dv=0 dx=0 dy=0 dh=0 dv=0
PairPos2: "'kern' Horizontal Kerning lookup 0 per glyph data 1" Oslash dx=0 dy=0 dh=-47 dv=0 dx=0 dy=0 dh=0 dv=0
PairPos2: "'kern' Horizontal Kerning lookup 0 per glyph data 1" Odieresis dx=0 dy=0 dh=-47 dv=0 dx=0 dy=0 dh=0 dv=0
PairPos2: "'kern' Horizontal Kerning lookup 0 per glyph data 1" Otilde dx=0 dy=0 dh=-47 dv=0 dx=0 dy=0 dh=0 dv=0
PairPos2: "'kern' Horizontal Kerning lookup 0 per glyph data 1" Ocircumflex dx=0 dy=0 dh=-47 dv=0 dx=0 dy=0 dh=0 dv=0
PairPos2: "'kern' Horizontal Kerning lookup 0 per glyph data 1" Oacute dx=0 dy=0 dh=-47 dv=0 dx=0 dy=0 dh=0 dv=0
PairPos2: "'kern' Horizontal Kerning lookup 0 per glyph data 1" Ograve dx=0 dy=0 dh=-47 dv=0 dx=0 dy=0 dh=0 dv=0
PairPos2: "'kern' Horizontal Kerning lookup 0 per glyph data 1" Ntilde dx=0 dy=0 dh=-11 dv=0 dx=0 dy=0 dh=0 dv=0
PairPos2: "'kern' Horizontal Kerning lookup 0 per glyph data 1" Eth dx=0 dy=0 dh=-11 dv=0 dx=0 dy=0 dh=0 dv=0
PairPos2: "'kern' Horizontal Kerning lookup 0 per glyph data 1" Idieresis dx=0 dy=0 dh=-11 dv=0 dx=0 dy=0 dh=0 dv=0
PairPos2: "'kern' Horizontal Kerning lookup 0 per glyph data 1" Icircumflex dx=0 dy=0 dh=-11 dv=0 dx=0 dy=0 dh=0 dv=0
PairPos2: "'kern' Horizontal Kerning lookup 0 per glyph data 1" Iacute dx=0 dy=0 dh=-11 dv=0 dx=0 dy=0 dh=0 dv=0
PairPos2: "'kern' Horizontal Kerning lookup 0 per glyph data 1" Igrave dx=0 dy=0 dh=-11 dv=0 dx=0 dy=0 dh=0 dv=0
PairPos2: "'kern' Horizontal Kerning lookup 0 per glyph data 1" Edieresis dx=0 dy=0 dh=-11 dv=0 dx=0 dy=0 dh=0 dv=0
PairPos2: "'kern' Horizontal Kerning lookup 0 per glyph data 1" Ecircumflex dx=0 dy=0 dh=-11 dv=0 dx=0 dy=0 dh=0 dv=0
PairPos2: "'kern' Horizontal Kerning lookup 0 per glyph data 1" Eacute dx=0 dy=0 dh=-11 dv=0 dx=0 dy=0 dh=0 dv=0
PairPos2: "'kern' Horizontal Kerning lookup 0 per glyph data 1" Egrave dx=0 dy=0 dh=-11 dv=0 dx=0 dy=0 dh=0 dv=0
PairPos2: "'kern' Horizontal Kerning lookup 0 per glyph data 1" Ccedilla dx=0 dy=0 dh=-47 dv=0 dx=0 dy=0 dh=0 dv=0
PairPos2: "'kern' Horizontal Kerning lookup 0 per glyph data 1" AE dx=0 dy=0 dh=-122 dv=0 dx=0 dy=0 dh=0 dv=0
PairPos2: "'kern' Horizontal Kerning lookup 0 per glyph data 1" Aring dx=0 dy=0 dh=-122 dv=0 dx=0 dy=0 dh=0 dv=0
PairPos2: "'kern' Horizontal Kerning lookup 0 per glyph data 1" Adieresis dx=0 dy=0 dh=-122 dv=0 dx=0 dy=0 dh=0 dv=0
PairPos2: "'kern' Horizontal Kerning lookup 0 per glyph data 1" Atilde dx=0 dy=0 dh=-122 dv=0 dx=0 dy=0 dh=0 dv=0
PairPos2: "'kern' Horizontal Kerning lookup 0 per glyph data 1" Acircumflex dx=0 dy=0 dh=-122 dv=0 dx=0 dy=0 dh=0 dv=0
PairPos2: "'kern' Horizontal Kerning lookup 0 per glyph data 1" Aacute dx=0 dy=0 dh=-122 dv=0 dx=0 dy=0 dh=0 dv=0
PairPos2: "'kern' Horizontal Kerning lookup 0 per glyph data 1" Agrave dx=0 dy=0 dh=-122 dv=0 dx=0 dy=0 dh=0 dv=0
PairPos2: "'kern' Horizontal Kerning lookup 0 per glyph data 1" y dx=0 dy=0 dh=-49 dv=0 dx=0 dy=0 dh=0 dv=0
PairPos2: "'kern' Horizontal Kerning lookup 0 per glyph data 1" u dx=0 dy=0 dh=-51 dv=0 dx=0 dy=0 dh=0 dv=0
PairPos2: "'kern' Horizontal Kerning lookup 0 per glyph data 1" q dx=0 dy=0 dh=-77 dv=0 dx=0 dy=0 dh=0 dv=0
PairPos2: "'kern' Horizontal Kerning lookup 0 per glyph data 1" o dx=0 dy=0 dh=-77 dv=0 dx=0 dy=0 dh=0 dv=0
PairPos2: "'kern' Horizontal Kerning lookup 0 per glyph data 1" j dx=0 dy=0 dh=-42 dv=0 dx=0 dy=0 dh=0 dv=0
PairPos2: "'kern' Horizontal Kerning lookup 0 per glyph data 1" i dx=0 dy=0 dh=-22 dv=0 dx=0 dy=0 dh=0 dv=0
PairPos2: "'kern' Horizontal Kerning lookup 0 per glyph data 1" e dx=0 dy=0 dh=-77 dv=0 dx=0 dy=0 dh=0 dv=0
PairPos2: "'kern' Horizontal Kerning lookup 0 per glyph data 1" d dx=0 dy=0 dh=-77 dv=0 dx=0 dy=0 dh=0 dv=0
PairPos2: "'kern' Horizontal Kerning lookup 0 per glyph data 1" c dx=0 dy=0 dh=-77 dv=0 dx=0 dy=0 dh=0 dv=0
PairPos2: "'kern' Horizontal Kerning lookup 0 per glyph data 1" a dx=0 dy=0 dh=-90 dv=0 dx=0 dy=0 dh=0 dv=0
PairPos2: "'kern' Horizontal Kerning lookup 0 per glyph data 1" Y dx=0 dy=0 dh=-28 dv=0 dx=0 dy=0 dh=0 dv=0
PairPos2: "'kern' Horizontal Kerning lookup 0 per glyph data 1" X dx=0 dy=0 dh=-2 dv=0 dx=0 dy=0 dh=0 dv=0
PairPos2: "'kern' Horizontal Kerning lookup 0 per glyph data 1" W dx=0 dy=0 dh=-35 dv=0 dx=0 dy=0 dh=0 dv=0
PairPos2: "'kern' Horizontal Kerning lookup 0 per glyph data 1" V dx=0 dy=0 dh=-35 dv=0 dx=0 dy=0 dh=0 dv=0
PairPos2: "'kern' Horizontal Kerning lookup 0 per glyph data 1" U dx=0 dy=0 dh=-6 dv=0 dx=0 dy=0 dh=0 dv=0
PairPos2: "'kern' Horizontal Kerning lookup 0 per glyph data 1" T dx=0 dy=0 dh=-9 dv=0 dx=0 dy=0 dh=0 dv=0
PairPos2: "'kern' Horizontal Kerning lookup 0 per glyph data 1" S dx=0 dy=0 dh=-15 dv=0 dx=0 dy=0 dh=0 dv=0
PairPos2: "'kern' Horizontal Kerning lookup 0 per glyph data 1" R dx=0 dy=0 dh=-11 dv=0 dx=0 dy=0 dh=0 dv=0
PairPos2: "'kern' Horizontal Kerning lookup 0 per glyph data 1" Q dx=0 dy=0 dh=-47 dv=0 dx=0 dy=0 dh=0 dv=0
PairPos2: "'kern' Horizontal Kerning lookup 0 per glyph data 1" P dx=0 dy=0 dh=-11 dv=0 dx=0 dy=0 dh=0 dv=0
PairPos2: "'kern' Horizontal Kerning lookup 0 per glyph data 1" O dx=0 dy=0 dh=-47 dv=0 dx=0 dy=0 dh=0 dv=0
PairPos2: "'kern' Horizontal Kerning lookup 0 per glyph data 1" N dx=0 dy=0 dh=-11 dv=0 dx=0 dy=0 dh=0 dv=0
PairPos2: "'kern' Horizontal Kerning lookup 0 per glyph data 1" M dx=0 dy=0 dh=-11 dv=0 dx=0 dy=0 dh=0 dv=0
PairPos2: "'kern' Horizontal Kerning lookup 0 per glyph data 1" L dx=0 dy=0 dh=-11 dv=0 dx=0 dy=0 dh=0 dv=0
PairPos2: "'kern' Horizontal Kerning lookup 0 per glyph data 1" K dx=0 dy=0 dh=-11 dv=0 dx=0 dy=0 dh=0 dv=0
PairPos2: "'kern' Horizontal Kerning lookup 0 per glyph data 1" J dx=0 dy=0 dh=-111 dv=0 dx=0 dy=0 dh=0 dv=0
PairPos2: "'kern' Horizontal Kerning lookup 0 per glyph data 1" I dx=0 dy=0 dh=-11 dv=0 dx=0 dy=0 dh=0 dv=0
PairPos2: "'kern' Horizontal Kerning lookup 0 per glyph data 1" H dx=0 dy=0 dh=-11 dv=0 dx=0 dy=0 dh=0 dv=0
PairPos2: "'kern' Horizontal Kerning lookup 0 per glyph data 1" G dx=0 dy=0 dh=-47 dv=0 dx=0 dy=0 dh=0 dv=0
PairPos2: "'kern' Horizontal Kerning lookup 0 per glyph data 1" F dx=0 dy=0 dh=-11 dv=0 dx=0 dy=0 dh=0 dv=0
PairPos2: "'kern' Horizontal Kerning lookup 0 per glyph data 1" E dx=0 dy=0 dh=-11 dv=0 dx=0 dy=0 dh=0 dv=0
PairPos2: "'kern' Horizontal Kerning lookup 0 per glyph data 1" D dx=0 dy=0 dh=-11 dv=0 dx=0 dy=0 dh=0 dv=0
PairPos2: "'kern' Horizontal Kerning lookup 0 per glyph data 1" C dx=0 dy=0 dh=-47 dv=0 dx=0 dy=0 dh=0 dv=0
PairPos2: "'kern' Horizontal Kerning lookup 0 per glyph data 1" B dx=0 dy=0 dh=-11 dv=0 dx=0 dy=0 dh=0 dv=0
PairPos2: "'kern' Horizontal Kerning lookup 0 per glyph data 1" A dx=0 dy=0 dh=-122 dv=0 dx=0 dy=0 dh=0 dv=0
PairPos2: "'kern' Horizontal Kerning lookup 0 per glyph data 1" exclam dx=0 dy=0 dh=5 dv=0 dx=0 dy=0 dh=0 dv=0
EndChar

StartChar: G
Encoding: 71 71 42
Width: 750
GlyphClass: 2
Flags: W
LayerCount: 2
Fore
SplineSet
690 0 m 2,0,-1
 637 0 l 2,1,2
 624 0 624 0 624 12 c 2,3,-1
 625 81 l 1,4,5
 537 -7 537 -7 390.5 -7 c 128,-1,6
 244 -7 244 -7 146 95 c 128,-1,7
 48 197 48 197 48 363 c 0,8,9
 48 474 48 474 97.5 558 c 128,-1,10
 147 642 147 642 223.5 683 c 128,-1,11
 300 724 300 724 389 724 c 0,12,13
 542 724 542 724 609 629 c 1,14,-1
 608 706 l 1,15,16
 606 718 606 718 620 718 c 2,17,-1
 676 718 l 2,18,19
 689 718 689 718 689 706 c 2,20,-1
 689 500 l 2,21,22
 689 488 689 488 676 488 c 2,23,-1
 613 488 l 2,24,25
 601 488 601 488 601 500 c 2,26,-1
 601 512 l 2,27,28
 601 556 601 556 540.5 599 c 128,-1,29
 480 642 480 642 386 642 c 128,-1,30
 292 642 292 642 216.5 564.5 c 128,-1,31
 141 487 141 487 141 357.5 c 128,-1,32
 141 228 141 228 217 152.5 c 128,-1,33
 293 77 293 77 387 77 c 128,-1,34
 481 77 481 77 535.5 107 c 128,-1,35
 590 137 590 137 617 178 c 1,36,-1
 617 256 l 1,37,-1
 431 256 l 2,38,39
 419 256 419 256 419 269 c 2,40,-1
 419 315 l 2,41,42
 419 327 419 327 431 327 c 2,43,-1
 690 327 l 2,44,45
 702 327 702 327 702 315 c 2,46,-1
 702 12 l 2,47,48
 702 0 702 0 690 0 c 2,0,-1
EndSplineSet
EndChar

StartChar: H
Encoding: 72 72 43
Width: 820
GlyphClass: 2
Flags: W
LayerCount: 2
Fore
SplineSet
760 0 m 2,0,-1
 519 0 l 2,1,2
 507 0 507 0 507 12 c 2,3,-1
 507 63 l 2,4,5
 507 75 507 75 519 75 c 2,6,-1
 596 75 l 1,7,-1
 596 320 l 1,8,-1
 224 320 l 1,9,-1
 224 75 l 1,10,-1
 301 75 l 2,11,12
 314 75 314 75 314 63 c 2,13,-1
 314 12 l 2,14,15
 314 0 314 0 301 0 c 2,16,-1
 61 0 l 2,17,18
 48 0 48 0 48 12 c 2,19,-1
 48 63 l 2,20,21
 48 75 48 75 61 75 c 2,22,-1
 137 75 l 1,23,-1
 137 643 l 1,24,-1
 61 643 l 2,25,26
 48 643 48 643 48 655 c 2,27,-1
 48 706 l 2,28,29
 48 718 48 718 61 718 c 2,30,-1
 301 718 l 2,31,32
 314 718 314 718 314 706 c 2,33,-1
 314 655 l 2,34,35
 314 643 314 643 301 643 c 2,36,-1
 224 643 l 1,37,-1
 224 393 l 1,38,-1
 596 393 l 1,39,-1
 596 643 l 1,40,-1
 519 643 l 2,41,42
 507 643 507 643 507 655 c 2,43,-1
 507 706 l 2,44,45
 507 718 507 718 519 718 c 2,46,-1
 760 718 l 2,47,48
 772 718 772 718 772 706 c 2,49,-1
 772 655 l 2,50,51
 772 643 772 643 760 643 c 2,52,-1
 683 643 l 1,53,-1
 683 75 l 1,54,-1
 760 75 l 2,55,56
 772 75 772 75 772 63 c 2,57,-1
 772 12 l 2,58,59
 772 0 772 0 760 0 c 2,0,-1
EndSplineSet
EndChar

StartChar: I
Encoding: 73 73 44
Width: 362
GlyphClass: 2
Flags: W
LayerCount: 2
Fore
SplineSet
301 0 m 2,0,-1
 61 0 l 2,1,2
 48 0 48 0 48 12 c 2,3,-1
 48 63 l 2,4,5
 48 75 48 75 61 75 c 2,6,-1
 137 75 l 1,7,-1
 137 643 l 1,8,-1
 61 643 l 2,9,10
 48 643 48 643 48 655 c 2,11,-1
 48 706 l 2,12,13
 48 718 48 718 61 718 c 2,14,-1
 301 718 l 2,15,16
 314 718 314 718 314 706 c 2,17,-1
 314 655 l 2,18,19
 314 643 314 643 301 643 c 2,20,-1
 224 643 l 1,21,-1
 224 75 l 1,22,-1
 301 75 l 2,23,24
 314 75 314 75 314 63 c 2,25,-1
 314 12 l 2,26,27
 314 0 314 0 301 0 c 2,0,-1
EndSplineSet
EndChar

StartChar: J
Encoding: 74 74 45
Width: 484
GlyphClass: 2
Flags: W
LayerCount: 2
Fore
SplineSet
259 262 m 2,0,-1
 259 643 l 1,1,-1
 183 643 l 2,2,3
 170 643 170 643 170 655 c 2,4,-1
 170 706 l 2,5,6
 170 718 170 718 183 718 c 2,7,-1
 423 718 l 2,8,9
 436 718 436 718 436 706 c 2,10,-1
 436 655 l 2,11,12
 436 643 436 643 423 643 c 2,13,-1
 346 643 l 1,14,-1
 346 271 l 2,15,16
 346 124 346 124 277 62 c 128,-1,17
 208 0 208 0 61 0 c 0,18,19
 48 0 48 0 48 12 c 2,20,-1
 48 63 l 2,21,22
 48 75 48 75 61 75 c 0,23,24
 171 75 171 75 215 120.5 c 128,-1,25
 259 166 259 166 259 262 c 2,0,-1
EndSplineSet
EndChar

StartChar: K
Encoding: 75 75 46
Width: 763
GlyphClass: 2
Flags: W
LayerCount: 2
Fore
SplineSet
702 0 m 2,0,-1
 615 0 l 2,1,2
 579 0 579 0 555 48 c 2,3,-1
 461 239 l 2,4,5
 453 255 453 255 446.5 264 c 128,-1,6
 440 273 440 273 418.5 282 c 128,-1,7
 397 291 397 291 365 291 c 2,8,-1
 224 291 l 1,9,-1
 224 75 l 1,10,-1
 316 75 l 2,11,12
 329 75 329 75 329 63 c 2,13,-1
 329 12 l 2,14,15
 329 0 329 0 316 0 c 2,16,-1
 61 0 l 2,17,18
 48 0 48 0 48 12 c 2,19,-1
 48 63 l 2,20,21
 48 75 48 75 61 75 c 2,22,-1
 137 75 l 1,23,-1
 137 643 l 1,24,-1
 61 643 l 2,25,26
 48 643 48 643 48 655 c 2,27,-1
 48 706 l 2,28,29
 48 718 48 718 61 718 c 2,30,-1
 285 718 l 2,31,32
 297 718 297 718 297 706 c 2,33,-1
 297 655 l 2,34,35
 297 643 297 643 285 643 c 2,36,-1
 224 643 l 1,37,-1
 224 362 l 1,38,-1
 329 362 l 2,39,40
 435 362 435 362 486.5 424.5 c 128,-1,41
 538 487 538 487 538 643 c 1,42,-1
 470 643 l 2,43,44
 458 643 458 643 458 655 c 2,45,-1
 458 706 l 2,46,47
 458 718 458 718 470 718 c 2,48,-1
 693 718 l 2,49,50
 705 718 705 718 705 706 c 2,51,-1
 705 655 l 2,52,53
 705 643 705 643 693 643 c 2,54,-1
 624 643 l 1,55,56
 624 402 624 402 488 328 c 1,57,58
 511 317 511 317 524 299.5 c 128,-1,59
 537 282 537 282 554 248 c 2,60,-1
 641 75 l 1,61,-1
 702 75 l 2,62,63
 714 75 714 75 714 63 c 2,64,-1
 714 12 l 2,65,66
 714 0 714 0 702 0 c 2,0,-1
EndSplineSet
EndChar

StartChar: L
Encoding: 76 76 47
Width: 670
GlyphClass: 2
Flags: W
LayerCount: 2
Fore
SplineSet
608 0 m 2,0,-1
 61 0 l 2,1,2
 48 0 48 0 48 12 c 2,3,-1
 48 63 l 2,4,5
 48 75 48 75 61 75 c 2,6,-1
 137 75 l 1,7,-1
 137 643 l 1,8,-1
 61 643 l 2,9,10
 48 643 48 643 48 655 c 2,11,-1
 48 706 l 2,12,13
 48 718 48 718 61 718 c 2,14,-1
 300 718 l 2,15,16
 313 718 313 718 313 705 c 2,17,-1
 313 656 l 2,18,19
 313 643 313 643 300 643 c 2,20,-1
 224 643 l 1,21,-1
 224 75 l 1,22,-1
 542 75 l 1,23,-1
 542 173 l 2,24,25
 542 185 542 185 555 185 c 2,26,-1
 609 185 l 2,27,28
 621 185 621 185 621 173 c 2,29,-1
 621 13 l 2,30,31
 621 0 621 0 608 0 c 2,0,-1
EndSplineSet
EndChar

StartChar: M
Encoding: 77 77 48
Width: 919
GlyphClass: 2
Flags: W
LayerCount: 2
Fore
SplineSet
859 0 m 2,0,-1
 628 0 l 2,1,2
 616 0 616 0 616 12 c 2,3,-1
 616 63 l 2,4,5
 616 75 616 75 628 75 c 2,6,-1
 695 75 l 1,7,-1
 695 573 l 1,8,-1
 694 573 l 1,9,-1
 504 101 l 2,10,11
 492 71 492 71 460 71 c 128,-1,12
 428 71 428 71 416 101 c 2,13,-1
 226 573 l 1,14,-1
 224 573 l 1,15,-1
 224 75 l 1,16,-1
 291 75 l 2,17,18
 304 75 304 75 304 63 c 2,19,-1
 304 12 l 2,20,21
 304 0 304 0 291 0 c 2,22,-1
 61 0 l 2,23,24
 48 0 48 0 48 12 c 2,25,-1
 48 63 l 2,26,27
 48 75 48 75 61 75 c 2,28,-1
 137 75 l 1,29,-1
 137 643 l 1,30,-1
 61 643 l 2,31,32
 48 643 48 643 48 655 c 2,33,-1
 48 706 l 2,34,35
 48 718 48 718 61 718 c 2,36,-1
 215 718 l 2,37,38
 249 718 249 718 262 684 c 2,39,-1
 411 324 l 1,40,-1
 458 198 l 1,41,-1
 462 198 l 1,42,43
 490 276 490 276 508 322 c 2,44,-1
 658 684 l 1,45,46
 671 718 671 718 706 718 c 2,47,-1
 859 718 l 2,48,49
 871 718 871 718 871 706 c 2,50,-1
 871 655 l 2,51,52
 871 643 871 643 859 643 c 2,53,-1
 782 643 l 1,54,-1
 782 75 l 1,55,-1
 859 75 l 2,56,57
 871 75 871 75 871 63 c 2,58,-1
 871 12 l 2,59,60
 871 0 871 0 859 0 c 2,0,-1
EndSplineSet
EndChar

StartChar: N
Encoding: 78 78 49
Width: 820
GlyphClass: 2
Flags: W
LayerCount: 2
Fore
SplineSet
670 0 m 2,0,-1
 616 0 l 2,1,2
 597 0 597 0 586 7.5 c 128,-1,3
 575 15 575 15 565 31 c 2,4,-1
 276 483 l 1,5,-1
 226 567 l 1,6,-1
 224 567 l 1,7,-1
 224 75 l 1,8,-1
 301 75 l 2,9,10
 314 75 314 75 314 63 c 2,11,-1
 314 12 l 2,12,13
 314 0 314 0 301 0 c 2,14,-1
 61 0 l 2,15,16
 48 0 48 0 48 12 c 2,17,-1
 48 63 l 2,18,19
 48 75 48 75 61 75 c 2,20,-1
 137 75 l 1,21,-1
 137 643 l 1,22,-1
 61 643 l 2,23,24
 48 643 48 643 48 655 c 2,25,-1
 48 706 l 2,26,27
 48 718 48 718 61 718 c 2,28,-1
 201 718 l 2,29,30
 230 718 230 718 252 684 c 2,31,-1
 537 238 l 1,32,-1
 594 141 l 1,33,-1
 596 141 l 1,34,-1
 596 643 l 1,35,-1
 519 643 l 2,36,37
 507 643 507 643 507 655 c 2,38,-1
 507 706 l 2,39,40
 507 718 507 718 519 718 c 2,41,-1
 760 718 l 2,42,43
 772 718 772 718 772 706 c 2,44,-1
 772 655 l 2,45,46
 772 643 772 643 760 643 c 2,47,-1
 683 643 l 1,48,-1
 683 12 l 2,49,50
 683 0 683 0 670 0 c 2,0,-1
EndSplineSet
EndChar

StartChar: O
Encoding: 79 79 50
Width: 793
GlyphClass: 2
Flags: W
LayerCount: 2
Fore
SplineSet
645.5 95.5 m 128,-1,1
 547 -7 547 -7 397.5 -7 c 128,-1,2
 248 -7 248 -7 148 96.5 c 128,-1,3
 48 200 48 200 48 363.5 c 128,-1,4
 48 527 48 527 151 625.5 c 128,-1,5
 254 724 254 724 397 724 c 128,-1,6
 540 724 540 724 642 625.5 c 128,-1,7
 744 527 744 527 744 362.5 c 128,-1,0
 744 198 744 198 645.5 95.5 c 128,-1,1
397 74 m 128,-1,9
 499 74 499 74 575 150.5 c 128,-1,10
 651 227 651 227 651 360.5 c 128,-1,11
 651 494 651 494 573.5 569.5 c 128,-1,12
 496 645 496 645 397 645 c 128,-1,13
 298 645 298 645 220 569.5 c 128,-1,14
 142 494 142 494 142 360.5 c 128,-1,15
 142 227 142 227 218.5 150.5 c 128,-1,8
 295 74 295 74 397 74 c 128,-1,9
EndSplineSet
EndChar

StartChar: P
Encoding: 80 80 51
Width: 658
GlyphClass: 2
Flags: W
LayerCount: 2
Fore
SplineSet
322 0 m 2,0,-1
 61 0 l 2,1,2
 48 0 48 0 48 12 c 2,3,-1
 48 63 l 2,4,5
 48 75 48 75 61 75 c 2,6,-1
 137 75 l 1,7,-1
 137 643 l 1,8,-1
 61 643 l 2,9,10
 48 643 48 643 48 655 c 2,11,-1
 48 706 l 2,12,13
 48 718 48 718 61 718 c 2,14,-1
 369 718 l 2,15,16
 475 718 475 718 542.5 656.5 c 128,-1,17
 610 595 610 595 610 490.5 c 128,-1,18
 610 386 610 386 544 328.5 c 128,-1,19
 478 271 478 271 358 271 c 2,20,-1
 224 271 l 1,21,-1
 224 75 l 1,22,-1
 322 75 l 2,23,24
 334 75 334 75 334 63 c 2,25,-1
 334 12 l 2,26,27
 334 0 334 0 322 0 c 2,0,-1
224 342 m 1,28,-1
 354 342 l 2,29,30
 522 342 522 342 522 490 c 0,31,32
 522 567 522 567 474.5 605 c 128,-1,33
 427 643 427 643 355 643 c 2,34,-1
 224 643 l 1,35,-1
 224 342 l 1,28,-1
EndSplineSet
PairPos2: "'kern' Horizontal Kerning lookup 0 per glyph data 1" amacron.alt dx=0 dy=0 dh=-55 dv=0 dx=0 dy=0 dh=0 dv=0
PairPos2: "'kern' Horizontal Kerning lookup 0 per glyph data 1" acircumflex.alt dx=0 dy=0 dh=-55 dv=0 dx=0 dy=0 dh=0 dv=0
PairPos2: "'kern' Horizontal Kerning lookup 0 per glyph data 1" aring.alt dx=0 dy=0 dh=-55 dv=0 dx=0 dy=0 dh=0 dv=0
PairPos2: "'kern' Horizontal Kerning lookup 0 per glyph data 1" ygrave.alt dx=0 dy=0 dh=-20 dv=0 dx=0 dy=0 dh=0 dv=0
PairPos2: "'kern' Horizontal Kerning lookup 0 per glyph data 1" adieresis.alt dx=0 dy=0 dh=-55 dv=0 dx=0 dy=0 dh=0 dv=0
PairPos2: "'kern' Horizontal Kerning lookup 0 per glyph data 1" aogonek.alt dx=0 dy=0 dh=-55 dv=0 dx=0 dy=0 dh=0 dv=0
PairPos2: "'kern' Horizontal Kerning lookup 0 per glyph data 1" ydieresis.alt dx=0 dy=0 dh=-20 dv=0 dx=0 dy=0 dh=0 dv=0
PairPos2: "'kern' Horizontal Kerning lookup 0 per glyph data 1" aacute.alt dx=0 dy=0 dh=-55 dv=0 dx=0 dy=0 dh=0 dv=0
PairPos2: "'kern' Horizontal Kerning lookup 0 per glyph data 1" ycircumflex.alt dx=0 dy=0 dh=-20 dv=0 dx=0 dy=0 dh=0 dv=0
PairPos2: "'kern' Horizontal Kerning lookup 0 per glyph data 1" abreve.alt dx=0 dy=0 dh=-55 dv=0 dx=0 dy=0 dh=0 dv=0
PairPos2: "'kern' Horizontal Kerning lookup 0 per glyph data 1" yacute.alt dx=0 dy=0 dh=-20 dv=0 dx=0 dy=0 dh=0 dv=0
PairPos2: "'kern' Horizontal Kerning lookup 0 per glyph data 1" atilde.alt dx=0 dy=0 dh=-55 dv=0 dx=0 dy=0 dh=0 dv=0
PairPos2: "'kern' Horizontal Kerning lookup 0 per glyph data 1" y.alt dx=0 dy=0 dh=-20 dv=0 dx=0 dy=0 dh=0 dv=0
PairPos2: "'kern' Horizontal Kerning lookup 0 per glyph data 1" a.alt dx=0 dy=0 dh=-55 dv=0 dx=0 dy=0 dh=0 dv=0
PairPos2: "'kern' Horizontal Kerning lookup 0 per glyph data 1" agrave.alt dx=0 dy=0 dh=-55 dv=0 dx=0 dy=0 dh=0 dv=0
PairPos2: "'kern' Horizontal Kerning lookup 0 per glyph data 1" minus dx=0 dy=0 dh=-46 dv=0 dx=0 dy=0 dh=0 dv=0
PairPos2: "'kern' Horizontal Kerning lookup 0 per glyph data 1" ellipsis dx=0 dy=0 dh=-66 dv=0 dx=0 dy=0 dh=0 dv=0
PairPos2: "'kern' Horizontal Kerning lookup 0 per glyph data 1" emdash dx=0 dy=0 dh=-46 dv=0 dx=0 dy=0 dh=0 dv=0
PairPos2: "'kern' Horizontal Kerning lookup 0 per glyph data 1" endash dx=0 dy=0 dh=-46 dv=0 dx=0 dy=0 dh=0 dv=0
PairPos2: "'kern' Horizontal Kerning lookup 0 per glyph data 1" ygrave dx=0 dy=0 dh=-5 dv=0 dx=0 dy=0 dh=0 dv=0
PairPos2: "'kern' Horizontal Kerning lookup 0 per glyph data 1" Ygrave dx=0 dy=0 dh=-64 dv=0 dx=0 dy=0 dh=0 dv=0
PairPos2: "'kern' Horizontal Kerning lookup 0 per glyph data 1" Wdieresis dx=0 dy=0 dh=-64 dv=0 dx=0 dy=0 dh=0 dv=0
PairPos2: "'kern' Horizontal Kerning lookup 0 per glyph data 1" Wacute dx=0 dy=0 dh=-64 dv=0 dx=0 dy=0 dh=0 dv=0
PairPos2: "'kern' Horizontal Kerning lookup 0 per glyph data 1" Wgrave dx=0 dy=0 dh=-64 dv=0 dx=0 dy=0 dh=0 dv=0
PairPos2: "'kern' Horizontal Kerning lookup 0 per glyph data 1" Scommaaccent dx=0 dy=0 dh=-4 dv=0 dx=0 dy=0 dh=0 dv=0
PairPos2: "'kern' Horizontal Kerning lookup 0 per glyph data 1" oslashacute dx=0 dy=0 dh=-55 dv=0 dx=0 dy=0 dh=0 dv=0
PairPos2: "'kern' Horizontal Kerning lookup 0 per glyph data 1" Oslashacute dx=0 dy=0 dh=-16 dv=0 dx=0 dy=0 dh=0 dv=0
PairPos2: "'kern' Horizontal Kerning lookup 0 per glyph data 1" aeacute dx=0 dy=0 dh=-51 dv=0 dx=0 dy=0 dh=0 dv=0
PairPos2: "'kern' Horizontal Kerning lookup 0 per glyph data 1" AEacute dx=0 dy=0 dh=-145 dv=0 dx=0 dy=0 dh=0 dv=0
PairPos2: "'kern' Horizontal Kerning lookup 0 per glyph data 1" Zcaron dx=0 dy=0 dh=-9 dv=0 dx=0 dy=0 dh=0 dv=0
PairPos2: "'kern' Horizontal Kerning lookup 0 per glyph data 1" Zdotaccent dx=0 dy=0 dh=-9 dv=0 dx=0 dy=0 dh=0 dv=0
PairPos2: "'kern' Horizontal Kerning lookup 0 per glyph data 1" Zacute dx=0 dy=0 dh=-9 dv=0 dx=0 dy=0 dh=0 dv=0
PairPos2: "'kern' Horizontal Kerning lookup 0 per glyph data 1" Ydieresis dx=0 dy=0 dh=-64 dv=0 dx=0 dy=0 dh=0 dv=0
PairPos2: "'kern' Horizontal Kerning lookup 0 per glyph data 1" ycircumflex dx=0 dy=0 dh=-5 dv=0 dx=0 dy=0 dh=0 dv=0
PairPos2: "'kern' Horizontal Kerning lookup 0 per glyph data 1" Ycircumflex dx=0 dy=0 dh=-64 dv=0 dx=0 dy=0 dh=0 dv=0
PairPos2: "'kern' Horizontal Kerning lookup 0 per glyph data 1" Wcircumflex dx=0 dy=0 dh=-64 dv=0 dx=0 dy=0 dh=0 dv=0
PairPos2: "'kern' Horizontal Kerning lookup 0 per glyph data 1" uogonek dx=0 dy=0 dh=-20 dv=0 dx=0 dy=0 dh=0 dv=0
PairPos2: "'kern' Horizontal Kerning lookup 0 per glyph data 1" Uogonek dx=0 dy=0 dh=-52 dv=0 dx=0 dy=0 dh=0 dv=0
PairPos2: "'kern' Horizontal Kerning lookup 0 per glyph data 1" uhungarumlaut dx=0 dy=0 dh=-20 dv=0 dx=0 dy=0 dh=0 dv=0
PairPos2: "'kern' Horizontal Kerning lookup 0 per glyph data 1" Uhungarumlaut dx=0 dy=0 dh=-52 dv=0 dx=0 dy=0 dh=0 dv=0
PairPos2: "'kern' Horizontal Kerning lookup 0 per glyph data 1" uring dx=0 dy=0 dh=-20 dv=0 dx=0 dy=0 dh=0 dv=0
PairPos2: "'kern' Horizontal Kerning lookup 0 per glyph data 1" Uring dx=0 dy=0 dh=-52 dv=0 dx=0 dy=0 dh=0 dv=0
PairPos2: "'kern' Horizontal Kerning lookup 0 per glyph data 1" ubreve dx=0 dy=0 dh=-20 dv=0 dx=0 dy=0 dh=0 dv=0
PairPos2: "'kern' Horizontal Kerning lookup 0 per glyph data 1" Ubreve dx=0 dy=0 dh=-52 dv=0 dx=0 dy=0 dh=0 dv=0
PairPos2: "'kern' Horizontal Kerning lookup 0 per glyph data 1" umacron dx=0 dy=0 dh=-20 dv=0 dx=0 dy=0 dh=0 dv=0
PairPos2: "'kern' Horizontal Kerning lookup 0 per glyph data 1" Umacron dx=0 dy=0 dh=-52 dv=0 dx=0 dy=0 dh=0 dv=0
PairPos2: "'kern' Horizontal Kerning lookup 0 per glyph data 1" utilde dx=0 dy=0 dh=-20 dv=0 dx=0 dy=0 dh=0 dv=0
PairPos2: "'kern' Horizontal Kerning lookup 0 per glyph data 1" Utilde dx=0 dy=0 dh=-52 dv=0 dx=0 dy=0 dh=0 dv=0
PairPos2: "'kern' Horizontal Kerning lookup 0 per glyph data 1" Tbar dx=0 dy=0 dh=-9 dv=0 dx=0 dy=0 dh=0 dv=0
PairPos2: "'kern' Horizontal Kerning lookup 0 per glyph data 1" Tcaron dx=0 dy=0 dh=-9 dv=0 dx=0 dy=0 dh=0 dv=0
PairPos2: "'kern' Horizontal Kerning lookup 0 per glyph data 1" Tcommaaccent dx=0 dy=0 dh=-9 dv=0 dx=0 dy=0 dh=0 dv=0
PairPos2: "'kern' Horizontal Kerning lookup 0 per glyph data 1" Scaron dx=0 dy=0 dh=-4 dv=0 dx=0 dy=0 dh=0 dv=0
PairPos2: "'kern' Horizontal Kerning lookup 0 per glyph data 1" Scedilla dx=0 dy=0 dh=-4 dv=0 dx=0 dy=0 dh=0 dv=0
PairPos2: "'kern' Horizontal Kerning lookup 0 per glyph data 1" Scircumflex dx=0 dy=0 dh=-4 dv=0 dx=0 dy=0 dh=0 dv=0
PairPos2: "'kern' Horizontal Kerning lookup 0 per glyph data 1" Sacute dx=0 dy=0 dh=-4 dv=0 dx=0 dy=0 dh=0 dv=0
PairPos2: "'kern' Horizontal Kerning lookup 0 per glyph data 1" rcaron dx=0 dy=0 dh=-18 dv=0 dx=0 dy=0 dh=0 dv=0
PairPos2: "'kern' Horizontal Kerning lookup 0 per glyph data 1" Rcaron dx=0 dy=0 dh=-43 dv=0 dx=0 dy=0 dh=0 dv=0
PairPos2: "'kern' Horizontal Kerning lookup 0 per glyph data 1" rcommaaccent dx=0 dy=0 dh=-18 dv=0 dx=0 dy=0 dh=0 dv=0
PairPos2: "'kern' Horizontal Kerning lookup 0 per glyph data 1" Rcommaaccent dx=0 dy=0 dh=-43 dv=0 dx=0 dy=0 dh=0 dv=0
PairPos2: "'kern' Horizontal Kerning lookup 0 per glyph data 1" racute dx=0 dy=0 dh=-18 dv=0 dx=0 dy=0 dh=0 dv=0
PairPos2: "'kern' Horizontal Kerning lookup 0 per glyph data 1" Racute dx=0 dy=0 dh=-43 dv=0 dx=0 dy=0 dh=0 dv=0
PairPos2: "'kern' Horizontal Kerning lookup 0 per glyph data 1" oe dx=0 dy=0 dh=-55 dv=0 dx=0 dy=0 dh=0 dv=0
PairPos2: "'kern' Horizontal Kerning lookup 0 per glyph data 1" OE dx=0 dy=0 dh=-16 dv=0 dx=0 dy=0 dh=0 dv=0
PairPos2: "'kern' Horizontal Kerning lookup 0 per glyph data 1" ohungarumlaut dx=0 dy=0 dh=-55 dv=0 dx=0 dy=0 dh=0 dv=0
PairPos2: "'kern' Horizontal Kerning lookup 0 per glyph data 1" Ohungarumlaut dx=0 dy=0 dh=-16 dv=0 dx=0 dy=0 dh=0 dv=0
PairPos2: "'kern' Horizontal Kerning lookup 0 per glyph data 1" obreve dx=0 dy=0 dh=-55 dv=0 dx=0 dy=0 dh=0 dv=0
PairPos2: "'kern' Horizontal Kerning lookup 0 per glyph data 1" Obreve dx=0 dy=0 dh=-16 dv=0 dx=0 dy=0 dh=0 dv=0
PairPos2: "'kern' Horizontal Kerning lookup 0 per glyph data 1" omacron dx=0 dy=0 dh=-55 dv=0 dx=0 dy=0 dh=0 dv=0
PairPos2: "'kern' Horizontal Kerning lookup 0 per glyph data 1" Omacron dx=0 dy=0 dh=-16 dv=0 dx=0 dy=0 dh=0 dv=0
PairPos2: "'kern' Horizontal Kerning lookup 0 per glyph data 1" Eng dx=0 dy=0 dh=-43 dv=0 dx=0 dy=0 dh=0 dv=0
PairPos2: "'kern' Horizontal Kerning lookup 0 per glyph data 1" ncaron dx=0 dy=0 dh=-18 dv=0 dx=0 dy=0 dh=0 dv=0
PairPos2: "'kern' Horizontal Kerning lookup 0 per glyph data 1" Ncaron dx=0 dy=0 dh=-43 dv=0 dx=0 dy=0 dh=0 dv=0
PairPos2: "'kern' Horizontal Kerning lookup 0 per glyph data 1" ncommaaccent dx=0 dy=0 dh=-18 dv=0 dx=0 dy=0 dh=0 dv=0
PairPos2: "'kern' Horizontal Kerning lookup 0 per glyph data 1" Ncommaaccent dx=0 dy=0 dh=-43 dv=0 dx=0 dy=0 dh=0 dv=0
PairPos2: "'kern' Horizontal Kerning lookup 0 per glyph data 1" nacute dx=0 dy=0 dh=-18 dv=0 dx=0 dy=0 dh=0 dv=0
PairPos2: "'kern' Horizontal Kerning lookup 0 per glyph data 1" Nacute dx=0 dy=0 dh=-43 dv=0 dx=0 dy=0 dh=0 dv=0
PairPos2: "'kern' Horizontal Kerning lookup 0 per glyph data 1" Lslash dx=0 dy=0 dh=-43 dv=0 dx=0 dy=0 dh=0 dv=0
PairPos2: "'kern' Horizontal Kerning lookup 0 per glyph data 1" Ldot dx=0 dy=0 dh=-43 dv=0 dx=0 dy=0 dh=0 dv=0
PairPos2: "'kern' Horizontal Kerning lookup 0 per glyph data 1" Lcaron dx=0 dy=0 dh=-43 dv=0 dx=0 dy=0 dh=0 dv=0
PairPos2: "'kern' Horizontal Kerning lookup 0 per glyph data 1" Lcommaaccent dx=0 dy=0 dh=-43 dv=0 dx=0 dy=0 dh=0 dv=0
PairPos2: "'kern' Horizontal Kerning lookup 0 per glyph data 1" Lacute dx=0 dy=0 dh=-43 dv=0 dx=0 dy=0 dh=0 dv=0
PairPos2: "'kern' Horizontal Kerning lookup 0 per glyph data 1" Kcommaaccent dx=0 dy=0 dh=-43 dv=0 dx=0 dy=0 dh=0 dv=0
PairPos2: "'kern' Horizontal Kerning lookup 0 per glyph data 1" jcircumflex dx=0 dy=0 dh=-96 dv=0 dx=0 dy=0 dh=0 dv=0
PairPos2: "'kern' Horizontal Kerning lookup 0 per glyph data 1" Jcircumflex dx=0 dy=0 dh=-122 dv=0 dx=0 dy=0 dh=0 dv=0
PairPos2: "'kern' Horizontal Kerning lookup 0 per glyph data 1" dotlessi dx=0 dy=0 dh=-4 dv=0 dx=0 dy=0 dh=0 dv=0
PairPos2: "'kern' Horizontal Kerning lookup 0 per glyph data 1" Idotaccent dx=0 dy=0 dh=-43 dv=0 dx=0 dy=0 dh=0 dv=0
PairPos2: "'kern' Horizontal Kerning lookup 0 per glyph data 1" iogonek dx=0 dy=0 dh=-4 dv=0 dx=0 dy=0 dh=0 dv=0
PairPos2: "'kern' Horizontal Kerning lookup 0 per glyph data 1" Iogonek dx=0 dy=0 dh=-43 dv=0 dx=0 dy=0 dh=0 dv=0
PairPos2: "'kern' Horizontal Kerning lookup 0 per glyph data 1" Ibreve dx=0 dy=0 dh=-43 dv=0 dx=0 dy=0 dh=0 dv=0
PairPos2: "'kern' Horizontal Kerning lookup 0 per glyph data 1" imacron dx=0 dy=0 dh=-4 dv=0 dx=0 dy=0 dh=0 dv=0
PairPos2: "'kern' Horizontal Kerning lookup 0 per glyph data 1" itilde dx=0 dy=0 dh=-4 dv=0 dx=0 dy=0 dh=0 dv=0
PairPos2: "'kern' Horizontal Kerning lookup 0 per glyph data 1" Itilde dx=0 dy=0 dh=-43 dv=0 dx=0 dy=0 dh=0 dv=0
PairPos2: "'kern' Horizontal Kerning lookup 0 per glyph data 1" Hbar dx=0 dy=0 dh=-43 dv=0 dx=0 dy=0 dh=0 dv=0
PairPos2: "'kern' Horizontal Kerning lookup 0 per glyph data 1" Hcircumflex dx=0 dy=0 dh=-43 dv=0 dx=0 dy=0 dh=0 dv=0
PairPos2: "'kern' Horizontal Kerning lookup 0 per glyph data 1" Gcommaaccent dx=0 dy=0 dh=-16 dv=0 dx=0 dy=0 dh=0 dv=0
PairPos2: "'kern' Horizontal Kerning lookup 0 per glyph data 1" Gdotaccent dx=0 dy=0 dh=-16 dv=0 dx=0 dy=0 dh=0 dv=0
PairPos2: "'kern' Horizontal Kerning lookup 0 per glyph data 1" Gbreve dx=0 dy=0 dh=-16 dv=0 dx=0 dy=0 dh=0 dv=0
PairPos2: "'kern' Horizontal Kerning lookup 0 per glyph data 1" Gcircumflex dx=0 dy=0 dh=-16 dv=0 dx=0 dy=0 dh=0 dv=0
PairPos2: "'kern' Horizontal Kerning lookup 0 per glyph data 1" ecaron dx=0 dy=0 dh=-55 dv=0 dx=0 dy=0 dh=0 dv=0
PairPos2: "'kern' Horizontal Kerning lookup 0 per glyph data 1" Ecaron dx=0 dy=0 dh=-43 dv=0 dx=0 dy=0 dh=0 dv=0
PairPos2: "'kern' Horizontal Kerning lookup 0 per glyph data 1" eogonek dx=0 dy=0 dh=-55 dv=0 dx=0 dy=0 dh=0 dv=0
PairPos2: "'kern' Horizontal Kerning lookup 0 per glyph data 1" Eogonek dx=0 dy=0 dh=-43 dv=0 dx=0 dy=0 dh=0 dv=0
PairPos2: "'kern' Horizontal Kerning lookup 0 per glyph data 1" edotaccent dx=0 dy=0 dh=-55 dv=0 dx=0 dy=0 dh=0 dv=0
PairPos2: "'kern' Horizontal Kerning lookup 0 per glyph data 1" Edotaccent dx=0 dy=0 dh=-43 dv=0 dx=0 dy=0 dh=0 dv=0
PairPos2: "'kern' Horizontal Kerning lookup 0 per glyph data 1" ebreve dx=0 dy=0 dh=-55 dv=0 dx=0 dy=0 dh=0 dv=0
PairPos2: "'kern' Horizontal Kerning lookup 0 per glyph data 1" Ebreve dx=0 dy=0 dh=-43 dv=0 dx=0 dy=0 dh=0 dv=0
PairPos2: "'kern' Horizontal Kerning lookup 0 per glyph data 1" emacron dx=0 dy=0 dh=-55 dv=0 dx=0 dy=0 dh=0 dv=0
PairPos2: "'kern' Horizontal Kerning lookup 0 per glyph data 1" Emacron dx=0 dy=0 dh=-43 dv=0 dx=0 dy=0 dh=0 dv=0
PairPos2: "'kern' Horizontal Kerning lookup 0 per glyph data 1" dcroat dx=0 dy=0 dh=-55 dv=0 dx=0 dy=0 dh=0 dv=0
PairPos2: "'kern' Horizontal Kerning lookup 0 per glyph data 1" Dcroat dx=0 dy=0 dh=-43 dv=0 dx=0 dy=0 dh=0 dv=0
PairPos2: "'kern' Horizontal Kerning lookup 0 per glyph data 1" dcaron dx=0 dy=0 dh=-55 dv=0 dx=0 dy=0 dh=0 dv=0
PairPos2: "'kern' Horizontal Kerning lookup 0 per glyph data 1" Dcaron dx=0 dy=0 dh=-43 dv=0 dx=0 dy=0 dh=0 dv=0
PairPos2: "'kern' Horizontal Kerning lookup 0 per glyph data 1" ccaron dx=0 dy=0 dh=-55 dv=0 dx=0 dy=0 dh=0 dv=0
PairPos2: "'kern' Horizontal Kerning lookup 0 per glyph data 1" Ccaron dx=0 dy=0 dh=-16 dv=0 dx=0 dy=0 dh=0 dv=0
PairPos2: "'kern' Horizontal Kerning lookup 0 per glyph data 1" cdotaccent dx=0 dy=0 dh=-55 dv=0 dx=0 dy=0 dh=0 dv=0
PairPos2: "'kern' Horizontal Kerning lookup 0 per glyph data 1" Cdotaccent dx=0 dy=0 dh=-16 dv=0 dx=0 dy=0 dh=0 dv=0
PairPos2: "'kern' Horizontal Kerning lookup 0 per glyph data 1" ccircumflex dx=0 dy=0 dh=-55 dv=0 dx=0 dy=0 dh=0 dv=0
PairPos2: "'kern' Horizontal Kerning lookup 0 per glyph data 1" Ccircumflex dx=0 dy=0 dh=-16 dv=0 dx=0 dy=0 dh=0 dv=0
PairPos2: "'kern' Horizontal Kerning lookup 0 per glyph data 1" cacute dx=0 dy=0 dh=-55 dv=0 dx=0 dy=0 dh=0 dv=0
PairPos2: "'kern' Horizontal Kerning lookup 0 per glyph data 1" Cacute dx=0 dy=0 dh=-16 dv=0 dx=0 dy=0 dh=0 dv=0
PairPos2: "'kern' Horizontal Kerning lookup 0 per glyph data 1" aogonek dx=0 dy=0 dh=-51 dv=0 dx=0 dy=0 dh=0 dv=0
PairPos2: "'kern' Horizontal Kerning lookup 0 per glyph data 1" Aogonek dx=0 dy=0 dh=-145 dv=0 dx=0 dy=0 dh=0 dv=0
PairPos2: "'kern' Horizontal Kerning lookup 0 per glyph data 1" abreve dx=0 dy=0 dh=-51 dv=0 dx=0 dy=0 dh=0 dv=0
PairPos2: "'kern' Horizontal Kerning lookup 0 per glyph data 1" Abreve dx=0 dy=0 dh=-145 dv=0 dx=0 dy=0 dh=0 dv=0
PairPos2: "'kern' Horizontal Kerning lookup 0 per glyph data 1" amacron dx=0 dy=0 dh=-51 dv=0 dx=0 dy=0 dh=0 dv=0
PairPos2: "'kern' Horizontal Kerning lookup 0 per glyph data 1" Amacron dx=0 dy=0 dh=-145 dv=0 dx=0 dy=0 dh=0 dv=0
PairPos2: "'kern' Horizontal Kerning lookup 0 per glyph data 1" ydieresis dx=0 dy=0 dh=-5 dv=0 dx=0 dy=0 dh=0 dv=0
PairPos2: "'kern' Horizontal Kerning lookup 0 per glyph data 1" yacute dx=0 dy=0 dh=-5 dv=0 dx=0 dy=0 dh=0 dv=0
PairPos2: "'kern' Horizontal Kerning lookup 0 per glyph data 1" udieresis dx=0 dy=0 dh=-20 dv=0 dx=0 dy=0 dh=0 dv=0
PairPos2: "'kern' Horizontal Kerning lookup 0 per glyph data 1" ucircumflex dx=0 dy=0 dh=-20 dv=0 dx=0 dy=0 dh=0 dv=0
PairPos2: "'kern' Horizontal Kerning lookup 0 per glyph data 1" uacute dx=0 dy=0 dh=-20 dv=0 dx=0 dy=0 dh=0 dv=0
PairPos2: "'kern' Horizontal Kerning lookup 0 per glyph data 1" ugrave dx=0 dy=0 dh=-20 dv=0 dx=0 dy=0 dh=0 dv=0
PairPos2: "'kern' Horizontal Kerning lookup 0 per glyph data 1" oslash dx=0 dy=0 dh=-55 dv=0 dx=0 dy=0 dh=0 dv=0
PairPos2: "'kern' Horizontal Kerning lookup 0 per glyph data 1" odieresis dx=0 dy=0 dh=-55 dv=0 dx=0 dy=0 dh=0 dv=0
PairPos2: "'kern' Horizontal Kerning lookup 0 per glyph data 1" otilde dx=0 dy=0 dh=-55 dv=0 dx=0 dy=0 dh=0 dv=0
PairPos2: "'kern' Horizontal Kerning lookup 0 per glyph data 1" ocircumflex dx=0 dy=0 dh=-55 dv=0 dx=0 dy=0 dh=0 dv=0
PairPos2: "'kern' Horizontal Kerning lookup 0 per glyph data 1" oacute dx=0 dy=0 dh=-55 dv=0 dx=0 dy=0 dh=0 dv=0
PairPos2: "'kern' Horizontal Kerning lookup 0 per glyph data 1" ograve dx=0 dy=0 dh=-55 dv=0 dx=0 dy=0 dh=0 dv=0
PairPos2: "'kern' Horizontal Kerning lookup 0 per glyph data 1" ntilde dx=0 dy=0 dh=-18 dv=0 dx=0 dy=0 dh=0 dv=0
PairPos2: "'kern' Horizontal Kerning lookup 0 per glyph data 1" idieresis dx=0 dy=0 dh=-4 dv=0 dx=0 dy=0 dh=0 dv=0
PairPos2: "'kern' Horizontal Kerning lookup 0 per glyph data 1" icircumflex dx=0 dy=0 dh=-4 dv=0 dx=0 dy=0 dh=0 dv=0
PairPos2: "'kern' Horizontal Kerning lookup 0 per glyph data 1" iacute dx=0 dy=0 dh=-4 dv=0 dx=0 dy=0 dh=0 dv=0
PairPos2: "'kern' Horizontal Kerning lookup 0 per glyph data 1" igrave dx=0 dy=0 dh=-4 dv=0 dx=0 dy=0 dh=0 dv=0
PairPos2: "'kern' Horizontal Kerning lookup 0 per glyph data 1" edieresis dx=0 dy=0 dh=-55 dv=0 dx=0 dy=0 dh=0 dv=0
PairPos2: "'kern' Horizontal Kerning lookup 0 per glyph data 1" ecircumflex dx=0 dy=0 dh=-55 dv=0 dx=0 dy=0 dh=0 dv=0
PairPos2: "'kern' Horizontal Kerning lookup 0 per glyph data 1" eacute dx=0 dy=0 dh=-55 dv=0 dx=0 dy=0 dh=0 dv=0
PairPos2: "'kern' Horizontal Kerning lookup 0 per glyph data 1" egrave dx=0 dy=0 dh=-55 dv=0 dx=0 dy=0 dh=0 dv=0
PairPos2: "'kern' Horizontal Kerning lookup 0 per glyph data 1" ccedilla dx=0 dy=0 dh=-55 dv=0 dx=0 dy=0 dh=0 dv=0
PairPos2: "'kern' Horizontal Kerning lookup 0 per glyph data 1" ae dx=0 dy=0 dh=-51 dv=0 dx=0 dy=0 dh=0 dv=0
PairPos2: "'kern' Horizontal Kerning lookup 0 per glyph data 1" aring dx=0 dy=0 dh=-51 dv=0 dx=0 dy=0 dh=0 dv=0
PairPos2: "'kern' Horizontal Kerning lookup 0 per glyph data 1" adieresis dx=0 dy=0 dh=-51 dv=0 dx=0 dy=0 dh=0 dv=0
PairPos2: "'kern' Horizontal Kerning lookup 0 per glyph data 1" atilde dx=0 dy=0 dh=-51 dv=0 dx=0 dy=0 dh=0 dv=0
PairPos2: "'kern' Horizontal Kerning lookup 0 per glyph data 1" acircumflex dx=0 dy=0 dh=-51 dv=0 dx=0 dy=0 dh=0 dv=0
PairPos2: "'kern' Horizontal Kerning lookup 0 per glyph data 1" aacute dx=0 dy=0 dh=-51 dv=0 dx=0 dy=0 dh=0 dv=0
PairPos2: "'kern' Horizontal Kerning lookup 0 per glyph data 1" agrave dx=0 dy=0 dh=-51 dv=0 dx=0 dy=0 dh=0 dv=0
PairPos2: "'kern' Horizontal Kerning lookup 0 per glyph data 1" Yacute dx=0 dy=0 dh=-64 dv=0 dx=0 dy=0 dh=0 dv=0
PairPos2: "'kern' Horizontal Kerning lookup 0 per glyph data 1" Udieresis dx=0 dy=0 dh=-52 dv=0 dx=0 dy=0 dh=0 dv=0
PairPos2: "'kern' Horizontal Kerning lookup 0 per glyph data 1" Ucircumflex dx=0 dy=0 dh=-52 dv=0 dx=0 dy=0 dh=0 dv=0
PairPos2: "'kern' Horizontal Kerning lookup 0 per glyph data 1" Uacute dx=0 dy=0 dh=-52 dv=0 dx=0 dy=0 dh=0 dv=0
PairPos2: "'kern' Horizontal Kerning lookup 0 per glyph data 1" Ugrave dx=0 dy=0 dh=-52 dv=0 dx=0 dy=0 dh=0 dv=0
PairPos2: "'kern' Horizontal Kerning lookup 0 per glyph data 1" Oslash dx=0 dy=0 dh=-16 dv=0 dx=0 dy=0 dh=0 dv=0
PairPos2: "'kern' Horizontal Kerning lookup 0 per glyph data 1" Odieresis dx=0 dy=0 dh=-16 dv=0 dx=0 dy=0 dh=0 dv=0
PairPos2: "'kern' Horizontal Kerning lookup 0 per glyph data 1" Otilde dx=0 dy=0 dh=-16 dv=0 dx=0 dy=0 dh=0 dv=0
PairPos2: "'kern' Horizontal Kerning lookup 0 per glyph data 1" Ocircumflex dx=0 dy=0 dh=-16 dv=0 dx=0 dy=0 dh=0 dv=0
PairPos2: "'kern' Horizontal Kerning lookup 0 per glyph data 1" Oacute dx=0 dy=0 dh=-16 dv=0 dx=0 dy=0 dh=0 dv=0
PairPos2: "'kern' Horizontal Kerning lookup 0 per glyph data 1" Ograve dx=0 dy=0 dh=-16 dv=0 dx=0 dy=0 dh=0 dv=0
PairPos2: "'kern' Horizontal Kerning lookup 0 per glyph data 1" Ntilde dx=0 dy=0 dh=-43 dv=0 dx=0 dy=0 dh=0 dv=0
PairPos2: "'kern' Horizontal Kerning lookup 0 per glyph data 1" Eth dx=0 dy=0 dh=-43 dv=0 dx=0 dy=0 dh=0 dv=0
PairPos2: "'kern' Horizontal Kerning lookup 0 per glyph data 1" Idieresis dx=0 dy=0 dh=-43 dv=0 dx=0 dy=0 dh=0 dv=0
PairPos2: "'kern' Horizontal Kerning lookup 0 per glyph data 1" Icircumflex dx=0 dy=0 dh=-43 dv=0 dx=0 dy=0 dh=0 dv=0
PairPos2: "'kern' Horizontal Kerning lookup 0 per glyph data 1" Iacute dx=0 dy=0 dh=-43 dv=0 dx=0 dy=0 dh=0 dv=0
PairPos2: "'kern' Horizontal Kerning lookup 0 per glyph data 1" Igrave dx=0 dy=0 dh=-43 dv=0 dx=0 dy=0 dh=0 dv=0
PairPos2: "'kern' Horizontal Kerning lookup 0 per glyph data 1" Edieresis dx=0 dy=0 dh=-43 dv=0 dx=0 dy=0 dh=0 dv=0
PairPos2: "'kern' Horizontal Kerning lookup 0 per glyph data 1" Ecircumflex dx=0 dy=0 dh=-43 dv=0 dx=0 dy=0 dh=0 dv=0
PairPos2: "'kern' Horizontal Kerning lookup 0 per glyph data 1" Eacute dx=0 dy=0 dh=-43 dv=0 dx=0 dy=0 dh=0 dv=0
PairPos2: "'kern' Horizontal Kerning lookup 0 per glyph data 1" Egrave dx=0 dy=0 dh=-43 dv=0 dx=0 dy=0 dh=0 dv=0
PairPos2: "'kern' Horizontal Kerning lookup 0 per glyph data 1" Ccedilla dx=0 dy=0 dh=-16 dv=0 dx=0 dy=0 dh=0 dv=0
PairPos2: "'kern' Horizontal Kerning lookup 0 per glyph data 1" AE dx=0 dy=0 dh=-145 dv=0 dx=0 dy=0 dh=0 dv=0
PairPos2: "'kern' Horizontal Kerning lookup 0 per glyph data 1" Aring dx=0 dy=0 dh=-145 dv=0 dx=0 dy=0 dh=0 dv=0
PairPos2: "'kern' Horizontal Kerning lookup 0 per glyph data 1" Adieresis dx=0 dy=0 dh=-145 dv=0 dx=0 dy=0 dh=0 dv=0
PairPos2: "'kern' Horizontal Kerning lookup 0 per glyph data 1" Atilde dx=0 dy=0 dh=-145 dv=0 dx=0 dy=0 dh=0 dv=0
PairPos2: "'kern' Horizontal Kerning lookup 0 per glyph data 1" Acircumflex dx=0 dy=0 dh=-145 dv=0 dx=0 dy=0 dh=0 dv=0
PairPos2: "'kern' Horizontal Kerning lookup 0 per glyph data 1" Aacute dx=0 dy=0 dh=-145 dv=0 dx=0 dy=0 dh=0 dv=0
PairPos2: "'kern' Horizontal Kerning lookup 0 per glyph data 1" Agrave dx=0 dy=0 dh=-145 dv=0 dx=0 dy=0 dh=0 dv=0
PairPos2: "'kern' Horizontal Kerning lookup 0 per glyph data 1" y dx=0 dy=0 dh=-5 dv=0 dx=0 dy=0 dh=0 dv=0
PairPos2: "'kern' Horizontal Kerning lookup 0 per glyph data 1" u dx=0 dy=0 dh=-20 dv=0 dx=0 dy=0 dh=0 dv=0
PairPos2: "'kern' Horizontal Kerning lookup 0 per glyph data 1" r dx=0 dy=0 dh=-18 dv=0 dx=0 dy=0 dh=0 dv=0
PairPos2: "'kern' Horizontal Kerning lookup 0 per glyph data 1" q dx=0 dy=0 dh=-55 dv=0 dx=0 dy=0 dh=0 dv=0
PairPos2: "'kern' Horizontal Kerning lookup 0 per glyph data 1" o dx=0 dy=0 dh=-55 dv=0 dx=0 dy=0 dh=0 dv=0
PairPos2: "'kern' Horizontal Kerning lookup 0 per glyph data 1" n dx=0 dy=0 dh=-18 dv=0 dx=0 dy=0 dh=0 dv=0
PairPos2: "'kern' Horizontal Kerning lookup 0 per glyph data 1" m dx=0 dy=0 dh=-18 dv=0 dx=0 dy=0 dh=0 dv=0
PairPos2: "'kern' Horizontal Kerning lookup 0 per glyph data 1" j dx=0 dy=0 dh=-96 dv=0 dx=0 dy=0 dh=0 dv=0
PairPos2: "'kern' Horizontal Kerning lookup 0 per glyph data 1" i dx=0 dy=0 dh=-4 dv=0 dx=0 dy=0 dh=0 dv=0
PairPos2: "'kern' Horizontal Kerning lookup 0 per glyph data 1" e dx=0 dy=0 dh=-55 dv=0 dx=0 dy=0 dh=0 dv=0
PairPos2: "'kern' Horizontal Kerning lookup 0 per glyph data 1" d dx=0 dy=0 dh=-55 dv=0 dx=0 dy=0 dh=0 dv=0
PairPos2: "'kern' Horizontal Kerning lookup 0 per glyph data 1" c dx=0 dy=0 dh=-55 dv=0 dx=0 dy=0 dh=0 dv=0
PairPos2: "'kern' Horizontal Kerning lookup 0 per glyph data 1" a dx=0 dy=0 dh=-51 dv=0 dx=0 dy=0 dh=0 dv=0
PairPos2: "'kern' Horizontal Kerning lookup 0 per glyph data 1" Z dx=0 dy=0 dh=-9 dv=0 dx=0 dy=0 dh=0 dv=0
PairPos2: "'kern' Horizontal Kerning lookup 0 per glyph data 1" Y dx=0 dy=0 dh=-64 dv=0 dx=0 dy=0 dh=0 dv=0
PairPos2: "'kern' Horizontal Kerning lookup 0 per glyph data 1" X dx=0 dy=0 dh=-46 dv=0 dx=0 dy=0 dh=0 dv=0
PairPos2: "'kern' Horizontal Kerning lookup 0 per glyph data 1" W dx=0 dy=0 dh=-64 dv=0 dx=0 dy=0 dh=0 dv=0
PairPos2: "'kern' Horizontal Kerning lookup 0 per glyph data 1" V dx=0 dy=0 dh=-64 dv=0 dx=0 dy=0 dh=0 dv=0
PairPos2: "'kern' Horizontal Kerning lookup 0 per glyph data 1" U dx=0 dy=0 dh=-52 dv=0 dx=0 dy=0 dh=0 dv=0
PairPos2: "'kern' Horizontal Kerning lookup 0 per glyph data 1" T dx=0 dy=0 dh=-9 dv=0 dx=0 dy=0 dh=0 dv=0
PairPos2: "'kern' Horizontal Kerning lookup 0 per glyph data 1" S dx=0 dy=0 dh=-4 dv=0 dx=0 dy=0 dh=0 dv=0
PairPos2: "'kern' Horizontal Kerning lookup 0 per glyph data 1" R dx=0 dy=0 dh=-43 dv=0 dx=0 dy=0 dh=0 dv=0
PairPos2: "'kern' Horizontal Kerning lookup 0 per glyph data 1" Q dx=0 dy=0 dh=-16 dv=0 dx=0 dy=0 dh=0 dv=0
PairPos2: "'kern' Horizontal Kerning lookup 0 per glyph data 1" P dx=0 dy=0 dh=-43 dv=0 dx=0 dy=0 dh=0 dv=0
PairPos2: "'kern' Horizontal Kerning lookup 0 per glyph data 1" O dx=0 dy=0 dh=-16 dv=0 dx=0 dy=0 dh=0 dv=0
PairPos2: "'kern' Horizontal Kerning lookup 0 per glyph data 1" N dx=0 dy=0 dh=-43 dv=0 dx=0 dy=0 dh=0 dv=0
PairPos2: "'kern' Horizontal Kerning lookup 0 per glyph data 1" M dx=0 dy=0 dh=-43 dv=0 dx=0 dy=0 dh=0 dv=0
PairPos2: "'kern' Horizontal Kerning lookup 0 per glyph data 1" L dx=0 dy=0 dh=-43 dv=0 dx=0 dy=0 dh=0 dv=0
PairPos2: "'kern' Horizontal Kerning lookup 0 per glyph data 1" K dx=0 dy=0 dh=-43 dv=0 dx=0 dy=0 dh=0 dv=0
PairPos2: "'kern' Horizontal Kerning lookup 0 per glyph data 1" J dx=0 dy=0 dh=-122 dv=0 dx=0 dy=0 dh=0 dv=0
PairPos2: "'kern' Horizontal Kerning lookup 0 per glyph data 1" I dx=0 dy=0 dh=-43 dv=0 dx=0 dy=0 dh=0 dv=0
PairPos2: "'kern' Horizontal Kerning lookup 0 per glyph data 1" H dx=0 dy=0 dh=-43 dv=0 dx=0 dy=0 dh=0 dv=0
PairPos2: "'kern' Horizontal Kerning lookup 0 per glyph data 1" G dx=0 dy=0 dh=-16 dv=0 dx=0 dy=0 dh=0 dv=0
PairPos2: "'kern' Horizontal Kerning lookup 0 per glyph data 1" F dx=0 dy=0 dh=-43 dv=0 dx=0 dy=0 dh=0 dv=0
PairPos2: "'kern' Horizontal Kerning lookup 0 per glyph data 1" E dx=0 dy=0 dh=-43 dv=0 dx=0 dy=0 dh=0 dv=0
PairPos2: "'kern' Horizontal Kerning lookup 0 per glyph data 1" D dx=0 dy=0 dh=-43 dv=0 dx=0 dy=0 dh=0 dv=0
PairPos2: "'kern' Horizontal Kerning lookup 0 per glyph data 1" C dx=0 dy=0 dh=-16 dv=0 dx=0 dy=0 dh=0 dv=0
PairPos2: "'kern' Horizontal Kerning lookup 0 per glyph data 1" B dx=0 dy=0 dh=-43 dv=0 dx=0 dy=0 dh=0 dv=0
PairPos2: "'kern' Horizontal Kerning lookup 0 per glyph data 1" A dx=0 dy=0 dh=-145 dv=0 dx=0 dy=0 dh=0 dv=0
PairPos2: "'kern' Horizontal Kerning lookup 0 per glyph data 1" period dx=0 dy=0 dh=-34 dv=0 dx=0 dy=0 dh=0 dv=0
PairPos2: "'kern' Horizontal Kerning lookup 0 per glyph data 1" hyphen dx=0 dy=0 dh=-46 dv=0 dx=0 dy=0 dh=0 dv=0
PairPos2: "'kern' Horizontal Kerning lookup 0 per glyph data 1" comma dx=0 dy=0 dh=-33 dv=0 dx=0 dy=0 dh=0 dv=0
EndChar

StartChar: Q
Encoding: 81 81 52
Width: 769
GlyphClass: 2
Flags: W
LayerCount: 2
Fore
SplineSet
724 -82 m 1,0,1
 663 -109 663 -109 604 -109 c 128,-1,2
 545 -109 545 -109 498 -97.5 c 128,-1,3
 451 -86 451 -86 420.5 -69.5 c 128,-1,4
 390 -53 390 -53 367.5 -36 c 128,-1,5
 345 -19 345 -19 334.5 -7.5 c 128,-1,6
 324 4 324 4 325 4 c 1,7,8
 203 26 203 26 125.5 123.5 c 128,-1,9
 48 221 48 221 48 363 c 0,10,11
 48 527 48 527 151 625.5 c 128,-1,12
 254 724 254 724 397 724 c 128,-1,13
 540 724 540 724 642 625.5 c 128,-1,14
 744 527 744 527 744 367.5 c 128,-1,15
 744 208 744 208 657 108 c 128,-1,16
 570 8 570 8 433 -4 c 1,17,18
 490 -42 490 -42 599 -42 c 0,19,20
 656 -42 656 -42 702 -22 c 0,21,22
 713 -17 713 -17 716 -26 c 2,23,-1
 731 -66 l 2,24,25
 734 -76 734 -76 724 -82 c 1,0,1
218 152 m 128,-1,27
 294 77 294 77 396.5 77 c 128,-1,28
 499 77 499 77 575 152 c 128,-1,29
 651 227 651 227 651 360.5 c 128,-1,30
 651 494 651 494 573.5 568 c 128,-1,31
 496 642 496 642 397 642 c 0,32,33
 301 642 301 642 225 574 c 0,34,35
 188 540 188 540 165 484.5 c 128,-1,36
 142 429 142 429 142 360 c 0,37,26
 142 227 142 227 218 152 c 128,-1,27
EndSplineSet
PairPos2: "'kern' Horizontal Kerning lookup 0 per glyph data 1" ellipsis dx=0 dy=0 dh=-19 dv=0 dx=0 dy=0 dh=0 dv=0
PairPos2: "'kern' Horizontal Kerning lookup 0 per glyph data 1" Uogonek dx=0 dy=0 dh=-52 dv=0 dx=0 dy=0 dh=0 dv=0
PairPos2: "'kern' Horizontal Kerning lookup 0 per glyph data 1" Uhungarumlaut dx=0 dy=0 dh=-52 dv=0 dx=0 dy=0 dh=0 dv=0
PairPos2: "'kern' Horizontal Kerning lookup 0 per glyph data 1" Uring dx=0 dy=0 dh=-52 dv=0 dx=0 dy=0 dh=0 dv=0
PairPos2: "'kern' Horizontal Kerning lookup 0 per glyph data 1" Ubreve dx=0 dy=0 dh=-52 dv=0 dx=0 dy=0 dh=0 dv=0
PairPos2: "'kern' Horizontal Kerning lookup 0 per glyph data 1" Umacron dx=0 dy=0 dh=-52 dv=0 dx=0 dy=0 dh=0 dv=0
PairPos2: "'kern' Horizontal Kerning lookup 0 per glyph data 1" Utilde dx=0 dy=0 dh=-52 dv=0 dx=0 dy=0 dh=0 dv=0
PairPos2: "'kern' Horizontal Kerning lookup 0 per glyph data 1" Udieresis dx=0 dy=0 dh=-52 dv=0 dx=0 dy=0 dh=0 dv=0
PairPos2: "'kern' Horizontal Kerning lookup 0 per glyph data 1" Ucircumflex dx=0 dy=0 dh=-52 dv=0 dx=0 dy=0 dh=0 dv=0
PairPos2: "'kern' Horizontal Kerning lookup 0 per glyph data 1" Uacute dx=0 dy=0 dh=-52 dv=0 dx=0 dy=0 dh=0 dv=0
PairPos2: "'kern' Horizontal Kerning lookup 0 per glyph data 1" Ugrave dx=0 dy=0 dh=-52 dv=0 dx=0 dy=0 dh=0 dv=0
PairPos2: "'kern' Horizontal Kerning lookup 0 per glyph data 1" X dx=0 dy=0 dh=-57 dv=0 dx=0 dy=0 dh=0 dv=0
PairPos2: "'kern' Horizontal Kerning lookup 0 per glyph data 1" U dx=0 dy=0 dh=-52 dv=0 dx=0 dy=0 dh=0 dv=0
PairPos2: "'kern' Horizontal Kerning lookup 0 per glyph data 1" period dx=0 dy=0 dh=-15 dv=0 dx=0 dy=0 dh=0 dv=0
PairPos2: "'kern' Horizontal Kerning lookup 0 per glyph data 1" comma dx=0 dy=0 dh=-20 dv=0 dx=0 dy=0 dh=0 dv=0
EndChar

StartChar: R
Encoding: 82 82 53
Width: 715
GlyphClass: 2
Flags: W
LayerCount: 2
Fore
SplineSet
655 0 m 2,0,-1
 568 0 l 2,1,2
 532 0 532 0 508 48 c 2,3,-1
 414 239 l 2,4,5
 402 264 402 264 388.5 276 c 128,-1,6
 375 288 375 288 351 289 c 1,7,-1
 224 289 l 1,8,-1
 224 75 l 1,9,-1
 314 75 l 2,10,11
 326 75 326 75 326 63 c 2,12,-1
 326 12 l 2,13,14
 326 0 326 0 314 0 c 2,15,-1
 61 0 l 2,16,17
 48 0 48 0 48 12 c 2,18,-1
 48 63 l 2,19,20
 48 75 48 75 61 75 c 2,21,-1
 137 75 l 1,22,-1
 137 643 l 1,23,-1
 61 643 l 2,24,25
 48 643 48 643 48 655 c 2,26,-1
 48 706 l 2,27,28
 48 718 48 718 61 718 c 2,29,-1
 369 718 l 2,30,31
 476 718 476 718 543 661.5 c 128,-1,32
 610 605 610 605 610 502 c 0,33,34
 610 345 610 345 463 306 c 1,35,36
 482 291 482 291 510 239 c 1,37,-1
 594 75 l 1,38,-1
 655 75 l 2,39,40
 667 75 667 75 667 63 c 2,41,-1
 667 12 l 2,42,43
 667 0 667 0 655 0 c 2,0,-1
224 360 m 1,44,-1
 352 360 l 2,45,46
 522 360 522 360 522 499 c 0,47,48
 522 643 522 643 352 643 c 2,49,-1
 224 643 l 1,50,-1
 224 360 l 1,44,-1
EndSplineSet
EndChar

StartChar: S
Encoding: 83 83 54
Width: 666
GlyphClass: 2
Flags: W
LayerCount: 2
Fore
SplineSet
117 0 m 2,0,-1
 61 0 l 2,1,2
 48 0 48 0 48 12 c 2,3,-1
 48 246 l 2,4,5
 48 259 48 259 61 259 c 2,6,-1
 124 259 l 2,7,8
 136 259 136 259 136 246 c 2,9,-1
 136 225 l 2,10,11
 136 206 136 206 159 174.5 c 128,-1,12
 182 143 182 143 205 123 c 128,-1,13
 228 103 228 103 266.5 88.5 c 128,-1,14
 305 74 305 74 350 74 c 0,15,16
 427 74 427 74 470.5 106 c 128,-1,17
 514 138 514 138 514 195 c 0,18,19
 514 228 514 228 489.5 251.5 c 128,-1,20
 465 275 465 275 426 289 c 128,-1,21
 387 303 387 303 339.5 315 c 128,-1,22
 292 327 292 327 244.5 342.5 c 128,-1,23
 197 358 197 358 158 379.5 c 128,-1,24
 119 401 119 401 94.5 439.5 c 128,-1,25
 70 478 70 478 70 530 c 0,26,27
 70 614 70 614 133.5 669 c 128,-1,28
 197 724 197 724 304 724 c 0,29,30
 439 724 439 724 502 645 c 1,31,-1
 500 707 l 2,32,33
 500 719 500 719 513 719 c 2,34,-1
 569 719 l 2,35,36
 581 719 581 719 581 707 c 2,37,-1
 581 489 l 2,38,39
 581 477 581 477 569 477 c 2,40,-1
 506 477 l 2,41,42
 494 477 494 477 494 489 c 2,43,-1
 494 517 l 2,44,45
 494 558 494 558 448 600 c 128,-1,46
 402 642 402 642 313 642 c 0,47,48
 247 642 247 642 206.5 610.5 c 128,-1,49
 166 579 166 579 166 530 c 0,50,51
 166 495 166 495 191 470 c 128,-1,52
 216 445 216 445 256 430 c 128,-1,53
 296 415 296 415 344 402.5 c 128,-1,54
 392 390 392 390 440 375 c 128,-1,55
 488 360 488 360 528 339 c 128,-1,56
 568 318 568 318 593 281.5 c 128,-1,57
 618 245 618 245 618 195 c 0,58,59
 618 107 618 107 555 50 c 128,-1,60
 492 -7 492 -7 367 -7 c 0,61,62
 275 -7 275 -7 215 30 c 128,-1,63
 155 67 155 67 128 110 c 1,64,-1
 129 12 l 2,65,66
 129 0 129 0 117 0 c 2,0,-1
EndSplineSet
EndChar

StartChar: T
Encoding: 84 84 55
Width: 727
GlyphClass: 2
Flags: W
LayerCount: 2
Fore
SplineSet
478 0 m 2,0,-1
 245 0 l 2,1,2
 232 0 232 0 232 13 c 2,3,-1
 232 62 l 2,4,5
 232 75 232 75 245 75 c 2,6,-1
 321 75 l 1,7,-1
 321 643 l 1,8,-1
 132 643 l 1,9,-1
 132 537 l 2,10,11
 132 523 132 523 118 523 c 2,12,-1
 62 523 l 2,13,14
 48 523 48 523 48 537 c 2,15,-1
 48 705 l 2,16,17
 48 718 48 718 62 718 c 2,18,-1
 665 718 l 2,19,20
 679 718 679 718 679 705 c 2,21,-1
 679 537 l 2,22,23
 679 523 679 523 665 523 c 2,24,-1
 608 523 l 2,25,26
 595 523 595 523 595 537 c 2,27,-1
 595 643 l 1,28,-1
 408 643 l 1,29,-1
 408 75 l 1,30,-1
 478 75 l 2,31,32
 492 75 492 75 492 62 c 2,33,-1
 492 13 l 2,34,35
 492 0 492 0 478 0 c 2,0,-1
EndSplineSet
EndChar

StartChar: U
Encoding: 85 85 56
Width: 814
GlyphClass: 2
Flags: W
LayerCount: 2
Fore
SplineSet
590 260 m 2,0,-1
 590 643 l 1,1,-1
 513 643 l 2,2,3
 501 643 501 643 501 655 c 2,4,-1
 501 706 l 2,5,6
 501 718 501 718 513 718 c 2,7,-1
 754 718 l 2,8,9
 766 718 766 718 766 706 c 2,10,-1
 766 655 l 2,11,12
 766 643 766 643 754 643 c 2,13,-1
 677 643 l 1,14,-1
 677 269 l 2,15,16
 677 134 677 134 606.5 63.5 c 128,-1,17
 536 -7 536 -7 407.5 -7 c 128,-1,18
 279 -7 279 -7 208 63.5 c 128,-1,19
 137 134 137 134 137 269 c 2,20,-1
 137 643 l 1,21,-1
 61 643 l 2,22,23
 48 643 48 643 48 655 c 2,24,-1
 48 706 l 2,25,26
 48 718 48 718 61 718 c 2,27,-1
 301 718 l 2,28,29
 314 718 314 718 314 706 c 2,30,-1
 314 655 l 2,31,32
 314 643 314 643 301 643 c 2,33,-1
 224 643 l 1,34,-1
 224 266 l 2,35,36
 224 74 224 74 408 74 c 0,37,38
 502 74 502 74 546 123.5 c 128,-1,39
 590 173 590 173 590 260 c 2,0,-1
EndSplineSet
EndChar

StartChar: V
Encoding: 86 86 57
Width: 848
GlyphClass: 2
Flags: W
LayerCount: 2
Fore
SplineSet
444 0 m 2,0,-1
 405 0 l 2,1,2
 386 0 386 0 376 9 c 128,-1,3
 366 18 366 18 358 40 c 2,4,-1
 125 643 l 1,5,-1
 61 643 l 2,6,7
 48 643 48 643 48 655 c 2,8,-1
 48 706 l 2,9,10
 48 718 48 718 61 718 c 2,11,-1
 286 718 l 2,12,13
 298 718 298 718 298 706 c 2,14,-1
 298 655 l 2,15,16
 298 643 298 643 286 643 c 2,17,-1
 218 643 l 1,18,-1
 421 106 l 1,19,-1
 427 106 l 1,20,-1
 630 643 l 1,21,-1
 562 643 l 2,22,23
 549 643 549 643 549 655 c 2,24,-1
 549 706 l 2,25,26
 549 718 549 718 562 718 c 2,27,-1
 787 718 l 2,28,29
 800 718 800 718 800 706 c 2,30,-1
 800 655 l 2,31,32
 800 643 800 643 787 643 c 2,33,-1
 721 643 l 1,34,-1
 490 40 l 2,35,36
 483 19 483 19 473.5 9.5 c 128,-1,37
 464 0 464 0 444 0 c 2,0,-1
EndSplineSet
EndChar

StartChar: W
Encoding: 87 87 58
Width: 1094
GlyphClass: 2
Flags: W
LayerCount: 2
Fore
SplineSet
748 0 m 2,0,-1
 710 0 l 2,1,2
 673 0 673 0 663 40 c 2,3,-1
 547 548 l 1,4,-1
 544 548 l 1,5,-1
 430 40 l 2,6,7
 420 0 420 0 382 0 c 2,8,-1
 345 0 l 2,9,10
 310 0 310 0 297 40 c 2,11,-1
 114 643 l 1,12,-1
 51 643 l 2,13,14
 38 643 38 643 38 655 c 2,15,-1
 38 706 l 2,16,17
 38 718 38 718 51 718 c 2,18,-1
 276 718 l 2,19,20
 289 718 289 718 289 706 c 2,21,-1
 289 655 l 2,22,23
 289 643 289 643 276 643 c 2,24,-1
 206 643 l 1,25,-1
 361 106 l 1,26,-1
 367 106 l 1,27,-1
 506 718 l 1,28,-1
 586 718 l 1,29,-1
 726 106 l 1,30,-1
 732 106 l 1,31,-1
 887 643 l 1,32,-1
 816 643 l 2,33,34
 804 643 804 643 804 655 c 2,35,-1
 804 706 l 2,36,37
 804 718 804 718 816 718 c 2,38,-1
 1042 718 l 2,39,40
 1054 718 1054 718 1054 706 c 2,41,-1
 1054 655 l 2,42,43
 1054 643 1054 643 1042 643 c 2,44,-1
 978 643 l 1,45,-1
 795 40 l 2,46,47
 783 0 783 0 748 0 c 2,0,-1
EndSplineSet
EndChar

StartChar: X
Encoding: 88 88 59
Width: 814
GlyphClass: 2
Flags: W
LayerCount: 2
Fore
SplineSet
746 0 m 2,0,-1
 505 0 l 2,1,2
 493 0 493 0 493 12 c 2,3,-1
 493 63 l 2,4,5
 493 75 493 75 505 75 c 2,6,-1
 571 75 l 1,7,-1
 405 308 l 1,8,-1
 234 75 l 1,9,-1
 301 75 l 2,10,11
 314 75 314 75 314 63 c 2,12,-1
 314 12 l 2,13,14
 314 0 314 0 301 0 c 2,15,-1
 61 0 l 2,16,17
 48 0 48 0 48 12 c 2,18,-1
 48 63 l 2,19,20
 48 75 48 75 61 75 c 2,21,-1
 138 75 l 1,22,-1
 354 362 l 1,23,-1
 137 643 l 1,24,-1
 61 643 l 2,25,26
 48 643 48 643 48 655 c 2,27,-1
 48 706 l 2,28,29
 48 718 48 718 61 718 c 2,30,-1
 301 718 l 2,31,32
 314 718 314 718 314 706 c 2,33,-1
 314 655 l 2,34,35
 314 643 314 643 301 643 c 2,36,-1
 233 643 l 1,37,-1
 403 417 l 1,38,-1
 573 643 l 1,39,-1
 512 643 l 2,40,41
 500 643 500 643 500 655 c 2,42,-1
 500 706 l 2,43,44
 500 718 500 718 512 718 c 2,45,-1
 753 718 l 2,46,47
 765 718 765 718 765 706 c 2,48,-1
 765 655 l 2,49,50
 765 643 765 643 753 643 c 2,51,-1
 670 643 l 1,52,-1
 454 362 l 1,53,-1
 666 75 l 1,54,-1
 746 75 l 2,55,56
 758 75 758 75 758 63 c 2,57,-1
 758 12 l 2,58,59
 758 0 758 0 746 0 c 2,0,-1
EndSplineSet
PairPos2: "'kern' Horizontal Kerning lookup 0 per glyph data 1" amacron.alt dx=0 dy=0 dh=-74 dv=0 dx=0 dy=0 dh=0 dv=0
PairPos2: "'kern' Horizontal Kerning lookup 0 per glyph data 1" acircumflex.alt dx=0 dy=0 dh=-74 dv=0 dx=0 dy=0 dh=0 dv=0
PairPos2: "'kern' Horizontal Kerning lookup 0 per glyph data 1" aring.alt dx=0 dy=0 dh=-74 dv=0 dx=0 dy=0 dh=0 dv=0
PairPos2: "'kern' Horizontal Kerning lookup 0 per glyph data 1" ygrave.alt dx=0 dy=0 dh=-79 dv=0 dx=0 dy=0 dh=0 dv=0
PairPos2: "'kern' Horizontal Kerning lookup 0 per glyph data 1" adieresis.alt dx=0 dy=0 dh=-74 dv=0 dx=0 dy=0 dh=0 dv=0
PairPos2: "'kern' Horizontal Kerning lookup 0 per glyph data 1" aogonek.alt dx=0 dy=0 dh=-74 dv=0 dx=0 dy=0 dh=0 dv=0
PairPos2: "'kern' Horizontal Kerning lookup 0 per glyph data 1" ydieresis.alt dx=0 dy=0 dh=-79 dv=0 dx=0 dy=0 dh=0 dv=0
PairPos2: "'kern' Horizontal Kerning lookup 0 per glyph data 1" aacute.alt dx=0 dy=0 dh=-74 dv=0 dx=0 dy=0 dh=0 dv=0
PairPos2: "'kern' Horizontal Kerning lookup 0 per glyph data 1" ycircumflex.alt dx=0 dy=0 dh=-79 dv=0 dx=0 dy=0 dh=0 dv=0
PairPos2: "'kern' Horizontal Kerning lookup 0 per glyph data 1" abreve.alt dx=0 dy=0 dh=-74 dv=0 dx=0 dy=0 dh=0 dv=0
PairPos2: "'kern' Horizontal Kerning lookup 0 per glyph data 1" yacute.alt dx=0 dy=0 dh=-79 dv=0 dx=0 dy=0 dh=0 dv=0
PairPos2: "'kern' Horizontal Kerning lookup 0 per glyph data 1" atilde.alt dx=0 dy=0 dh=-74 dv=0 dx=0 dy=0 dh=0 dv=0
PairPos2: "'kern' Horizontal Kerning lookup 0 per glyph data 1" y.alt dx=0 dy=0 dh=-79 dv=0 dx=0 dy=0 dh=0 dv=0
PairPos2: "'kern' Horizontal Kerning lookup 0 per glyph data 1" a.alt dx=0 dy=0 dh=-74 dv=0 dx=0 dy=0 dh=0 dv=0
PairPos2: "'kern' Horizontal Kerning lookup 0 per glyph data 1" agrave.alt dx=0 dy=0 dh=-74 dv=0 dx=0 dy=0 dh=0 dv=0
PairPos2: "'kern' Horizontal Kerning lookup 0 per glyph data 1" minus dx=0 dy=0 dh=-55 dv=0 dx=0 dy=0 dh=0 dv=0
PairPos2: "'kern' Horizontal Kerning lookup 0 per glyph data 1" emdash dx=0 dy=0 dh=-55 dv=0 dx=0 dy=0 dh=0 dv=0
PairPos2: "'kern' Horizontal Kerning lookup 0 per glyph data 1" endash dx=0 dy=0 dh=-55 dv=0 dx=0 dy=0 dh=0 dv=0
PairPos2: "'kern' Horizontal Kerning lookup 0 per glyph data 1" ygrave dx=0 dy=0 dh=-111 dv=0 dx=0 dy=0 dh=0 dv=0
PairPos2: "'kern' Horizontal Kerning lookup 0 per glyph data 1" Ygrave dx=0 dy=0 dh=-37 dv=0 dx=0 dy=0 dh=0 dv=0
PairPos2: "'kern' Horizontal Kerning lookup 0 per glyph data 1" Wdieresis dx=0 dy=0 dh=-37 dv=0 dx=0 dy=0 dh=0 dv=0
PairPos2: "'kern' Horizontal Kerning lookup 0 per glyph data 1" Wacute dx=0 dy=0 dh=-37 dv=0 dx=0 dy=0 dh=0 dv=0
PairPos2: "'kern' Horizontal Kerning lookup 0 per glyph data 1" Wgrave dx=0 dy=0 dh=-37 dv=0 dx=0 dy=0 dh=0 dv=0
PairPos2: "'kern' Horizontal Kerning lookup 0 per glyph data 1" Scommaaccent dx=0 dy=0 dh=-26 dv=0 dx=0 dy=0 dh=0 dv=0
PairPos2: "'kern' Horizontal Kerning lookup 0 per glyph data 1" oslashacute dx=0 dy=0 dh=-74 dv=0 dx=0 dy=0 dh=0 dv=0
PairPos2: "'kern' Horizontal Kerning lookup 0 per glyph data 1" Oslashacute dx=0 dy=0 dh=-69 dv=0 dx=0 dy=0 dh=0 dv=0
PairPos2: "'kern' Horizontal Kerning lookup 0 per glyph data 1" aeacute dx=0 dy=0 dh=-59 dv=0 dx=0 dy=0 dh=0 dv=0
PairPos2: "'kern' Horizontal Kerning lookup 0 per glyph data 1" AEacute dx=0 dy=0 dh=-42 dv=0 dx=0 dy=0 dh=0 dv=0
PairPos2: "'kern' Horizontal Kerning lookup 0 per glyph data 1" Ydieresis dx=0 dy=0 dh=-37 dv=0 dx=0 dy=0 dh=0 dv=0
PairPos2: "'kern' Horizontal Kerning lookup 0 per glyph data 1" ycircumflex dx=0 dy=0 dh=-111 dv=0 dx=0 dy=0 dh=0 dv=0
PairPos2: "'kern' Horizontal Kerning lookup 0 per glyph data 1" Ycircumflex dx=0 dy=0 dh=-37 dv=0 dx=0 dy=0 dh=0 dv=0
PairPos2: "'kern' Horizontal Kerning lookup 0 per glyph data 1" Wcircumflex dx=0 dy=0 dh=-37 dv=0 dx=0 dy=0 dh=0 dv=0
PairPos2: "'kern' Horizontal Kerning lookup 0 per glyph data 1" uogonek dx=0 dy=0 dh=-79 dv=0 dx=0 dy=0 dh=0 dv=0
PairPos2: "'kern' Horizontal Kerning lookup 0 per glyph data 1" Uogonek dx=0 dy=0 dh=-37 dv=0 dx=0 dy=0 dh=0 dv=0
PairPos2: "'kern' Horizontal Kerning lookup 0 per glyph data 1" uhungarumlaut dx=0 dy=0 dh=-79 dv=0 dx=0 dy=0 dh=0 dv=0
PairPos2: "'kern' Horizontal Kerning lookup 0 per glyph data 1" Uhungarumlaut dx=0 dy=0 dh=-37 dv=0 dx=0 dy=0 dh=0 dv=0
PairPos2: "'kern' Horizontal Kerning lookup 0 per glyph data 1" uring dx=0 dy=0 dh=-79 dv=0 dx=0 dy=0 dh=0 dv=0
PairPos2: "'kern' Horizontal Kerning lookup 0 per glyph data 1" Uring dx=0 dy=0 dh=-37 dv=0 dx=0 dy=0 dh=0 dv=0
PairPos2: "'kern' Horizontal Kerning lookup 0 per glyph data 1" ubreve dx=0 dy=0 dh=-79 dv=0 dx=0 dy=0 dh=0 dv=0
PairPos2: "'kern' Horizontal Kerning lookup 0 per glyph data 1" Ubreve dx=0 dy=0 dh=-37 dv=0 dx=0 dy=0 dh=0 dv=0
PairPos2: "'kern' Horizontal Kerning lookup 0 per glyph data 1" umacron dx=0 dy=0 dh=-79 dv=0 dx=0 dy=0 dh=0 dv=0
PairPos2: "'kern' Horizontal Kerning lookup 0 per glyph data 1" Umacron dx=0 dy=0 dh=-37 dv=0 dx=0 dy=0 dh=0 dv=0
PairPos2: "'kern' Horizontal Kerning lookup 0 per glyph data 1" utilde dx=0 dy=0 dh=-79 dv=0 dx=0 dy=0 dh=0 dv=0
PairPos2: "'kern' Horizontal Kerning lookup 0 per glyph data 1" Utilde dx=0 dy=0 dh=-37 dv=0 dx=0 dy=0 dh=0 dv=0
PairPos2: "'kern' Horizontal Kerning lookup 0 per glyph data 1" Tbar dx=0 dy=0 dh=-21 dv=0 dx=0 dy=0 dh=0 dv=0
PairPos2: "'kern' Horizontal Kerning lookup 0 per glyph data 1" Tcaron dx=0 dy=0 dh=-21 dv=0 dx=0 dy=0 dh=0 dv=0
PairPos2: "'kern' Horizontal Kerning lookup 0 per glyph data 1" Tcommaaccent dx=0 dy=0 dh=-21 dv=0 dx=0 dy=0 dh=0 dv=0
PairPos2: "'kern' Horizontal Kerning lookup 0 per glyph data 1" Scaron dx=0 dy=0 dh=-26 dv=0 dx=0 dy=0 dh=0 dv=0
PairPos2: "'kern' Horizontal Kerning lookup 0 per glyph data 1" Scedilla dx=0 dy=0 dh=-26 dv=0 dx=0 dy=0 dh=0 dv=0
PairPos2: "'kern' Horizontal Kerning lookup 0 per glyph data 1" Scircumflex dx=0 dy=0 dh=-26 dv=0 dx=0 dy=0 dh=0 dv=0
PairPos2: "'kern' Horizontal Kerning lookup 0 per glyph data 1" Sacute dx=0 dy=0 dh=-26 dv=0 dx=0 dy=0 dh=0 dv=0
PairPos2: "'kern' Horizontal Kerning lookup 0 per glyph data 1" Rcaron dx=0 dy=0 dh=-21 dv=0 dx=0 dy=0 dh=0 dv=0
PairPos2: "'kern' Horizontal Kerning lookup 0 per glyph data 1" Rcommaaccent dx=0 dy=0 dh=-21 dv=0 dx=0 dy=0 dh=0 dv=0
PairPos2: "'kern' Horizontal Kerning lookup 0 per glyph data 1" Racute dx=0 dy=0 dh=-21 dv=0 dx=0 dy=0 dh=0 dv=0
PairPos2: "'kern' Horizontal Kerning lookup 0 per glyph data 1" oe dx=0 dy=0 dh=-74 dv=0 dx=0 dy=0 dh=0 dv=0
PairPos2: "'kern' Horizontal Kerning lookup 0 per glyph data 1" OE dx=0 dy=0 dh=-69 dv=0 dx=0 dy=0 dh=0 dv=0
PairPos2: "'kern' Horizontal Kerning lookup 0 per glyph data 1" ohungarumlaut dx=0 dy=0 dh=-74 dv=0 dx=0 dy=0 dh=0 dv=0
PairPos2: "'kern' Horizontal Kerning lookup 0 per glyph data 1" Ohungarumlaut dx=0 dy=0 dh=-69 dv=0 dx=0 dy=0 dh=0 dv=0
PairPos2: "'kern' Horizontal Kerning lookup 0 per glyph data 1" obreve dx=0 dy=0 dh=-74 dv=0 dx=0 dy=0 dh=0 dv=0
PairPos2: "'kern' Horizontal Kerning lookup 0 per glyph data 1" Obreve dx=0 dy=0 dh=-69 dv=0 dx=0 dy=0 dh=0 dv=0
PairPos2: "'kern' Horizontal Kerning lookup 0 per glyph data 1" omacron dx=0 dy=0 dh=-74 dv=0 dx=0 dy=0 dh=0 dv=0
PairPos2: "'kern' Horizontal Kerning lookup 0 per glyph data 1" Omacron dx=0 dy=0 dh=-69 dv=0 dx=0 dy=0 dh=0 dv=0
PairPos2: "'kern' Horizontal Kerning lookup 0 per glyph data 1" Eng dx=0 dy=0 dh=-21 dv=0 dx=0 dy=0 dh=0 dv=0
PairPos2: "'kern' Horizontal Kerning lookup 0 per glyph data 1" Ncaron dx=0 dy=0 dh=-21 dv=0 dx=0 dy=0 dh=0 dv=0
PairPos2: "'kern' Horizontal Kerning lookup 0 per glyph data 1" Ncommaaccent dx=0 dy=0 dh=-21 dv=0 dx=0 dy=0 dh=0 dv=0
PairPos2: "'kern' Horizontal Kerning lookup 0 per glyph data 1" Nacute dx=0 dy=0 dh=-21 dv=0 dx=0 dy=0 dh=0 dv=0
PairPos2: "'kern' Horizontal Kerning lookup 0 per glyph data 1" Lslash dx=0 dy=0 dh=-21 dv=0 dx=0 dy=0 dh=0 dv=0
PairPos2: "'kern' Horizontal Kerning lookup 0 per glyph data 1" Ldot dx=0 dy=0 dh=-21 dv=0 dx=0 dy=0 dh=0 dv=0
PairPos2: "'kern' Horizontal Kerning lookup 0 per glyph data 1" Lcaron dx=0 dy=0 dh=-21 dv=0 dx=0 dy=0 dh=0 dv=0
PairPos2: "'kern' Horizontal Kerning lookup 0 per glyph data 1" Lcommaaccent dx=0 dy=0 dh=-21 dv=0 dx=0 dy=0 dh=0 dv=0
PairPos2: "'kern' Horizontal Kerning lookup 0 per glyph data 1" Lacute dx=0 dy=0 dh=-21 dv=0 dx=0 dy=0 dh=0 dv=0
PairPos2: "'kern' Horizontal Kerning lookup 0 per glyph data 1" Kcommaaccent dx=0 dy=0 dh=-21 dv=0 dx=0 dy=0 dh=0 dv=0
PairPos2: "'kern' Horizontal Kerning lookup 0 per glyph data 1" jcircumflex dx=0 dy=0 dh=-42 dv=0 dx=0 dy=0 dh=0 dv=0
PairPos2: "'kern' Horizontal Kerning lookup 0 per glyph data 1" Jcircumflex dx=0 dy=0 dh=-46 dv=0 dx=0 dy=0 dh=0 dv=0
PairPos2: "'kern' Horizontal Kerning lookup 0 per glyph data 1" dotlessi dx=0 dy=0 dh=-30 dv=0 dx=0 dy=0 dh=0 dv=0
PairPos2: "'kern' Horizontal Kerning lookup 0 per glyph data 1" Idotaccent dx=0 dy=0 dh=-21 dv=0 dx=0 dy=0 dh=0 dv=0
PairPos2: "'kern' Horizontal Kerning lookup 0 per glyph data 1" iogonek dx=0 dy=0 dh=-30 dv=0 dx=0 dy=0 dh=0 dv=0
PairPos2: "'kern' Horizontal Kerning lookup 0 per glyph data 1" Iogonek dx=0 dy=0 dh=-21 dv=0 dx=0 dy=0 dh=0 dv=0
PairPos2: "'kern' Horizontal Kerning lookup 0 per glyph data 1" Ibreve dx=0 dy=0 dh=-21 dv=0 dx=0 dy=0 dh=0 dv=0
PairPos2: "'kern' Horizontal Kerning lookup 0 per glyph data 1" imacron dx=0 dy=0 dh=-30 dv=0 dx=0 dy=0 dh=0 dv=0
PairPos2: "'kern' Horizontal Kerning lookup 0 per glyph data 1" itilde dx=0 dy=0 dh=-30 dv=0 dx=0 dy=0 dh=0 dv=0
PairPos2: "'kern' Horizontal Kerning lookup 0 per glyph data 1" Itilde dx=0 dy=0 dh=-21 dv=0 dx=0 dy=0 dh=0 dv=0
PairPos2: "'kern' Horizontal Kerning lookup 0 per glyph data 1" Hbar dx=0 dy=0 dh=-21 dv=0 dx=0 dy=0 dh=0 dv=0
PairPos2: "'kern' Horizontal Kerning lookup 0 per glyph data 1" Hcircumflex dx=0 dy=0 dh=-21 dv=0 dx=0 dy=0 dh=0 dv=0
PairPos2: "'kern' Horizontal Kerning lookup 0 per glyph data 1" Gcommaaccent dx=0 dy=0 dh=-69 dv=0 dx=0 dy=0 dh=0 dv=0
PairPos2: "'kern' Horizontal Kerning lookup 0 per glyph data 1" Gdotaccent dx=0 dy=0 dh=-69 dv=0 dx=0 dy=0 dh=0 dv=0
PairPos2: "'kern' Horizontal Kerning lookup 0 per glyph data 1" Gbreve dx=0 dy=0 dh=-69 dv=0 dx=0 dy=0 dh=0 dv=0
PairPos2: "'kern' Horizontal Kerning lookup 0 per glyph data 1" Gcircumflex dx=0 dy=0 dh=-69 dv=0 dx=0 dy=0 dh=0 dv=0
PairPos2: "'kern' Horizontal Kerning lookup 0 per glyph data 1" ecaron dx=0 dy=0 dh=-74 dv=0 dx=0 dy=0 dh=0 dv=0
PairPos2: "'kern' Horizontal Kerning lookup 0 per glyph data 1" Ecaron dx=0 dy=0 dh=-21 dv=0 dx=0 dy=0 dh=0 dv=0
PairPos2: "'kern' Horizontal Kerning lookup 0 per glyph data 1" eogonek dx=0 dy=0 dh=-74 dv=0 dx=0 dy=0 dh=0 dv=0
PairPos2: "'kern' Horizontal Kerning lookup 0 per glyph data 1" Eogonek dx=0 dy=0 dh=-21 dv=0 dx=0 dy=0 dh=0 dv=0
PairPos2: "'kern' Horizontal Kerning lookup 0 per glyph data 1" edotaccent dx=0 dy=0 dh=-74 dv=0 dx=0 dy=0 dh=0 dv=0
PairPos2: "'kern' Horizontal Kerning lookup 0 per glyph data 1" Edotaccent dx=0 dy=0 dh=-21 dv=0 dx=0 dy=0 dh=0 dv=0
PairPos2: "'kern' Horizontal Kerning lookup 0 per glyph data 1" ebreve dx=0 dy=0 dh=-74 dv=0 dx=0 dy=0 dh=0 dv=0
PairPos2: "'kern' Horizontal Kerning lookup 0 per glyph data 1" Ebreve dx=0 dy=0 dh=-21 dv=0 dx=0 dy=0 dh=0 dv=0
PairPos2: "'kern' Horizontal Kerning lookup 0 per glyph data 1" emacron dx=0 dy=0 dh=-74 dv=0 dx=0 dy=0 dh=0 dv=0
PairPos2: "'kern' Horizontal Kerning lookup 0 per glyph data 1" Emacron dx=0 dy=0 dh=-21 dv=0 dx=0 dy=0 dh=0 dv=0
PairPos2: "'kern' Horizontal Kerning lookup 0 per glyph data 1" dcroat dx=0 dy=0 dh=-74 dv=0 dx=0 dy=0 dh=0 dv=0
PairPos2: "'kern' Horizontal Kerning lookup 0 per glyph data 1" Dcroat dx=0 dy=0 dh=-21 dv=0 dx=0 dy=0 dh=0 dv=0
PairPos2: "'kern' Horizontal Kerning lookup 0 per glyph data 1" dcaron dx=0 dy=0 dh=-74 dv=0 dx=0 dy=0 dh=0 dv=0
PairPos2: "'kern' Horizontal Kerning lookup 0 per glyph data 1" Dcaron dx=0 dy=0 dh=-21 dv=0 dx=0 dy=0 dh=0 dv=0
PairPos2: "'kern' Horizontal Kerning lookup 0 per glyph data 1" ccaron dx=0 dy=0 dh=-74 dv=0 dx=0 dy=0 dh=0 dv=0
PairPos2: "'kern' Horizontal Kerning lookup 0 per glyph data 1" Ccaron dx=0 dy=0 dh=-69 dv=0 dx=0 dy=0 dh=0 dv=0
PairPos2: "'kern' Horizontal Kerning lookup 0 per glyph data 1" cdotaccent dx=0 dy=0 dh=-74 dv=0 dx=0 dy=0 dh=0 dv=0
PairPos2: "'kern' Horizontal Kerning lookup 0 per glyph data 1" Cdotaccent dx=0 dy=0 dh=-69 dv=0 dx=0 dy=0 dh=0 dv=0
PairPos2: "'kern' Horizontal Kerning lookup 0 per glyph data 1" ccircumflex dx=0 dy=0 dh=-74 dv=0 dx=0 dy=0 dh=0 dv=0
PairPos2: "'kern' Horizontal Kerning lookup 0 per glyph data 1" Ccircumflex dx=0 dy=0 dh=-69 dv=0 dx=0 dy=0 dh=0 dv=0
PairPos2: "'kern' Horizontal Kerning lookup 0 per glyph data 1" cacute dx=0 dy=0 dh=-74 dv=0 dx=0 dy=0 dh=0 dv=0
PairPos2: "'kern' Horizontal Kerning lookup 0 per glyph data 1" Cacute dx=0 dy=0 dh=-69 dv=0 dx=0 dy=0 dh=0 dv=0
PairPos2: "'kern' Horizontal Kerning lookup 0 per glyph data 1" aogonek dx=0 dy=0 dh=-59 dv=0 dx=0 dy=0 dh=0 dv=0
PairPos2: "'kern' Horizontal Kerning lookup 0 per glyph data 1" Aogonek dx=0 dy=0 dh=-42 dv=0 dx=0 dy=0 dh=0 dv=0
PairPos2: "'kern' Horizontal Kerning lookup 0 per glyph data 1" abreve dx=0 dy=0 dh=-59 dv=0 dx=0 dy=0 dh=0 dv=0
PairPos2: "'kern' Horizontal Kerning lookup 0 per glyph data 1" Abreve dx=0 dy=0 dh=-42 dv=0 dx=0 dy=0 dh=0 dv=0
PairPos2: "'kern' Horizontal Kerning lookup 0 per glyph data 1" amacron dx=0 dy=0 dh=-59 dv=0 dx=0 dy=0 dh=0 dv=0
PairPos2: "'kern' Horizontal Kerning lookup 0 per glyph data 1" Amacron dx=0 dy=0 dh=-42 dv=0 dx=0 dy=0 dh=0 dv=0
PairPos2: "'kern' Horizontal Kerning lookup 0 per glyph data 1" ydieresis dx=0 dy=0 dh=-111 dv=0 dx=0 dy=0 dh=0 dv=0
PairPos2: "'kern' Horizontal Kerning lookup 0 per glyph data 1" yacute dx=0 dy=0 dh=-111 dv=0 dx=0 dy=0 dh=0 dv=0
PairPos2: "'kern' Horizontal Kerning lookup 0 per glyph data 1" udieresis dx=0 dy=0 dh=-79 dv=0 dx=0 dy=0 dh=0 dv=0
PairPos2: "'kern' Horizontal Kerning lookup 0 per glyph data 1" ucircumflex dx=0 dy=0 dh=-79 dv=0 dx=0 dy=0 dh=0 dv=0
PairPos2: "'kern' Horizontal Kerning lookup 0 per glyph data 1" uacute dx=0 dy=0 dh=-79 dv=0 dx=0 dy=0 dh=0 dv=0
PairPos2: "'kern' Horizontal Kerning lookup 0 per glyph data 1" ugrave dx=0 dy=0 dh=-79 dv=0 dx=0 dy=0 dh=0 dv=0
PairPos2: "'kern' Horizontal Kerning lookup 0 per glyph data 1" oslash dx=0 dy=0 dh=-74 dv=0 dx=0 dy=0 dh=0 dv=0
PairPos2: "'kern' Horizontal Kerning lookup 0 per glyph data 1" odieresis dx=0 dy=0 dh=-74 dv=0 dx=0 dy=0 dh=0 dv=0
PairPos2: "'kern' Horizontal Kerning lookup 0 per glyph data 1" otilde dx=0 dy=0 dh=-74 dv=0 dx=0 dy=0 dh=0 dv=0
PairPos2: "'kern' Horizontal Kerning lookup 0 per glyph data 1" ocircumflex dx=0 dy=0 dh=-74 dv=0 dx=0 dy=0 dh=0 dv=0
PairPos2: "'kern' Horizontal Kerning lookup 0 per glyph data 1" oacute dx=0 dy=0 dh=-74 dv=0 dx=0 dy=0 dh=0 dv=0
PairPos2: "'kern' Horizontal Kerning lookup 0 per glyph data 1" ograve dx=0 dy=0 dh=-74 dv=0 dx=0 dy=0 dh=0 dv=0
PairPos2: "'kern' Horizontal Kerning lookup 0 per glyph data 1" idieresis dx=0 dy=0 dh=-30 dv=0 dx=0 dy=0 dh=0 dv=0
PairPos2: "'kern' Horizontal Kerning lookup 0 per glyph data 1" icircumflex dx=0 dy=0 dh=-30 dv=0 dx=0 dy=0 dh=0 dv=0
PairPos2: "'kern' Horizontal Kerning lookup 0 per glyph data 1" iacute dx=0 dy=0 dh=-30 dv=0 dx=0 dy=0 dh=0 dv=0
PairPos2: "'kern' Horizontal Kerning lookup 0 per glyph data 1" igrave dx=0 dy=0 dh=-30 dv=0 dx=0 dy=0 dh=0 dv=0
PairPos2: "'kern' Horizontal Kerning lookup 0 per glyph data 1" edieresis dx=0 dy=0 dh=-74 dv=0 dx=0 dy=0 dh=0 dv=0
PairPos2: "'kern' Horizontal Kerning lookup 0 per glyph data 1" ecircumflex dx=0 dy=0 dh=-74 dv=0 dx=0 dy=0 dh=0 dv=0
PairPos2: "'kern' Horizontal Kerning lookup 0 per glyph data 1" eacute dx=0 dy=0 dh=-74 dv=0 dx=0 dy=0 dh=0 dv=0
PairPos2: "'kern' Horizontal Kerning lookup 0 per glyph data 1" egrave dx=0 dy=0 dh=-74 dv=0 dx=0 dy=0 dh=0 dv=0
PairPos2: "'kern' Horizontal Kerning lookup 0 per glyph data 1" ccedilla dx=0 dy=0 dh=-74 dv=0 dx=0 dy=0 dh=0 dv=0
PairPos2: "'kern' Horizontal Kerning lookup 0 per glyph data 1" ae dx=0 dy=0 dh=-59 dv=0 dx=0 dy=0 dh=0 dv=0
PairPos2: "'kern' Horizontal Kerning lookup 0 per glyph data 1" aring dx=0 dy=0 dh=-59 dv=0 dx=0 dy=0 dh=0 dv=0
PairPos2: "'kern' Horizontal Kerning lookup 0 per glyph data 1" adieresis dx=0 dy=0 dh=-59 dv=0 dx=0 dy=0 dh=0 dv=0
PairPos2: "'kern' Horizontal Kerning lookup 0 per glyph data 1" atilde dx=0 dy=0 dh=-59 dv=0 dx=0 dy=0 dh=0 dv=0
PairPos2: "'kern' Horizontal Kerning lookup 0 per glyph data 1" acircumflex dx=0 dy=0 dh=-59 dv=0 dx=0 dy=0 dh=0 dv=0
PairPos2: "'kern' Horizontal Kerning lookup 0 per glyph data 1" aacute dx=0 dy=0 dh=-59 dv=0 dx=0 dy=0 dh=0 dv=0
PairPos2: "'kern' Horizontal Kerning lookup 0 per glyph data 1" agrave dx=0 dy=0 dh=-59 dv=0 dx=0 dy=0 dh=0 dv=0
PairPos2: "'kern' Horizontal Kerning lookup 0 per glyph data 1" Yacute dx=0 dy=0 dh=-37 dv=0 dx=0 dy=0 dh=0 dv=0
PairPos2: "'kern' Horizontal Kerning lookup 0 per glyph data 1" Udieresis dx=0 dy=0 dh=-37 dv=0 dx=0 dy=0 dh=0 dv=0
PairPos2: "'kern' Horizontal Kerning lookup 0 per glyph data 1" Ucircumflex dx=0 dy=0 dh=-37 dv=0 dx=0 dy=0 dh=0 dv=0
PairPos2: "'kern' Horizontal Kerning lookup 0 per glyph data 1" Uacute dx=0 dy=0 dh=-37 dv=0 dx=0 dy=0 dh=0 dv=0
PairPos2: "'kern' Horizontal Kerning lookup 0 per glyph data 1" Ugrave dx=0 dy=0 dh=-37 dv=0 dx=0 dy=0 dh=0 dv=0
PairPos2: "'kern' Horizontal Kerning lookup 0 per glyph data 1" Oslash dx=0 dy=0 dh=-69 dv=0 dx=0 dy=0 dh=0 dv=0
PairPos2: "'kern' Horizontal Kerning lookup 0 per glyph data 1" Odieresis dx=0 dy=0 dh=-69 dv=0 dx=0 dy=0 dh=0 dv=0
PairPos2: "'kern' Horizontal Kerning lookup 0 per glyph data 1" Otilde dx=0 dy=0 dh=-69 dv=0 dx=0 dy=0 dh=0 dv=0
PairPos2: "'kern' Horizontal Kerning lookup 0 per glyph data 1" Ocircumflex dx=0 dy=0 dh=-69 dv=0 dx=0 dy=0 dh=0 dv=0
PairPos2: "'kern' Horizontal Kerning lookup 0 per glyph data 1" Oacute dx=0 dy=0 dh=-69 dv=0 dx=0 dy=0 dh=0 dv=0
PairPos2: "'kern' Horizontal Kerning lookup 0 per glyph data 1" Ograve dx=0 dy=0 dh=-69 dv=0 dx=0 dy=0 dh=0 dv=0
PairPos2: "'kern' Horizontal Kerning lookup 0 per glyph data 1" Ntilde dx=0 dy=0 dh=-21 dv=0 dx=0 dy=0 dh=0 dv=0
PairPos2: "'kern' Horizontal Kerning lookup 0 per glyph data 1" Eth dx=0 dy=0 dh=-21 dv=0 dx=0 dy=0 dh=0 dv=0
PairPos2: "'kern' Horizontal Kerning lookup 0 per glyph data 1" Idieresis dx=0 dy=0 dh=-21 dv=0 dx=0 dy=0 dh=0 dv=0
PairPos2: "'kern' Horizontal Kerning lookup 0 per glyph data 1" Icircumflex dx=0 dy=0 dh=-21 dv=0 dx=0 dy=0 dh=0 dv=0
PairPos2: "'kern' Horizontal Kerning lookup 0 per glyph data 1" Iacute dx=0 dy=0 dh=-21 dv=0 dx=0 dy=0 dh=0 dv=0
PairPos2: "'kern' Horizontal Kerning lookup 0 per glyph data 1" Igrave dx=0 dy=0 dh=-21 dv=0 dx=0 dy=0 dh=0 dv=0
PairPos2: "'kern' Horizontal Kerning lookup 0 per glyph data 1" Edieresis dx=0 dy=0 dh=-21 dv=0 dx=0 dy=0 dh=0 dv=0
PairPos2: "'kern' Horizontal Kerning lookup 0 per glyph data 1" Ecircumflex dx=0 dy=0 dh=-21 dv=0 dx=0 dy=0 dh=0 dv=0
PairPos2: "'kern' Horizontal Kerning lookup 0 per glyph data 1" Eacute dx=0 dy=0 dh=-21 dv=0 dx=0 dy=0 dh=0 dv=0
PairPos2: "'kern' Horizontal Kerning lookup 0 per glyph data 1" Egrave dx=0 dy=0 dh=-21 dv=0 dx=0 dy=0 dh=0 dv=0
PairPos2: "'kern' Horizontal Kerning lookup 0 per glyph data 1" Ccedilla dx=0 dy=0 dh=-69 dv=0 dx=0 dy=0 dh=0 dv=0
PairPos2: "'kern' Horizontal Kerning lookup 0 per glyph data 1" AE dx=0 dy=0 dh=-42 dv=0 dx=0 dy=0 dh=0 dv=0
PairPos2: "'kern' Horizontal Kerning lookup 0 per glyph data 1" Aring dx=0 dy=0 dh=-42 dv=0 dx=0 dy=0 dh=0 dv=0
PairPos2: "'kern' Horizontal Kerning lookup 0 per glyph data 1" Adieresis dx=0 dy=0 dh=-42 dv=0 dx=0 dy=0 dh=0 dv=0
PairPos2: "'kern' Horizontal Kerning lookup 0 per glyph data 1" Atilde dx=0 dy=0 dh=-42 dv=0 dx=0 dy=0 dh=0 dv=0
PairPos2: "'kern' Horizontal Kerning lookup 0 per glyph data 1" Acircumflex dx=0 dy=0 dh=-42 dv=0 dx=0 dy=0 dh=0 dv=0
PairPos2: "'kern' Horizontal Kerning lookup 0 per glyph data 1" Aacute dx=0 dy=0 dh=-42 dv=0 dx=0 dy=0 dh=0 dv=0
PairPos2: "'kern' Horizontal Kerning lookup 0 per glyph data 1" Agrave dx=0 dy=0 dh=-42 dv=0 dx=0 dy=0 dh=0 dv=0
PairPos2: "'kern' Horizontal Kerning lookup 0 per glyph data 1" y dx=0 dy=0 dh=-111 dv=0 dx=0 dy=0 dh=0 dv=0
PairPos2: "'kern' Horizontal Kerning lookup 0 per glyph data 1" u dx=0 dy=0 dh=-79 dv=0 dx=0 dy=0 dh=0 dv=0
PairPos2: "'kern' Horizontal Kerning lookup 0 per glyph data 1" q dx=0 dy=0 dh=-74 dv=0 dx=0 dy=0 dh=0 dv=0
PairPos2: "'kern' Horizontal Kerning lookup 0 per glyph data 1" o dx=0 dy=0 dh=-74 dv=0 dx=0 dy=0 dh=0 dv=0
PairPos2: "'kern' Horizontal Kerning lookup 0 per glyph data 1" j dx=0 dy=0 dh=-42 dv=0 dx=0 dy=0 dh=0 dv=0
PairPos2: "'kern' Horizontal Kerning lookup 0 per glyph data 1" i dx=0 dy=0 dh=-30 dv=0 dx=0 dy=0 dh=0 dv=0
PairPos2: "'kern' Horizontal Kerning lookup 0 per glyph data 1" e dx=0 dy=0 dh=-74 dv=0 dx=0 dy=0 dh=0 dv=0
PairPos2: "'kern' Horizontal Kerning lookup 0 per glyph data 1" d dx=0 dy=0 dh=-74 dv=0 dx=0 dy=0 dh=0 dv=0
PairPos2: "'kern' Horizontal Kerning lookup 0 per glyph data 1" c dx=0 dy=0 dh=-74 dv=0 dx=0 dy=0 dh=0 dv=0
PairPos2: "'kern' Horizontal Kerning lookup 0 per glyph data 1" a dx=0 dy=0 dh=-59 dv=0 dx=0 dy=0 dh=0 dv=0
PairPos2: "'kern' Horizontal Kerning lookup 0 per glyph data 1" Y dx=0 dy=0 dh=-37 dv=0 dx=0 dy=0 dh=0 dv=0
PairPos2: "'kern' Horizontal Kerning lookup 0 per glyph data 1" X dx=0 dy=0 dh=-23 dv=0 dx=0 dy=0 dh=0 dv=0
PairPos2: "'kern' Horizontal Kerning lookup 0 per glyph data 1" W dx=0 dy=0 dh=-37 dv=0 dx=0 dy=0 dh=0 dv=0
PairPos2: "'kern' Horizontal Kerning lookup 0 per glyph data 1" V dx=0 dy=0 dh=-37 dv=0 dx=0 dy=0 dh=0 dv=0
PairPos2: "'kern' Horizontal Kerning lookup 0 per glyph data 1" U dx=0 dy=0 dh=-37 dv=0 dx=0 dy=0 dh=0 dv=0
PairPos2: "'kern' Horizontal Kerning lookup 0 per glyph data 1" T dx=0 dy=0 dh=-21 dv=0 dx=0 dy=0 dh=0 dv=0
PairPos2: "'kern' Horizontal Kerning lookup 0 per glyph data 1" S dx=0 dy=0 dh=-26 dv=0 dx=0 dy=0 dh=0 dv=0
PairPos2: "'kern' Horizontal Kerning lookup 0 per glyph data 1" R dx=0 dy=0 dh=-21 dv=0 dx=0 dy=0 dh=0 dv=0
PairPos2: "'kern' Horizontal Kerning lookup 0 per glyph data 1" Q dx=0 dy=0 dh=-69 dv=0 dx=0 dy=0 dh=0 dv=0
PairPos2: "'kern' Horizontal Kerning lookup 0 per glyph data 1" P dx=0 dy=0 dh=-21 dv=0 dx=0 dy=0 dh=0 dv=0
PairPos2: "'kern' Horizontal Kerning lookup 0 per glyph data 1" O dx=0 dy=0 dh=-69 dv=0 dx=0 dy=0 dh=0 dv=0
PairPos2: "'kern' Horizontal Kerning lookup 0 per glyph data 1" N dx=0 dy=0 dh=-21 dv=0 dx=0 dy=0 dh=0 dv=0
PairPos2: "'kern' Horizontal Kerning lookup 0 per glyph data 1" M dx=0 dy=0 dh=-21 dv=0 dx=0 dy=0 dh=0 dv=0
PairPos2: "'kern' Horizontal Kerning lookup 0 per glyph data 1" L dx=0 dy=0 dh=-21 dv=0 dx=0 dy=0 dh=0 dv=0
PairPos2: "'kern' Horizontal Kerning lookup 0 per glyph data 1" K dx=0 dy=0 dh=-21 dv=0 dx=0 dy=0 dh=0 dv=0
PairPos2: "'kern' Horizontal Kerning lookup 0 per glyph data 1" J dx=0 dy=0 dh=-46 dv=0 dx=0 dy=0 dh=0 dv=0
PairPos2: "'kern' Horizontal Kerning lookup 0 per glyph data 1" I dx=0 dy=0 dh=-21 dv=0 dx=0 dy=0 dh=0 dv=0
PairPos2: "'kern' Horizontal Kerning lookup 0 per glyph data 1" H dx=0 dy=0 dh=-21 dv=0 dx=0 dy=0 dh=0 dv=0
PairPos2: "'kern' Horizontal Kerning lookup 0 per glyph data 1" G dx=0 dy=0 dh=-69 dv=0 dx=0 dy=0 dh=0 dv=0
PairPos2: "'kern' Horizontal Kerning lookup 0 per glyph data 1" F dx=0 dy=0 dh=-21 dv=0 dx=0 dy=0 dh=0 dv=0
PairPos2: "'kern' Horizontal Kerning lookup 0 per glyph data 1" E dx=0 dy=0 dh=-21 dv=0 dx=0 dy=0 dh=0 dv=0
PairPos2: "'kern' Horizontal Kerning lookup 0 per glyph data 1" D dx=0 dy=0 dh=-21 dv=0 dx=0 dy=0 dh=0 dv=0
PairPos2: "'kern' Horizontal Kerning lookup 0 per glyph data 1" C dx=0 dy=0 dh=-69 dv=0 dx=0 dy=0 dh=0 dv=0
PairPos2: "'kern' Horizontal Kerning lookup 0 per glyph data 1" B dx=0 dy=0 dh=-21 dv=0 dx=0 dy=0 dh=0 dv=0
PairPos2: "'kern' Horizontal Kerning lookup 0 per glyph data 1" A dx=0 dy=0 dh=-42 dv=0 dx=0 dy=0 dh=0 dv=0
PairPos2: "'kern' Horizontal Kerning lookup 0 per glyph data 1" hyphen dx=0 dy=0 dh=-55 dv=0 dx=0 dy=0 dh=0 dv=0
EndChar

StartChar: Y
Encoding: 89 89 60
Width: 759
GlyphClass: 2
Flags: W
LayerCount: 2
Fore
SplineSet
500 0 m 2,0,-1
 259 0 l 2,1,2
 247 0 247 0 247 12 c 2,3,-1
 247 63 l 2,4,5
 247 75 247 75 259 75 c 2,6,-1
 336 75 l 1,7,-1
 336 289 l 1,8,-1
 296 358 l 1,9,10
 166 589 166 589 129 643 c 1,11,-1
 61 643 l 2,12,13
 48 643 48 643 48 655 c 2,14,-1
 48 706 l 2,15,16
 48 718 48 718 61 718 c 2,17,-1
 286 718 l 2,18,19
 298 718 298 718 298 706 c 2,20,-1
 298 655 l 2,21,22
 298 643 298 643 286 643 c 2,23,-1
 220 643 l 1,24,-1
 377 365 l 1,25,-1
 383 365 l 1,26,-1
 539 643 l 1,27,-1
 473 643 l 2,28,29
 461 643 461 643 461 655 c 2,30,-1
 461 706 l 2,31,32
 461 718 461 718 473 718 c 2,33,-1
 699 718 l 2,34,35
 711 718 711 718 711 706 c 2,36,-1
 711 655 l 2,37,38
 711 643 711 643 699 643 c 2,39,-1
 630 643 l 1,40,41
 581 571 581 571 502.5 431 c 128,-1,42
 424 291 424 291 423 290 c 1,43,-1
 423 75 l 1,44,-1
 500 75 l 2,45,46
 512 75 512 75 512 63 c 2,47,-1
 512 12 l 2,48,49
 512 0 512 0 500 0 c 2,0,-1
EndSplineSet
EndChar

StartChar: Z
Encoding: 90 90 61
Width: 641
GlyphClass: 2
Flags: W
LayerCount: 2
Fore
SplineSet
580 0 m 2,0,-1
 62 0 l 2,1,2
 48 0 48 0 48 13 c 2,3,-1
 48 56 l 2,4,5
 48 66 48 66 68 90 c 1,6,-1
 474 643 l 1,7,-1
 132 643 l 1,8,-1
 132 562 l 2,9,10
 132 548 132 548 118 548 c 2,11,-1
 62 548 l 2,12,13
 48 548 48 548 48 562 c 2,14,-1
 48 705 l 2,15,16
 48 718 48 718 62 718 c 2,17,-1
 580 718 l 2,18,19
 593 718 593 718 593 705 c 2,20,-1
 593 668 l 2,21,22
 593 651 593 651 573 627 c 1,23,-1
 167 75 l 1,24,-1
 510 75 l 1,25,-1
 510 156 l 2,26,27
 510 170 510 170 523 170 c 2,28,-1
 580 170 l 2,29,30
 593 170 593 170 593 156 c 2,31,-1
 593 13 l 2,32,33
 593 0 593 0 580 0 c 2,0,-1
EndSplineSet
EndChar

StartChar: bracketleft
Encoding: 91 91 62
Width: 304
GlyphClass: 2
Flags: W
LayerCount: 2
Fore
SplineSet
252 -71 m 2,0,-1
 51 -71 l 2,1,2
 38 -71 38 -71 38 -59 c 2,3,-1
 38 754 l 2,4,5
 38 766 38 766 51 766 c 2,6,-1
 252 766 l 2,7,8
 266 766 266 766 266 752 c 2,9,-1
 266 700 l 2,10,11
 266 687 266 687 252 687 c 2,12,-1
 122 687 l 1,13,-1
 122 8 l 1,14,-1
 252 8 l 2,15,16
 266 8 266 8 266 -6 c 2,17,-1
 266 -58 l 2,18,19
 266 -71 266 -71 252 -71 c 2,0,-1
EndSplineSet
EndChar

StartChar: backslash
Encoding: 92 92 63
Width: 405
GlyphClass: 2
Flags: W
LayerCount: 2
Fore
SplineSet
366 -67 m 0,0,1
 366 -74 366 -74 356 -74 c 2,2,-1
 297 -74 l 2,3,4
 286 -74 286 -74 281 -62 c 1,5,-1
 39 748 l 2,6,7
 38 750 38 750 38 752 c 0,8,9
 38 760 38 760 48 760 c 2,10,-1
 107 760 l 2,11,12
 120 760 120 760 123 748 c 2,13,-1
 365 -62 l 2,14,15
 366 -65 366 -65 366 -67 c 0,0,1
EndSplineSet
EndChar

StartChar: bracketright
Encoding: 93 93 64
Width: 304
GlyphClass: 2
Flags: W
LayerCount: 2
Fore
SplineSet
266 754 m 2,0,-1
 266 -59 l 2,1,2
 266 -71 266 -71 253 -71 c 2,3,-1
 52 -71 l 2,4,5
 38 -71 38 -71 38 -58 c 2,6,-1
 38 -6 l 2,7,8
 38 8 38 8 52 8 c 2,9,-1
 182 8 l 1,10,-1
 182 687 l 1,11,-1
 52 687 l 2,12,13
 38 687 38 687 38 700 c 2,14,-1
 38 752 l 2,15,16
 38 766 38 766 52 766 c 2,17,-1
 253 766 l 2,18,19
 266 766 266 766 266 754 c 2,0,-1
EndSplineSet
EndChar

StartChar: underscore
Encoding: 95 95 65
Width: 554
GlyphClass: 2
Flags: W
LayerCount: 2
Fore
SplineSet
503 -100 m 2,0,-1
 52 -100 l 2,1,2
 38 -100 38 -100 38 -87 c 2,3,-1
 38 -36 l 2,4,5
 38 -23 38 -23 52 -23 c 2,6,-1
 503 -23 l 2,7,8
 516 -23 516 -23 516 -36 c 2,9,-1
 516 -87 l 2,10,11
 516 -100 516 -100 503 -100 c 2,0,-1
EndSplineSet
EndChar

StartChar: grave
Encoding: 96 96 66
Width: 291
GlyphClass: 2
Flags: W
LayerCount: 2
Fore
SplineSet
227 575 m 2,0,1
 222 569 222 569 217 569 c 128,-1,2
 212 569 212 569 208 573 c 2,3,-1
 40 707 l 2,4,5
 35 711 35 711 35 716 c 128,-1,6
 35 721 35 721 38 726 c 1,7,-1
 70 763 l 2,8,9
 75 769 75 769 79.5 769 c 128,-1,10
 84 769 84 769 89 765 c 2,11,-1
 250 623 l 2,12,13
 256 619 256 619 256 614 c 128,-1,14
 256 609 256 609 252 604 c 2,15,-1
 227 575 l 2,0,1
EndSplineSet
EndChar

StartChar: a
Encoding: 97 97 67
Width: 580
GlyphClass: 2
Flags: W
LayerCount: 2
Fore
SplineSet
529 0 m 2,0,-1
 442 0 l 2,1,2
 399 0 399 0 399 42 c 2,3,-1
 399 93 l 1,4,-1
 397 93 l 1,5,6
 324 -8 324 -8 202 -8 c 0,7,8
 130 -8 130 -8 84 29.5 c 128,-1,9
 38 67 38 67 38 131 c 0,10,11
 38 213 38 213 109.5 251.5 c 128,-1,12
 181 290 181 290 306 290 c 2,13,-1
 390 290 l 1,14,-1
 390 302 l 2,15,16
 390 427 390 427 260 427 c 0,17,18
 199 427 199 427 172 415.5 c 128,-1,19
 145 404 145 404 133.5 397 c 128,-1,20
 122 390 122 390 116 386 c 0,21,22
 101 374 101 374 94 384 c 2,23,-1
 66 419 l 2,24,25
 59 427 59 427 68 435 c 1,26,27
 85 457 85 457 138 478 c 256,28,29
 191 499 191 499 263 499 c 0,30,31
 473 499 473 499 473 299 c 2,32,-1
 473 67 l 1,33,-1
 529 67 l 2,34,35
 541 67 541 67 541 55 c 2,36,-1
 541 12 l 2,37,38
 541 0 541 0 529 0 c 2,0,-1
390 230 m 1,39,-1
 311 230 l 2,40,41
 253 230 253 230 215 224 c 128,-1,42
 177 218 177 218 150.5 198 c 128,-1,43
 124 178 124 178 124 143 c 128,-1,44
 124 108 124 108 152.5 85.5 c 128,-1,45
 181 63 181 63 227 63 c 0,46,47
 324 63 324 63 390 149 c 1,48,-1
 390 230 l 1,39,-1
EndSplineSet
Substitution2: "'salt' Stylistic Alternatives lookup 0 subtable" a.alt
EndChar

StartChar: b
Encoding: 98 98 68
Width: 613
GlyphClass: 2
Flags: W
LayerCount: 2
Fore
SplineSet
170 0 m 2,0,-1
 119 0 l 2,1,2
 107 0 107 0 107 12 c 2,3,-1
 107 651 l 1,4,-1
 51 651 l 2,5,6
 38 651 38 651 38 663 c 2,7,-1
 38 706 l 2,8,9
 38 718 38 718 51 718 c 2,10,-1
 174 718 l 2,11,12
 187 718 187 718 187 706 c 2,13,-1
 187 440 l 1,14,-1
 184 401 l 1,15,-1
 187 401 l 1,16,17
 204 442 204 442 246 470.5 c 128,-1,18
 288 499 288 499 350 499 c 0,19,20
 451 499 451 499 512.5 429.5 c 128,-1,21
 574 360 574 360 574 246.5 c 128,-1,22
 574 133 574 133 511.5 63 c 128,-1,23
 449 -7 449 -7 349 -7 c 0,24,25
 286 -7 286 -7 244 22.5 c 128,-1,26
 202 52 202 52 184 94 c 1,27,-1
 183 94 l 1,28,-1
 183 12 l 2,29,30
 183 0 183 0 170 0 c 2,0,-1
228.5 113.5 m 128,-1,32
 272 63 272 63 339 63 c 128,-1,33
 406 63 406 63 449 114 c 128,-1,34
 492 165 492 165 492 247.5 c 128,-1,35
 492 330 492 330 448 379.5 c 128,-1,36
 404 429 404 429 338.5 429 c 128,-1,37
 273 429 273 429 229 380 c 128,-1,38
 185 331 185 331 185 247.5 c 128,-1,31
 185 164 185 164 228.5 113.5 c 128,-1,32
EndSplineSet
EndChar

StartChar: c
Encoding: 99 99 69
Width: 539
GlyphClass: 2
Flags: W
LayerCount: 2
Fore
SplineSet
494 116 m 2,0,1
 500 111 500 111 500 106.5 c 128,-1,2
 500 102 500 102 495.5 94.5 c 128,-1,3
 491 87 491 87 476.5 72 c 128,-1,4
 462 57 462 57 436.5 38 c 128,-1,5
 411 19 411 19 370.5 6 c 128,-1,6
 330 -7 330 -7 284 -7 c 0,7,8
 179 -7 179 -7 108.5 62 c 128,-1,9
 38 131 38 131 38 247.5 c 128,-1,10
 38 364 38 364 108.5 431.5 c 128,-1,11
 179 499 179 499 281 499 c 128,-1,12
 383 499 383 499 435 425 c 1,13,-1
 436 425 l 1,14,-1
 435 480 l 2,15,16
 435 493 435 493 448 493 c 2,17,-1
 486 493 l 2,18,19
 498 493 498 493 498 480 c 2,20,-1
 498 310 l 2,21,22
 498 298 498 298 486 298 c 2,23,-1
 440 298 l 2,24,25
 428 298 428 298 428 310 c 2,26,-1
 428 327 l 1,27,28
 427 363 427 363 387 396 c 128,-1,29
 347 429 347 429 285.5 429 c 128,-1,30
 224 429 224 429 173 380 c 128,-1,31
 122 331 122 331 122 246.5 c 128,-1,32
 122 162 122 162 172 112.5 c 128,-1,33
 222 63 222 63 284 63 c 128,-1,34
 346 63 346 63 389.5 89.5 c 128,-1,35
 433 116 433 116 448 141 c 0,36,37
 455 153 455 153 465 144 c 2,38,-1
 494 116 l 2,0,1
EndSplineSet
EndChar

StartChar: d
Encoding: 100 100 70
Width: 612
GlyphClass: 2
Flags: W
LayerCount: 2
Fore
SplineSet
562 0 m 2,0,-1
 475 0 l 2,1,2
 452 0 452 0 441.5 9.5 c 128,-1,3
 431 19 431 19 431 42 c 2,4,-1
 431 98 l 1,5,-1
 430 98 l 1,6,7
 414 56 414 56 370 24.5 c 128,-1,8
 326 -7 326 -7 263 -7 c 0,9,10
 163 -7 163 -7 100.5 63 c 128,-1,11
 38 133 38 133 38 246.5 c 128,-1,12
 38 360 38 360 100.5 429.5 c 128,-1,13
 163 499 163 499 264 499 c 0,14,15
 326 499 326 499 367 470.5 c 128,-1,16
 408 442 408 442 426 401 c 1,17,-1
 427 401 l 1,18,19
 426 421 426 421 426 434 c 2,20,-1
 426 651 l 1,21,-1
 370 651 l 2,22,23
 357 651 357 651 357 663 c 2,24,-1
 357 706 l 2,25,26
 357 718 357 718 370 718 c 2,27,-1
 494 718 l 2,28,29
 506 718 506 718 506 706 c 2,30,-1
 506 67 l 1,31,-1
 562 67 l 2,32,33
 574 67 574 67 574 55 c 2,34,-1
 574 12 l 2,35,36
 574 0 574 0 562 0 c 2,0,-1
163.5 114 m 128,-1,38
 207 63 207 63 274 63 c 128,-1,39
 341 63 341 63 384 113.5 c 128,-1,40
 427 164 427 164 427 248 c 128,-1,41
 427 332 427 332 383 380.5 c 128,-1,42
 339 429 339 429 274 429 c 128,-1,43
 209 429 209 429 164.5 380 c 128,-1,44
 120 331 120 331 120 248 c 128,-1,37
 120 165 120 165 163.5 114 c 128,-1,38
EndSplineSet
EndChar

StartChar: e
Encoding: 101 101 71
Width: 538
GlyphClass: 2
Flags: W
LayerCount: 2
Fore
SplineSet
483 236 m 2,0,-1
 123 236 l 1,1,2
 127 153 127 153 175.5 108 c 128,-1,3
 224 63 224 63 285 63 c 128,-1,4
 346 63 346 63 389.5 89 c 128,-1,5
 433 115 433 115 448 140 c 1,6,7
 456 150 456 150 466 143 c 1,8,-1
 493 116 l 2,9,10
 499 110 499 110 499 105.5 c 128,-1,11
 499 101 499 101 494.5 94 c 128,-1,12
 490 87 490 87 476 72 c 128,-1,13
 462 57 462 57 436.5 38 c 128,-1,14
 411 19 411 19 370.5 6 c 128,-1,15
 330 -7 330 -7 284 -7 c 0,16,17
 179 -7 179 -7 108.5 62 c 128,-1,18
 38 131 38 131 38 247.5 c 128,-1,19
 38 364 38 364 108 431.5 c 128,-1,20
 178 499 178 499 279.5 499 c 128,-1,21
 381 499 381 499 439 433.5 c 128,-1,22
 497 368 497 368 497 257 c 0,23,24
 497 253 497 253 497 249 c 0,25,26
 497 236 497 236 483 236 c 2,0,-1
375 396 m 128,-1,28
 339 433 339 433 279 433 c 128,-1,29
 219 433 219 433 176 399 c 128,-1,30
 133 365 133 365 125 297 c 1,31,-1
 414 297 l 1,32,27
 411 359 411 359 375 396 c 128,-1,28
EndSplineSet
EndChar

StartChar: f
Encoding: 102 102 72
Width: 387
GlyphClass: 2
Flags: W
LayerCount: 2
Fore
SplineSet
279 0 m 2,0,-1
 53 0 l 2,1,2
 40 0 40 0 40 12 c 2,3,-1
 40 55 l 2,4,5
 40 67 40 67 53 67 c 2,6,-1
 108 67 l 1,7,-1
 108 425 l 1,8,-1
 51 425 l 2,9,10
 38 425 38 425 38 437 c 2,11,-1
 38 480 l 2,12,13
 38 492 38 492 51 492 c 2,14,-1
 108 492 l 1,15,-1
 108 554 l 2,16,17
 108 637 108 637 150.5 680.5 c 128,-1,18
 193 724 193 724 269 724 c 0,19,20
 325 724 325 724 370 684 c 0,21,22
 376 679 376 679 376 674.5 c 128,-1,23
 376 670 376 670 373 667 c 2,24,-1
 349 636 l 1,25,26
 340 627 340 627 332 634 c 0,27,28
 308 653 308 653 272 653 c 128,-1,29
 236 653 236 653 213.5 627.5 c 128,-1,30
 191 602 191 602 191 553 c 2,31,-1
 191 492 l 1,32,-1
 319 492 l 2,33,34
 332 492 332 492 332 480 c 2,35,-1
 332 437 l 2,36,37
 332 425 332 425 319 425 c 2,38,-1
 191 425 l 1,39,-1
 191 67 l 1,40,-1
 279 67 l 2,41,42
 291 67 291 67 291 55 c 2,43,-1
 291 12 l 2,44,45
 291 0 291 0 279 0 c 2,0,-1
EndSplineSet
EndChar

StartChar: g
Encoding: 103 103 73
Width: 611
GlyphClass: 2
Flags: W
LayerCount: 2
Fore
SplineSet
268 -234 m 0,0,1
 218 -234 218 -234 192.5 -227 c 128,-1,2
 167 -220 167 -220 151.5 -214.5 c 128,-1,3
 136 -209 136 -209 125 -203.5 c 128,-1,4
 114 -198 114 -198 104 -192 c 0,5,6
 60 -163 60 -163 71 -150 c 1,7,-1
 97 -113 l 2,8,9
 103 -104 103 -104 114 -112 c 0,10,11
 115 -112 115 -112 120.5 -116.5 c 128,-1,12
 126 -121 126 -121 131.5 -125 c 128,-1,13
 137 -129 137 -129 146.5 -134.5 c 128,-1,14
 156 -140 156 -140 168 -144.5 c 128,-1,15
 180 -149 180 -149 194 -153 c 0,16,17
 227 -162 227 -162 267 -162 c 0,18,19
 339 -162 339 -162 382.5 -127.5 c 128,-1,20
 426 -93 426 -93 426 -19 c 2,21,-1
 426 95 l 1,22,23
 408 53 408 53 366.5 23 c 128,-1,24
 325 -7 325 -7 263 -7 c 0,25,26
 161 -7 161 -7 99.5 64 c 128,-1,27
 38 135 38 135 38 248 c 128,-1,28
 38 361 38 361 100.5 430 c 128,-1,29
 163 499 163 499 263 499 c 0,30,31
 325 499 325 499 367.5 470.5 c 128,-1,32
 410 442 410 442 429 401 c 1,33,-1
 431 401 l 1,34,-1
 430 480 l 2,35,36
 430 492 430 492 442 492 c 2,37,-1
 560 492 l 2,38,39
 572 492 572 492 572 480 c 2,40,-1
 572 437 l 2,41,42
 572 425 572 425 560 425 c 2,43,-1
 506 425 l 1,44,-1
 506 -19 l 2,45,46
 506 -126 506 -126 440.5 -180 c 128,-1,47
 375 -234 375 -234 268 -234 c 0,0,1
164 113.5 m 128,-1,49
 208 63 208 63 274 63 c 128,-1,50
 340 63 340 63 383.5 113 c 128,-1,51
 427 163 427 163 427 247 c 128,-1,52
 427 331 427 331 383.5 380 c 128,-1,53
 340 429 340 429 274 429 c 128,-1,54
 208 429 208 429 164 379 c 128,-1,55
 120 329 120 329 120 246.5 c 128,-1,48
 120 164 120 164 164 113.5 c 128,-1,49
EndSplineSet
EndChar

StartChar: h
Encoding: 104 104 74
Width: 621
GlyphClass: 2
Flags: W
LayerCount: 2
Fore
SplineSet
570 0 m 2,0,-1
 475 0 l 2,1,2
 432 0 432 0 432 42 c 2,3,-1
 432 305 l 2,4,5
 432 363 432 363 404 395 c 128,-1,6
 376 427 376 427 322 427 c 0,7,8
 281 427 281 427 259.5 414.5 c 128,-1,9
 238 402 238 402 227 392.5 c 128,-1,10
 216 383 216 383 209 374 c 0,11,12
 197 358 197 358 189 341 c 1,13,-1
 189 67 l 1,14,-1
 242 67 l 2,15,16
 255 67 255 67 255 55 c 2,17,-1
 255 12 l 2,18,19
 255 0 255 0 242 0 c 2,20,-1
 51 0 l 2,21,22
 38 0 38 0 38 12 c 2,23,-1
 38 55 l 2,24,25
 38 67 38 67 51 67 c 2,26,-1
 106 67 l 1,27,-1
 106 651 l 1,28,-1
 51 651 l 2,29,30
 38 651 38 651 38 663 c 2,31,-1
 38 706 l 2,32,33
 38 718 38 718 51 718 c 2,34,-1
 177 718 l 2,35,36
 189 718 189 718 189 706 c 2,37,-1
 189 483 l 2,38,39
 189 450 189 450 185 422 c 1,40,-1
 187 422 l 1,41,42
 236 499 236 499 343 499 c 0,43,44
 423 499 423 499 468 452 c 128,-1,45
 513 405 513 405 514 325 c 1,46,-1
 514 67 l 1,47,-1
 570 67 l 2,48,49
 583 67 583 67 583 55 c 2,50,-1
 583 12 l 2,51,52
 583 0 583 0 570 0 c 2,0,-1
EndSplineSet
EndChar

StartChar: i
Encoding: 105 105 75
Width: 293
GlyphClass: 2
Flags: W
LayerCount: 2
Fore
SplineSet
242 0 m 2,0,-1
 51 0 l 2,1,2
 38 0 38 0 38 12 c 2,3,-1
 38 55 l 2,4,5
 38 67 38 67 51 67 c 2,6,-1
 106 67 l 1,7,-1
 106 425 l 1,8,-1
 51 425 l 2,9,10
 38 425 38 425 38 437 c 2,11,-1
 38 480 l 2,12,13
 38 492 38 492 51 492 c 2,14,-1
 177 492 l 2,15,16
 189 492 189 492 189 480 c 2,17,-1
 189 67 l 1,18,-1
 242 67 l 2,19,20
 255 67 255 67 255 55 c 2,21,-1
 255 12 l 2,22,23
 255 0 255 0 242 0 c 2,0,-1
202 600 m 128,-1,25
 202 577 202 577 185.5 561 c 128,-1,26
 169 545 169 545 146 545 c 128,-1,27
 123 545 123 545 106.5 561 c 128,-1,28
 90 577 90 577 90 600 c 128,-1,29
 90 623 90 623 106.5 640 c 128,-1,30
 123 657 123 657 146 657 c 128,-1,31
 169 657 169 657 185.5 640 c 128,-1,24
 202 623 202 623 202 600 c 128,-1,25
EndSplineSet
EndChar

StartChar: j
Encoding: 106 106 76
Width: 326
GlyphClass: 2
Flags: W
LayerCount: 2
Fore
SplineSet
288 601 m 128,-1,1
 288 578 288 578 271.5 561.5 c 128,-1,2
 255 545 255 545 232 545 c 128,-1,3
 209 545 209 545 192.5 561.5 c 128,-1,4
 176 578 176 578 176 601 c 128,-1,5
 176 624 176 624 192.5 640.5 c 128,-1,6
 209 657 209 657 232 657 c 128,-1,7
 255 657 255 657 271.5 640.5 c 128,-1,0
 288 624 288 624 288 601 c 128,-1,1
189 -63 m 2,8,-1
 189 425 l 1,9,-1
 133 425 l 2,10,11
 121 425 121 425 121 437 c 2,12,-1
 121 480 l 2,13,14
 121 492 121 492 133 492 c 2,15,-1
 260 492 l 2,16,17
 272 492 272 492 272 480 c 2,18,-1
 272 -64 l 2,19,20
 272 -147 272 -147 229.5 -190.5 c 128,-1,21
 187 -234 187 -234 111 -234 c 0,22,23
 55 -234 55 -234 11 -195 c 0,24,25
 5 -190 5 -190 5 -185 c 128,-1,26
 5 -180 5 -180 9 -176 c 2,27,-1
 32 -146 l 1,28,29
 41 -137 41 -137 50 -144 c 0,30,31
 74 -163 74 -163 104 -163 c 0,32,33
 189 -163 189 -163 189 -63 c 2,8,-1
EndSplineSet
EndChar

StartChar: k
Encoding: 107 107 77
Width: 614
GlyphClass: 2
Flags: W
LayerCount: 2
Fore
SplineSet
570 0 m 2,0,-1
 516 0 l 2,1,2
 485 0 485 0 463 31 c 2,3,-1
 286 271 l 1,4,-1
 189 181 l 1,5,-1
 189 67 l 1,6,-1
 242 67 l 2,7,8
 255 67 255 67 255 55 c 2,9,-1
 255 12 l 2,10,11
 255 0 255 0 242 0 c 2,12,-1
 51 0 l 2,13,14
 38 0 38 0 38 12 c 2,15,-1
 38 55 l 2,16,17
 38 67 38 67 51 67 c 2,18,-1
 106 67 l 1,19,-1
 106 651 l 1,20,-1
 51 651 l 2,21,22
 38 651 38 651 38 663 c 2,23,-1
 38 706 l 2,24,25
 38 718 38 718 51 718 c 2,26,-1
 177 718 l 2,27,28
 189 718 189 718 189 706 c 2,29,-1
 189 258 l 1,30,-1
 371 425 l 1,31,-1
 335 425 l 2,32,33
 323 425 323 425 323 437 c 2,34,-1
 323 480 l 2,35,36
 323 492 323 492 335 492 c 2,37,-1
 527 492 l 2,38,39
 539 492 539 492 539 480 c 2,40,-1
 539 437 l 2,41,42
 539 425 539 425 527 425 c 2,43,-1
 462 425 l 1,44,-1
 340 318 l 1,45,-1
 527 67 l 1,46,-1
 570 67 l 2,47,48
 582 67 582 67 582 55 c 2,49,-1
 582 12 l 2,50,51
 582 0 582 0 570 0 c 2,0,-1
EndSplineSet
Substitution2: "'salt' Stylistic Alternatives lookup 0 subtable" k.alt
EndChar

StartChar: l
Encoding: 108 108 78
Width: 293
GlyphClass: 2
Flags: W
LayerCount: 2
Fore
SplineSet
242 0 m 2,0,-1
 51 0 l 2,1,2
 38 0 38 0 38 12 c 2,3,-1
 38 55 l 2,4,5
 38 67 38 67 51 67 c 2,6,-1
 106 67 l 1,7,-1
 106 651 l 1,8,-1
 51 651 l 2,9,10
 38 651 38 651 38 663 c 2,11,-1
 38 706 l 2,12,13
 38 718 38 718 51 718 c 2,14,-1
 162 718 l 2,15,16
 189 718 189 718 189 693 c 2,17,-1
 189 67 l 1,18,-1
 242 67 l 2,19,20
 255 67 255 67 255 55 c 2,21,-1
 255 12 l 2,22,23
 255 0 255 0 242 0 c 2,0,-1
EndSplineSet
EndChar

StartChar: m
Encoding: 109 109 79
Width: 931
GlyphClass: 2
Flags: W
LayerCount: 2
Fore
SplineSet
880 0 m 2,0,-1
 785 0 l 2,1,2
 762 0 762 0 751.5 9.5 c 128,-1,3
 741 19 741 19 741 42 c 2,4,-1
 741 305 l 2,5,6
 741 363 741 363 713.5 395 c 128,-1,7
 686 427 686 427 632 427 c 0,8,9
 553 427 553 427 508 358 c 1,10,11
 514 340 514 340 514 318 c 2,12,-1
 514 67 l 1,13,-1
 570 67 l 2,14,15
 582 67 582 67 582 55 c 2,16,-1
 582 12 l 2,17,18
 582 0 582 0 570 0 c 2,19,-1
 379 0 l 2,20,21
 366 0 366 0 366 12 c 2,22,-1
 366 55 l 2,23,24
 366 67 366 67 379 67 c 2,25,-1
 432 67 l 1,26,-1
 432 305 l 2,27,28
 432 363 432 363 404 395 c 128,-1,29
 376 427 376 427 322 427 c 0,30,31
 281 427 281 427 259.5 414.5 c 128,-1,32
 238 402 238 402 227 392.5 c 128,-1,33
 216 383 216 383 209 374 c 0,34,35
 197 358 197 358 189 341 c 1,36,-1
 189 67 l 1,37,-1
 238 67 l 2,38,39
 250 67 250 67 250 55 c 2,40,-1
 250 12 l 2,41,42
 250 0 250 0 238 0 c 2,43,-1
 51 0 l 2,44,45
 38 0 38 0 38 12 c 2,46,-1
 38 55 l 2,47,48
 38 67 38 67 51 67 c 2,49,-1
 106 67 l 1,50,-1
 106 425 l 1,51,-1
 51 425 l 2,52,53
 38 425 38 425 38 437 c 2,54,-1
 38 480 l 2,55,56
 38 492 38 492 51 492 c 2,57,-1
 149 492 l 2,58,59
 166 492 166 492 173.5 485.5 c 128,-1,60
 181 479 181 479 181 462 c 2,61,-1
 179 412 l 1,62,-1
 182 412 l 1,63,64
 234 499 234 499 343.5 499 c 128,-1,65
 453 499 453 499 493 416 c 1,66,67
 550 499 550 499 654 499 c 0,68,69
 734 499 734 499 778.5 452 c 128,-1,70
 823 405 823 405 823 325 c 2,71,-1
 824 67 l 1,72,-1
 880 67 l 2,73,74
 893 67 893 67 893 55 c 2,75,-1
 893 12 l 2,76,77
 893 0 893 0 880 0 c 2,0,-1
EndSplineSet
EndChar

StartChar: n
Encoding: 110 110 80
Width: 621
GlyphClass: 2
Flags: W
LayerCount: 2
Fore
SplineSet
570 0 m 2,0,-1
 475 0 l 2,1,2
 432 0 432 0 432 42 c 2,3,-1
 432 305 l 2,4,5
 432 363 432 363 404 395 c 128,-1,6
 376 427 376 427 322 427 c 0,7,8
 245 427 245 427 202 364 c 0,9,10
 197 358 197 358 189 342 c 1,11,-1
 189 67 l 1,12,-1
 242 67 l 2,13,14
 255 67 255 67 255 55 c 2,15,-1
 255 12 l 2,16,17
 255 0 255 0 242 0 c 2,18,-1
 51 0 l 2,19,20
 38 0 38 0 38 12 c 2,21,-1
 38 55 l 2,22,23
 38 67 38 67 51 67 c 2,24,-1
 106 67 l 1,25,-1
 106 425 l 1,26,-1
 51 425 l 2,27,28
 38 425 38 425 38 437 c 2,29,-1
 38 480 l 2,30,31
 38 492 38 492 51 492 c 2,32,-1
 168 492 l 2,33,34
 181 492 181 492 181 480 c 2,35,-1
 179 412 l 1,36,-1
 182 412 l 1,37,38
 234 499 234 499 343 499 c 0,39,40
 423 499 423 499 468 452 c 128,-1,41
 513 405 513 405 514 325 c 1,42,-1
 514 67 l 1,43,-1
 570 67 l 2,44,45
 583 67 583 67 583 55 c 2,46,-1
 583 12 l 2,47,48
 583 0 583 0 570 0 c 2,0,-1
EndSplineSet
EndChar

StartChar: o
Encoding: 111 111 81
Width: 575
GlyphClass: 2
Flags: W
LayerCount: 2
Fore
SplineSet
287 -7 m 128,-1,1
 178 -7 178 -7 108 62.5 c 128,-1,2
 38 132 38 132 38 247.5 c 128,-1,3
 38 363 38 363 109 431 c 128,-1,4
 180 499 180 499 287.5 499 c 128,-1,5
 395 499 395 499 465.5 430.5 c 128,-1,6
 536 362 536 362 536 247.5 c 128,-1,7
 536 133 536 133 466 63 c 128,-1,0
 396 -7 396 -7 287 -7 c 128,-1,1
170 114 m 128,-1,9
 218 63 218 63 287.5 63 c 128,-1,10
 357 63 357 63 405 114 c 128,-1,11
 453 165 453 165 453 247 c 128,-1,12
 453 329 453 329 404.5 379 c 128,-1,13
 356 429 356 429 288 429 c 128,-1,14
 220 429 220 429 171 379 c 128,-1,15
 122 329 122 329 122 247 c 128,-1,8
 122 165 122 165 170 114 c 128,-1,9
EndSplineSet
EndChar

StartChar: p
Encoding: 112 112 82
Width: 613
GlyphClass: 2
Flags: W
LayerCount: 2
Fore
SplineSet
252 -225 m 2,0,-1
 51 -225 l 2,1,2
 38 -225 38 -225 38 -213 c 2,3,-1
 38 -170 l 2,4,5
 38 -158 38 -158 51 -158 c 2,6,-1
 107 -158 l 1,7,-1
 107 425 l 1,8,-1
 53 425 l 2,9,10
 40 425 40 425 40 437 c 2,11,-1
 40 480 l 2,12,13
 40 492 40 492 53 492 c 2,14,-1
 170 492 l 2,15,16
 183 492 183 492 183 480 c 2,17,-1
 182 401 l 1,18,-1
 183 401 l 1,19,20
 202 442 202 442 244.5 470.5 c 128,-1,21
 287 499 287 499 349 499 c 0,22,23
 450 499 450 499 512 430.5 c 128,-1,24
 574 362 574 362 574 248.5 c 128,-1,25
 574 135 574 135 513 64 c 128,-1,26
 452 -7 452 -7 350 -7 c 0,27,28
 288 -7 288 -7 246.5 21.5 c 128,-1,29
 205 50 205 50 187 91 c 1,30,-1
 184 91 l 1,31,32
 187 59 187 59 187 45 c 2,33,-1
 187 -158 l 1,34,-1
 252 -158 l 2,35,36
 265 -158 265 -158 265 -170 c 2,37,-1
 265 -213 l 2,38,39
 265 -225 265 -225 252 -225 c 2,0,-1
230.5 110 m 128,-1,41
 276 63 276 63 340.5 63 c 128,-1,42
 405 63 405 63 448.5 113.5 c 128,-1,43
 492 164 492 164 492 246.5 c 128,-1,44
 492 329 492 329 448.5 379 c 128,-1,45
 405 429 405 429 340 429 c 128,-1,46
 275 429 275 429 230 380 c 128,-1,47
 185 331 185 331 185 244 c 128,-1,40
 185 157 185 157 230.5 110 c 128,-1,41
EndSplineSet
EndChar

StartChar: q
Encoding: 113 113 83
Width: 613
GlyphClass: 2
Flags: W
LayerCount: 2
Fore
SplineSet
562 -225 m 2,0,-1
 361 -225 l 2,1,2
 348 -225 348 -225 348 -213 c 2,3,-1
 348 -170 l 2,4,5
 348 -158 348 -158 361 -158 c 2,6,-1
 426 -158 l 1,7,-1
 426 50 l 1,8,-1
 429 95 l 1,9,-1
 426 95 l 1,10,11
 408 53 408 53 366 23 c 128,-1,12
 324 -7 324 -7 263 -7 c 0,13,14
 161 -7 161 -7 99.5 64 c 128,-1,15
 38 135 38 135 38 248.5 c 128,-1,16
 38 362 38 362 100.5 430.5 c 128,-1,17
 163 499 163 499 263 499 c 0,18,19
 325 499 325 499 367.5 470.5 c 128,-1,20
 410 442 410 442 429 402 c 1,21,-1
 431 402 l 1,22,-1
 430 480 l 2,23,24
 430 492 430 492 442 492 c 2,25,-1
 494 492 l 2,26,27
 506 492 506 492 506 480 c 2,28,-1
 506 -158 l 1,29,-1
 562 -158 l 2,30,31
 574 -158 574 -158 574 -170 c 2,32,-1
 574 -213 l 2,33,34
 574 -225 574 -225 562 -225 c 2,0,-1
164 113.5 m 128,-1,36
 208 63 208 63 274 63 c 128,-1,37
 340 63 340 63 383.5 113 c 128,-1,38
 427 163 427 163 427 247 c 128,-1,39
 427 331 427 331 383.5 380 c 128,-1,40
 340 429 340 429 274 429 c 128,-1,41
 208 429 208 429 164 379 c 128,-1,42
 120 329 120 329 120 246.5 c 128,-1,35
 120 164 120 164 164 113.5 c 128,-1,36
EndSplineSet
EndChar

StartChar: r
Encoding: 114 114 84
Width: 421
GlyphClass: 2
Flags: W
LayerCount: 2
Fore
SplineSet
242 0 m 2,0,-1
 51 0 l 2,1,2
 38 0 38 0 38 12 c 2,3,-1
 38 55 l 2,4,5
 38 67 38 67 51 67 c 2,6,-1
 106 67 l 1,7,-1
 106 425 l 1,8,-1
 51 425 l 2,9,10
 38 425 38 425 38 437 c 2,11,-1
 38 480 l 2,12,13
 38 492 38 492 51 492 c 2,14,-1
 168 492 l 2,15,16
 181 492 181 492 181 480 c 2,17,-1
 181 355 l 1,18,-1
 184 355 l 1,19,20
 187 371 187 371 205 399 c 128,-1,21
 223 427 223 427 244.5 445.5 c 128,-1,22
 266 464 266 464 306.5 479 c 128,-1,23
 347 494 347 494 398 494 c 0,24,25
 411 494 411 494 411 481 c 2,26,-1
 411 428 l 2,27,28
 411 415 411 415 398 415 c 2,29,-1
 377 415 l 2,30,31
 291 415 291 415 240 360 c 128,-1,32
 189 305 189 305 189 235 c 2,33,-1
 189 67 l 1,34,-1
 242 67 l 2,35,36
 255 67 255 67 255 55 c 2,37,-1
 255 12 l 2,38,39
 255 0 255 0 242 0 c 2,0,-1
EndSplineSet
EndChar

StartChar: s
Encoding: 115 115 85
Width: 486
GlyphClass: 2
Flags: W
LayerCount: 2
Fore
SplineSet
260 -7 m 0,0,1
 193 -7 193 -7 153 18 c 128,-1,2
 113 43 113 43 103 65 c 1,3,-1
 101 65 l 1,4,5
 103 16 103 16 103 13 c 0,6,7
 103 0 103 0 89 0 c 2,8,-1
 55 0 l 2,9,10
 42 0 42 0 42 13 c 2,11,-1
 42 163 l 2,12,13
 42 176 42 176 55 176 c 2,14,-1
 94 176 l 2,15,16
 108 176 108 176 108 163 c 2,17,-1
 108 143 l 1,18,19
 118 113 118 113 150 88 c 0,20,21
 188 58 188 58 245 58 c 0,22,23
 357 58 357 58 357 136 c 0,24,25
 357 163 357 163 326 179.5 c 128,-1,26
 295 196 295 196 250.5 207 c 128,-1,27
 206 218 206 218 162 232 c 128,-1,28
 118 246 118 246 87 277.5 c 128,-1,29
 56 309 56 309 56 357 c 0,30,31
 56 422 56 422 103 460.5 c 128,-1,32
 150 499 150 499 223 499 c 0,33,34
 322 499 322 499 365 441 c 1,35,-1
 367 441 l 1,36,37
 365 477 365 477 365 478 c 0,38,39
 365 491 365 491 378 491 c 2,40,-1
 410 491 l 2,41,42
 423 491 423 491 423 478 c 2,43,-1
 423 339 l 2,44,45
 423 326 423 326 410 326 c 2,46,-1
 371 326 l 2,47,48
 357 326 357 326 357 339 c 2,49,-1
 357 353 l 2,50,51
 357 380 357 380 325.5 406.5 c 128,-1,52
 294 433 294 433 244 433 c 128,-1,53
 194 433 194 433 166 412 c 128,-1,54
 138 391 138 391 138 357.5 c 128,-1,55
 138 324 138 324 169.5 305.5 c 128,-1,56
 201 287 201 287 246 276.5 c 128,-1,57
 291 266 291 266 336 253 c 128,-1,58
 381 240 381 240 412.5 210 c 128,-1,59
 444 180 444 180 444 127 c 128,-1,60
 444 74 444 74 398.5 33.5 c 128,-1,61
 353 -7 353 -7 260 -7 c 0,0,1
EndSplineSet
EndChar

StartChar: t
Encoding: 116 116 86
Width: 401
GlyphClass: 2
Flags: W
LayerCount: 2
Fore
SplineSet
372 51 m 2,0,1
 376 47 376 47 376 42.5 c 128,-1,2
 376 38 376 38 370 32 c 0,3,4
 326 -7 326 -7 259.5 -7 c 128,-1,5
 193 -7 193 -7 150.5 36.5 c 128,-1,6
 108 80 108 80 108 163 c 2,7,-1
 108 425 l 1,8,-1
 52 425 l 2,9,10
 38 425 38 425 38 438 c 2,11,-1
 38 479 l 2,12,13
 38 492 38 492 52 492 c 2,14,-1
 108 492 l 1,15,-1
 108 593 l 2,16,17
 108 607 108 607 122 607 c 2,18,-1
 178 607 l 2,19,20
 191 607 191 607 191 593 c 2,21,-1
 191 492 l 1,22,-1
 318 492 l 2,23,24
 332 492 332 492 332 479 c 2,25,-1
 332 438 l 2,26,27
 332 425 332 425 318 425 c 2,28,-1
 191 425 l 1,29,-1
 191 165 l 2,30,31
 191 115 191 115 213.5 89.5 c 128,-1,32
 236 64 236 64 273.5 64 c 128,-1,33
 311 64 311 64 330 83 c 0,34,35
 340 92 340 92 348 82 c 2,36,-1
 372 51 l 2,0,1
EndSplineSet
EndChar

StartChar: u
Encoding: 117 117 87
Width: 608
GlyphClass: 2
Flags: W
LayerCount: 2
Fore
SplineSet
557 0 m 2,0,-1
 470 0 l 2,1,2
 427 0 427 0 427 42 c 2,3,-1
 427 79 l 1,4,-1
 424 79 l 1,5,6
 383 -7 383 -7 268 -7 c 0,7,8
 188 -7 188 -7 141.5 40.5 c 128,-1,9
 95 88 95 88 94 167 c 1,10,-1
 94 425 l 1,11,-1
 37 425 l 2,12,13
 25 425 25 425 25 437 c 2,14,-1
 25 480 l 2,15,16
 25 492 25 492 37 492 c 2,17,-1
 133 492 l 2,18,19
 176 492 176 492 176 450 c 2,20,-1
 176 187 l 2,21,22
 176 129 176 129 204 97 c 128,-1,23
 232 65 232 65 286 65 c 0,24,25
 359 65 359 65 401 119 c 0,26,27
 419 142 419 142 419 150 c 2,28,-1
 419 425 l 1,29,-1
 365 425 l 2,30,31
 353 425 353 425 353 437 c 2,32,-1
 353 480 l 2,33,34
 353 492 353 492 365 492 c 2,35,-1
 489 492 l 2,36,37
 501 492 501 492 501 480 c 2,38,-1
 501 67 l 1,39,-1
 557 67 l 2,40,41
 570 67 570 67 570 55 c 2,42,-1
 570 12 l 2,43,44
 570 0 570 0 557 0 c 2,0,-1
EndSplineSet
EndChar

StartChar: v
Encoding: 118 118 88
Width: 588
GlyphClass: 2
Flags: W
LayerCount: 2
Fore
SplineSet
326 0 m 2,0,-1
 259 0 l 2,1,2
 249 0 249 0 245 3.5 c 128,-1,3
 241 7 241 7 237 18 c 2,4,-1
 78 425 l 1,5,-1
 22 425 l 2,6,7
 10 425 10 425 10 437 c 2,8,-1
 10 480 l 2,9,10
 10 492 10 492 22 492 c 2,11,-1
 208 492 l 2,12,13
 220 492 220 492 220 480 c 2,14,-1
 220 437 l 2,15,16
 220 425 220 425 208 425 c 2,17,-1
 164 425 l 1,18,-1
 292 88 l 1,19,-1
 294 88 l 1,20,-1
 424 425 l 1,21,-1
 379 425 l 2,22,23
 367 425 367 425 367 437 c 2,24,-1
 367 480 l 2,25,26
 367 492 367 492 379 492 c 2,27,-1
 565 492 l 2,28,29
 578 492 578 492 578 480 c 2,30,-1
 578 437 l 2,31,32
 578 425 578 425 565 425 c 2,33,-1
 510 425 l 1,34,-1
 349 18 l 1,35,36
 343 0 343 0 326 0 c 2,0,-1
EndSplineSet
EndChar

StartChar: w
Encoding: 119 119 89
Width: 812
GlyphClass: 2
Flags: W
LayerCount: 2
Fore
SplineSet
576 0 m 2,0,-1
 517 0 l 2,1,2
 496 0 496 0 493 21 c 1,3,-1
 408 356 l 1,4,-1
 406 356 l 1,5,-1
 321 21 l 1,6,7
 317 0 317 0 296 0 c 2,8,-1
 238 0 l 2,9,10
 220 0 220 0 214 21 c 2,11,-1
 82 425 l 1,12,-1
 26 425 l 2,13,14
 14 425 14 425 14 437 c 2,15,-1
 14 480 l 2,16,17
 14 492 14 492 26 492 c 2,18,-1
 213 492 l 2,19,20
 225 492 225 492 225 480 c 2,21,-1
 225 437 l 2,22,23
 225 425 225 425 213 425 c 2,24,-1
 167 425 l 1,25,-1
 268 88 l 1,26,-1
 270 88 l 1,27,-1
 358 425 l 1,28,-1
 319 425 l 2,29,30
 307 425 307 425 307 437 c 2,31,-1
 307 480 l 2,32,33
 307 492 307 492 319 492 c 2,34,-1
 495 492 l 2,35,36
 507 492 507 492 507 480 c 2,37,-1
 507 437 l 2,38,39
 507 425 507 425 495 425 c 2,40,-1
 456 425 l 1,41,-1
 544 88 l 1,42,-1
 546 88 l 1,43,-1
 646 425 l 1,44,-1
 601 425 l 2,45,46
 588 425 588 425 588 437 c 2,47,-1
 588 480 l 2,48,49
 588 492 588 492 601 492 c 2,50,-1
 787 492 l 2,51,52
 799 492 799 492 799 480 c 2,53,-1
 799 437 l 2,54,55
 799 425 799 425 787 425 c 2,56,-1
 732 425 l 1,57,-1
 600 21 l 1,58,59
 592 0 592 0 576 0 c 2,0,-1
EndSplineSet
EndChar

